<?xml version="1.0" standalone="no"?>
<!DOCTYPE svg PUBLIC "-//W3C//DTD SVG 1.1//EN" "http://www.w3.org/Graphics/SVG/1.1/DTD/svg11.dtd" >
<svg xmlns="http://www.w3.org/2000/svg" xmlns:xlink="http://www.w3.org/1999/xlink" version="1.1">
<metadata>
Created by FontForge 20201107 at Tue May 20 05:43:51 2025
 By Unknown
Copyright (c) 2023, Randy Huynh
</metadata>
<defs>
<font id="Bitcraft-Icon-Font" horiz-adv-x="1000" >
  <font-face 
    font-family="Bitcraft"
    font-weight="400"
    font-stretch="normal"
    units-per-em="1000"
    panose-1="2 0 5 9 0 0 0 0 0 0"
    ascent="800"
    descent="-200"
    x-height="924"
    cap-height="982.33"
    bbox="-0.00619536 -1.00159 1000.12 999"
    underline-thickness="50"
    underline-position="-100"
    stemh="200"
    stemv="200"
    unicode-range="U+0001-FFFE"
  />
<missing-glyph 
d="M50 199v533h900v-533h-900zM100 249h800v433h-800v-433z" />
    <glyph glyph-name=".notdef" 
d="M50 199v533h900v-533h-900zM100 249h800v433h-800v-433z" />
    <glyph glyph-name="uni0001" 
d="M25 199c-13.8066 0 -25 -11.1934 -25 -25v-75c0 -55.2285 44.7715 -100 100 -100h75c13.8066 0 25 11.1934 25 25v50c0 13.8066 -11.1934 25 -25 25h-50c-13.8076 0 -25 11.1934 -25 25v50c0 13.8066 -11.1924 25 -25 25h-50zM200 974c0 13.8066 -11.1934 25 -25 25h-75
c-55.2285 0 -100 -44.7715 -100 -100v-75c0 -13.8066 11.1934 -25 25 -25h50c13.8076 0 25 11.1934 25 25v50c0 13.8076 11.1924 25 25 25h50c13.8066 0 25 11.1924 25 25v50zM0 424c0 -13.8066 11.1934 -25 25 -25h50c13.8076 0 25 11.1934 25 25v150
c0 13.8066 -11.1924 25 -25 25h-50c-13.8066 0 -25 -11.1934 -25 -25v-150zM425 999c-13.8066 0 -25 -11.1934 -25 -25v-50c0 -13.8076 11.1934 -25 25 -25h150c13.8066 0 25 11.1924 25 25v50c0 13.8066 -11.1934 25 -25 25h-150zM825 999c-13.8066 0 -25 -11.1934 -25 -25
v-50c0 -13.8076 11.1934 -25 25 -25h50c13.8066 0 25 -11.1924 25 -25v-50c0 -13.8066 11.1934 -25 25 -25h50c13.8066 0 25 11.1934 25 25v75c0 55.2285 -44.7715 100 -100 100h-75zM1000 574c0 13.8066 -11.1934 25 -25 25h-50c-13.8066 0 -25 -11.1934 -25 -25v-150
c0 -13.8066 11.1934 -25 25 -25h50c13.8066 0 25 11.1934 25 25v150zM1000 174c0 13.8066 -11.1934 25 -25 25h-50c-13.8066 0 -25 -11.1934 -25 -25v-50c0 -13.8066 -11.1934 -25 -25 -25h-50c-13.8066 0 -25 -11.1934 -25 -25v-50c0 -13.8066 11.1934 -25 25 -25h75
c55.2285 0 100 44.7715 100 100v75zM575 -1c13.8066 0 25 11.1934 25 25v50c0 13.8066 -11.1934 25 -25 25h-150c-13.8066 0 -25 -11.1934 -25 -25v-50c0 -13.8066 11.1934 -25 25 -25h150z" />
    <glyph glyph-name="uni0002" 
d="M461.7 331.8c25.666 0 49 3.2666 70 9.7998c21 7 38.9668 17.0342 53.8994 30.1006c15.4004 13.0664 27.0674 29.3994 35 49c8.40039 20.0664 12.6006 42.9336 12.6006 68.5996c0 33.6006 -5.60059 60.9004 -16.7998 81.9004
c-10.7334 21.4668 -24.2666 38.0332 -40.6006 49.7002c-15.8662 11.666 -32.2002 19.5996 -49 23.7998c-16.7998 4.66602 -31.0332 7 -42.7002 7h-82.5996v-319.9h60.2002zM125 999l-125 -125v-750l125 -125h750l125 125v750l-125 125h-750zM300 749h154
c51.7998 0 95.9004 -7.7002 132.3 -23.0996c36.4004 -15.4004 65.5664 -35.9336 87.5 -61.6006c22.4004 -25.666 38.7334 -54.3662 49 -86.0996s15.4004 -63.7002 15.4004 -95.9004c0 -38.2666 -7 -72.7998 -21 -103.6c-13.5332 -30.334 -32.2002 -56.4668 -56 -78.4004
c-23.7998 -21.4668 -51.334 -38.0332 -82.6006 -49.7002c-31.2666 -11.1992 -64.3994 -16.7998 -99.3994 -16.7998h-179.2v515.2z" />
    <glyph glyph-name="uni0004" 
d="M125 999l-125 -125v-750l125 -125h750l125 125v750l-125 125h-750zM672 749v-98h-220.5v-116.9h191.1v-98h-191.1v-202.3h-101.5v515.2h322z" />
    <glyph glyph-name="uni0005" 
d="M125 999l-125 -125v-750l125 -125h750l125 125v750l-125 125h-750zM695.7 284.7c-13.0664 -6.5332 -28.2334 -12.6006 -45.5 -18.2002c-16.7998 -5.59961 -34.0664 -10.0332 -51.7998 -13.2998c-17.7334 -3.7334 -34.5342 -5.60059 -50.4004 -5.60059
c-42 0 -79.7998 6.06738 -113.4 18.2002c-33.5996 12.6006 -62.2998 29.8672 -86.0996 51.7998c-23.7998 22.4004 -42 48.7666 -54.5996 79.1006c-12.6006 30.333 -18.9004 63.4668 -18.9004 99.3994c0 47.1338 7 87.9668 21 122.5
c14.4668 35 33.833 63.9336 58.0996 86.8008c24.7334 23.333 52.9668 40.5996 84.7002 51.7998c32.2002 11.2002 65.7998 16.7998 100.8 16.7998c33.1338 0 63.4668 -3.7334 91 -11.2002c27.5342 -7 50.8672 -15.8662 70 -26.5996l-32.8994 -94.5
c-8.40039 4.66602 -19.6006 9.33301 -33.6006 14c-14 4.66602 -28.2334 8.39941 -42.6992 11.2002c-14.4668 3.2666 -27.3008 4.89941 -38.5 4.89941c-28 0 -52.7334 -3.5 -74.2002 -10.5s-39.667 -17.5 -54.6006 -31.5c-14.4658 -14 -25.4326 -31.5 -32.8994 -52.5
c-7.4668 -20.5332 -11.2002 -44.5664 -11.2002 -72.0996c0 -24.2666 4.2002 -46.2002 12.5996 -65.7998c8.40039 -19.1338 20.0674 -35.4668 35 -49c15.4004 -13.5342 33.3672 -23.8008 53.9004 -30.8008c21 -7 44.0996 -10.5 69.2998 -10.5
c14.4668 0 27.7666 0.933594 39.9004 2.80078c12.1328 2.33301 22.3994 5.83301 30.7998 10.5v62.2998h-88.9004v98h191.801v-217.7c-6.06738 -6.5332 -15.6338 -13.2998 -28.7002 -20.2998z" />
    <glyph glyph-name="uni0006" 
d="M125 999l-125 -125v-750l125 -125h750l125 125v750l-125 125h-750zM708.3 233.8h-101.5v209.3h-230.3v-209.3h-101.5v515.2h101.5v-207.9h230.3v207.9h101.5v-515.2z" />
    <glyph glyph-name="uni0007" 
d="M125 999l-125 -125v-750l125 -125h750l125 125v750l-125 125h-750zM583.4 277.5c-17.7334 -31.7334 -42.4668 -56 -74.2002 -72.7998c-31.2666 -17.2666 -67.667 -26.6006 -109.2 -28v98.7002c31.7334 1.86621 57.6338 11.666 77.7002 29.3994
s30.0996 47.6006 30.0996 89.6006v404.6h102.2v-406.7c0 -44.7998 -8.86621 -83.0664 -26.5996 -114.8z" />
    <glyph glyph-name="uni0008" 
d="M125 999l-125 -125v-750l125 -125h750l125 125v750l-125 125h-750zM375.87 543.05l2.03027 -304.55h-102.9v535.5h4.2002l359.729 -330.74l-2.02832 310.44h102.199v-536.2h-2.7998z" />
    <glyph glyph-name="uni000E" 
d="M125 999l-125 -125v-750l125 -125h750l125 125v750l-125 125h-750zM294 774l101.233 -297.896l78.8379 196.233l-40.7715 101.663h100.8l115.829 -286.052l87.1709 286.052h109.2l-198.8 -534.1l-122.42 305.251l-142.88 -306.651l-207.2 535.5h119z" />
    <glyph glyph-name="uni000F" 
d="M125 999l-125 -125v-750l125 -125h750l125 125v750l-125 125h-750zM411.5 749l111.582 -171.092l96.3184 171.092h123.199l-164.055 -256.135l168.955 -259.065h-130.9l-115.399 177.687l-100.2 -177.687h-126l169.002 265.759l-162.002 249.441h129.5z" />
    <glyph glyph-name="uni0010" 
d="M125 999l-125 -125v-750l125 -125h750l125 125v750l-125 125h-750zM286.9 251.8c7.93262 12.6006 18.4326 29.4004 31.5 50.4004c13.5332 21 28.4658 44.7998 44.7998 71.3994c16.7998 26.6006 33.833 53.9004 51.0996 81.9004
c17.7334 28 34.7666 55.2998 51.1006 81.9004c16.7998 26.5996 31.7334 50.3994 44.7998 71.3994c10.502 16.2949 19.3164 30.0615 26.4463 41.2998h-156.646c-9.7998 0 -20.0664 2.10059 -30.7998 6.30078c-10.2666 4.66602 -19.1338 10.7334 -26.6006 18.1992
c-7 7.93359 -10.5 16.5674 -10.5 25.9004v73.5h93.1006v-9.7998c0 -10.2666 1.63281 -15.6338 4.89941 -16.1006h303.801l-264.5 -417.199h263.8v-98h-438.2z" />
    <glyph glyph-name="uni0011" 
d="M517.679 956.322c9.7627 9.76367 9.7627 25.5918 0 35.3555c-9.76367 9.7627 -25.5918 9.7627 -35.3555 0c-51.1846 -51.1846 -51.1846 -134.171 0 -185.356c31.6582 -31.6582 31.6582 -82.9844 0 -114.643c-9.76367 -9.76367 -9.76367 -25.5938 0 -35.3574
c9.76367 -9.76172 25.5918 -9.76172 35.3555 0c51.1846 51.1855 51.1846 134.172 0 185.356c-31.6592 31.6582 -31.6592 82.9863 0 114.645zM261.816 744.568c1.8418 12.8467 -13.7979 17.0518 -24.7109 10.0283c-77.6543 -49.9834 -112.105 -113.519 -112.105 -142.521
c0 -51.5088 21.2324 -200.985 53.4297 -352.983c8.10352 -38.2568 25.1572 -74.5215 51.8604 -103.844c59.2783 -65.0947 111.747 -104.68 184.474 -137.845c26.9082 -12.2695 56.0732 -18.4033 85.2363 -18.4033s58.3281 6.13379 85.2363 18.4033
c72.7266 33.165 125.195 72.75 184.474 137.845c26.7031 29.3223 43.7568 65.5869 51.8604 103.844c32.1982 151.998 53.4297 301.475 53.4297 352.983c0 20.2012 -16.7119 57.1533 -53.0947 94.6094c-13.9473 14.3584 -37.6924 4.13867 -43.9951 -14.8594
c-8.59668 -25.9023 -23.2002 -50.2471 -43.8115 -70.8564c-29.2891 -29.29 -76.7773 -29.29 -106.065 0c-28.0332 28.0312 -40.5332 34.4648 -75 0c-29.2881 -29.29 -76.7764 -29.29 -106.064 0c-34.4688 34.4658 -46.9688 40.8994 -87.8701 0
c-29.2891 -29.29 -76.7773 -29.29 -106.065 0c-29.29 29.2881 -29.29 76.7764 0 106.064c4.93555 4.93652 7.86328 11.1182 8.7832 17.5352zM246.479 463.691c110.859 70.9434 186.774 -51.1445 180.564 -84.1562c-0.551758 -2.93652 -2.70312 -5.12695 -5.1582 -6.83203
c-10.3965 -7.21973 -41.5566 -26.5645 -74.5264 -24.6396c-22.3887 1.30664 -44.3301 9.05859 -61.1201 23.7783c-16.8379 14.7686 -39.207 44.875 -48.1152 69.5146c-3.05273 8.44531 0.791992 17.4951 8.35547 22.335zM753.521 463.691
c7.56348 -4.83984 11.4082 -13.8896 8.35547 -22.335c-8.9082 -24.6396 -31.2773 -54.7461 -48.1152 -69.5146c-16.79 -14.7197 -38.7314 -22.4717 -61.1201 -23.7783c-32.9697 -1.9248 -64.1299 17.4199 -74.5264 24.6396
c-2.45508 1.70508 -4.60645 3.89551 -5.1582 6.83203c-6.20996 33.0117 69.7051 155.1 180.564 84.1562zM692.679 991.678c-9.76367 9.7627 -25.5918 9.7627 -35.3555 0c-51.1846 -51.1846 -51.1846 -134.171 0 -185.356c31.6582 -31.6582 31.6582 -82.9844 0 -114.643
c-9.76367 -9.76367 -9.76367 -25.5938 0 -35.3574c9.76367 -9.76172 25.5918 -9.76172 35.3555 0c51.1846 51.1855 51.1846 134.172 0 185.356c-31.6592 31.6582 -31.6592 82.9863 0 114.645c9.7627 9.76367 9.7627 25.5918 0 35.3555zM323.743 956.322
c9.76367 9.76367 9.76367 25.5918 0 35.3555c-9.7627 9.7627 -25.5918 9.7627 -35.3545 0c-51.1855 -51.1846 -51.1855 -134.171 0 -185.356c31.6582 -31.6582 31.6582 -82.9844 0 -114.643c-9.76367 -9.76367 -9.76367 -25.5938 0 -35.3574
c9.7627 -9.76172 25.5918 -9.76172 35.3545 0c51.1855 51.1855 51.1855 134.172 0 185.356c-31.6582 31.6582 -31.6582 82.9863 0 114.645z" />
    <glyph glyph-name="uni0012" 
d="M125 999l-125 -125v-750l125 -125h750l125 125v750l-125 125h-750zM300 674h230v-70h-157.5v-83.5h136.5v-70h-136.5v-144.5h-72.5v368zM577.305 637.502h99.5v-331.5h-73v261.5h-26.5v70z" />
    <glyph glyph-name="uni0013" 
d="M56.5898 816.62c-4.21973 -4.16797 -6.58984 -9.82031 -6.58984 -15.7139v-101.906c0 -12.2734 10.0732 -22.2217 22.5 -22.2217h855c12.4268 0 22.5 9.94824 22.5 22.2217v101.906c0 5.89355 -2.37012 11.5459 -6.58984 15.7139l-76.8203 75.8711
c-4.21973 4.16699 -9.94141 6.50879 -15.9102 6.50879h-701.359c-5.96777 0 -11.6904 -2.3418 -15.9102 -6.50879zM297.5 587.889h-180c-12.4268 0 -22.5 -9.94824 -22.5 -22.2217v-444.445c0 -12.2715 10.0732 -22.2217 22.5 -22.2217h765
c12.4268 0 22.5 9.9502 22.5 22.2217v444.445c0 12.2734 -10.0732 22.2217 -22.5 22.2217h-180c-12.4268 0 -22.5 -9.94824 -22.5 -22.2217v-55.5557c0 -98.1846 -80.5879 -177.778 -180 -177.778s-180 79.5938 -180 177.778v55.5557
c0 12.2734 -10.0732 22.2217 -22.5 22.2217zM567.5 587.889h-135c-12.4268 0 -22.5 -9.94824 -22.5 -22.2217v-55.5557c0 -49.0928 40.2949 -88.8896 90 -88.8896s90 39.7969 90 88.8896v55.5557c0 12.2734 -10.0732 22.2217 -22.5 22.2217z" />
    <glyph glyph-name="uni0014" 
d="M479.563 994.547l-39.2197 -16.1641c-3.29004 -1.35645 -7.00684 -1.21387 -10.1836 0.390625l-37.3447 18.8584c-10.5469 5.32617 -21.7734 -5.90039 -16.4473 -16.4463l18.8584 -37.3447c1.60352 -3.17676 1.74707 -6.89355 0.389648 -10.1836l-16.1631 -39.2207
c-4.14844 -10.0645 5.91895 -20.1318 15.9834 -15.9834l39.2197 16.1641c3.29004 1.35645 7.00684 1.21387 10.1836 -0.390625l37.3447 -18.8584c10.5469 -5.32617 21.7734 5.90039 16.4473 16.4463l-18.8584 37.3447c-1.60352 3.17676 -1.74707 6.89355 -0.389648 10.1836
l16.1631 39.2207c4.14844 10.0645 -5.91895 20.1318 -15.9834 15.9834zM658.65 970.438l-31.375 -12.9316c-2.63379 -1.08398 -5.60742 -0.970703 -8.14746 0.3125l-29.876 15.0879c-8.43652 4.25977 -17.4189 -4.7207 -13.1572 -13.1582l15.0869 -29.876
c1.2832 -2.54102 1.39648 -5.51465 0.311523 -8.14648l-12.9316 -31.376c-3.31836 -8.05176 4.73633 -16.1055 12.7881 -12.7871l31.375 12.9316c2.63379 1.08398 5.60742 0.970703 8.14746 -0.3125l29.876 -15.0879c8.43652 -4.25977 17.4189 4.7207 13.1572 13.1582
l-15.0869 29.876c-1.2832 2.54102 -1.39648 5.51465 -0.311523 8.14648l12.9316 31.376c3.31836 8.05176 -4.73633 16.1055 -12.7881 12.7871zM598.725 804.925c5.20508 11.3203 -6.47949 23.0049 -17.7998 17.7998l-75.3184 -34.6328
c-3.55859 -1.63477 -7.6543 -1.63477 -11.2129 0l-75.3184 34.6328c-11.3203 5.20508 -23.0049 -6.47949 -17.7998 -17.7998l34.6328 -75.3184c1.63477 -3.55859 1.63477 -7.6543 0 -11.2129l-34.6328 -75.3184c-5.20508 -11.3203 6.47949 -23.0049 17.7998 -17.7998
l75.3184 34.6328c3.55859 1.63477 7.6543 1.63477 11.2129 0l75.3184 -34.6328c11.3203 -5.20508 23.0049 6.47949 17.7998 17.7998l-34.6328 75.3184c-1.63477 3.55859 -1.63477 7.6543 0 11.2129zM310.514 783.505c-111.972 -51.0645 -160.514 -136.413 -160.514 -171.43
c0 -51.5088 20.5254 -200.987 51.6484 -352.983c7.83301 -38.2568 24.3203 -74.5215 50.1318 -103.845c57.3027 -65.0938 108.021 -104.679 178.323 -137.844c26.0127 -12.2695 54.2051 -18.4033 82.3965 -18.4033s56.3838 6.13379 82.3965 18.4033
c70.3018 33.165 121.021 72.75 178.323 137.844c25.8115 29.3232 42.2988 65.5879 50.1318 103.845c31.123 151.996 51.6484 301.475 51.6484 352.983c0 34.3613 -46.7451 117.193 -154.309 168.531c-7.37109 3.51855 -22.2549 5.89355 -33.1914 5.89355
c-7.81641 0 -17.1904 -5.39453 -20.6338 -12.9082l-18 -39.1484c-3.04785 -6.62793 -3.04785 -14.2588 0 -20.8887l18 -39.1484c34.292 -74.5742 -42.6982 -151.564 -117.272 -117.272l-39.1484 18c-6.62988 3.04785 -14.2607 3.04785 -20.8887 0l-39.1484 -18
c-74.5752 -34.292 -151.564 42.6982 -117.274 117.272l18.001 39.1484c3.04883 6.62988 3.04883 14.2607 0 20.8887l-18.001 39.1484c-3.98535 8.66797 -13.9385 13.8711 -22.6201 9.91309zM267.415 463.684c107.177 70.9629 180.57 -51.1455 174.56 -84.1533
c-0.533203 -2.92676 -2.63672 -5.1416 -5.05273 -6.875c-10.1172 -7.25879 -40.1748 -26.5137 -71.9756 -24.5918c-21.6416 1.30664 -42.8516 9.05664 -59.083 23.7783c-16.3418 14.8262 -38.0703 45.1113 -46.6113 69.8047
c-2.875 8.31348 0.828125 17.1807 8.16309 22.0371zM757.585 463.684c7.33496 -4.85645 11.0381 -13.7236 8.16309 -22.0371c-8.54102 -24.6934 -30.2695 -54.9785 -46.6113 -69.8047c-16.2314 -14.7217 -37.4414 -22.4717 -59.083 -23.7783
c-31.8008 -1.92188 -61.8584 17.333 -71.9756 24.5918c-2.41602 1.7334 -4.51953 3.94824 -5.05273 6.875c-6.01074 33.0078 67.3828 155.116 174.56 84.1533z" />
    <glyph glyph-name="uni0015" 
d="M0 474l150 -150v-125l200 -200h300l200 200v125l150 150v325l-50 50h-150l-150 150h-300l-150 -150h-150l-50 -50v-325zM775 411.838c0 -89.1357 -46.7783 -150.691 -111.182 -185.761c27.8496 20.6826 45.835 49.4346 45.835 86.4932
c0 67.7383 -57.3779 116.973 -98.5312 152.285c-0.369141 0.316406 -0.947266 -0.0185547 -0.834961 -0.495117c1.58984 -6.8252 7.23242 -35.1084 -1.90527 -59.5449c-2.14648 -5.74414 -9.57227 -5.12012 -12.1035 0.459961
c-29.0098 63.9482 -65.9385 98.3398 -83.6699 112.193c-4.57129 3.57324 -10.8848 0.384766 -11.6367 -5.41895c-3.94531 -30.46 -20.3896 -107.8 -87.4336 -150.368c-1.94434 -1.23633 -4.42188 -1.48535 -6.5293 -0.563477
c-21.8467 9.54688 -28.7705 27.917 -29.5352 45.8232c-0.375 8.7998 -15.8154 16.6504 -20.9199 9.52539c-23.8701 -33.3037 -49.8701 -78.877 -49.8701 -118.64c0 -27.4824 24.2578 -53.6826 60.665 -73.8271c-81.002 35.9297 -142.349 96.9736 -142.349 162.15
c0 77.5264 44.4316 167.728 79.502 226.47c4.58105 7.67188 19.2002 1.33203 18.2598 -7.58691c-4.04883 -38.417 -0.0136719 -87.1299 39.6611 -108.873c2.49512 -1.36719 5.5957 -1.02539 7.81543 0.762695c96.7646 77.8936 116.685 223.442 120.646 270.062
c0.53125 6.24609 7.49609 9.31836 11.9824 5.00488c23.0605 -22.1699 77.6709 -83.96 119.367 -204.245c2.22949 -6.43164 10.6484 -7.02637 12.8379 -0.582031c14.9668 44.0703 6.43359 97.625 4.25195 109.452c-0.125 0.677734 0.733398 1.07617 1.19531 0.569336
c56.168 -61.5283 134.481 -147.316 134.481 -265.347z" />
    <glyph glyph-name="uni0016" 
d="M768.066 52.3496c105.389 56.5918 181.934 155.917 181.934 299.75c0 190.455 -128.15 328.884 -220.06 428.167c-0.756836 0.816406 -2.16016 0.174805 -1.95508 -0.919922c3.56836 -19.085 17.5312 -105.502 -6.95996 -176.611
c-3.58203 -10.4023 -17.3584 -9.44238 -21.0068 0.936523c-68.2305 194.095 -157.592 293.798 -195.327 329.571c-7.34277 6.96094 -18.7393 2.00586 -19.6084 -8.07422c-6.47949 -75.2275 -39.0781 -310.084 -197.42 -435.775
c-3.63477 -2.88477 -8.70605 -3.43652 -12.7881 -1.23145c-64.9229 35.0859 -71.5254 113.689 -64.9004 175.68c1.53906 14.3896 -22.3848 24.6211 -29.8799 12.2402c-57.3887 -94.7852 -130.095 -240.335 -130.095 -365.434c0 -105.17 100.386 -203.67 232.934 -261.646
c-59.5732 32.5068 -99.2705 74.7832 -99.2705 119.126c0 64.1641 42.5469 137.702 81.6055 191.44c8.35449 11.4951 33.6201 -1.17188 34.2344 -15.3682c1.25195 -28.8965 12.5801 -58.5381 48.3291 -73.9414c3.45117 -1.48926 7.50098 -1.08887 10.6865 0.90625
c109.706 68.6885 136.616 193.485 143.071 242.635c1.23047 9.36719 11.5605 14.5098 19.0439 8.74512c29.0146 -22.3545 89.4434 -77.8496 136.913 -181.035c4.14355 -9.00684 16.291 -10.0127 19.8066 -0.745117c14.9531 39.4316 5.71777 85.0723 3.11621 96.084
c-0.182617 0.769531 0.761719 1.31152 1.36719 0.797852c67.3398 -56.9785 161.233 -136.425 161.233 -245.729c0 -59.7979 -29.4307 -106.191 -75.0039 -139.568z" />
    <glyph glyph-name="uni0017" 
d="M0 474l150 -150v-125l200 -200h300l200 200v125l150 150v325l-50 50h-150l-150 150h-300l-150 -150h-150l-50 -50v-325zM518.028 764.946l14.6904 15.29c9.83789 10.2402 26.2158 10.2402 36.0547 0l12.1465 -12.6416c9.29688 -9.67676 9.29688 -24.9668 0 -34.6416
l-40.8428 -42.5098c-4.47363 -4.65527 -6.97168 -10.8633 -6.97168 -17.3203v-70.2578c0 -19.4404 21.2129 -31.4424 37.876 -21.4287l56.9473 34.2188c5.62598 3.38184 9.69629 8.83984 11.333 15.1963l14.6816 57.0234c3.49023 13.5596 17.4365 21.6084 30.9248 17.8486
l15.7822 -4.40234c13.1113 -3.65625 20.8877 -17.1309 17.4941 -30.3145l-6.35449 -24.6836c-3.39355 -13.1836 4.38281 -26.6582 17.4951 -30.3145l22.1094 -6.16504c13.1143 -3.65723 20.8906 -17.1318 17.4951 -30.3154l-4.66602 -18.1299
c-3.49219 -13.5605 -17.4385 -21.6104 -30.9268 -17.8486l-53.1172 14.8135c-6.61816 1.84473 -13.7031 0.886719 -19.5928 -2.65137l-58.7168 -35.2832c-16.1631 -9.71387 -16.1631 -33.1455 0 -42.8584l58.7168 -35.2822
c5.8877 -3.53809 12.9746 -4.49805 19.5918 -2.65137l53.1162 14.8135c13.4883 3.75977 27.4355 -4.28809 30.9268 -17.8486l4.66797 -18.1318c3.39355 -13.1816 -4.38281 -26.6562 -17.4951 -30.3135l-22.1113 -6.16602
c-13.1113 -3.65723 -20.8887 -17.1318 -17.4951 -30.3135l6.35547 -24.6855c3.39453 -13.1816 -4.38184 -26.6562 -17.4951 -30.3125l-15.7803 -4.40234c-13.4883 -3.76172 -27.4346 4.28906 -30.9268 17.8486l-14.6797 57.0234
c-1.63672 6.35645 -5.70801 11.8145 -11.335 15.1953l-56.9453 34.2178c-16.6631 10.0137 -37.876 -1.98828 -37.876 -21.4277v-70.2568c0 -6.45703 2.49805 -12.665 6.97168 -17.3203l40.8428 -42.5098c9.29688 -9.6748 9.29688 -24.9648 0 -34.6416l-12.1465 -12.6416
c-9.83887 -10.2402 -26.2168 -10.2402 -36.0547 0l-14.6904 15.29c-9.83789 10.2383 -26.2188 10.2383 -36.0547 0l-14.6924 -15.29c-9.83594 -10.2402 -26.2158 -10.2402 -36.0547 0l-12.1465 12.6416c-9.29688 9.67676 -9.29688 24.9668 0 34.6416l40.8428 42.5098
c4.47363 4.65527 6.97363 10.8633 6.97363 17.3203v70.2568c0 19.4395 -21.2148 31.4414 -37.877 21.4277l-56.9463 -34.2178c-5.62695 -3.38184 -9.69824 -8.83887 -11.335 -15.1973l-14.6797 -57.0215c-3.49219 -13.5615 -17.4385 -21.6104 -30.9268 -17.8486
l-15.7803 4.40039c-13.1133 3.65625 -20.8896 17.1318 -17.4951 30.3145l6.35547 24.6836c3.39355 13.1836 -4.38379 26.6582 -17.4951 30.3154l-22.1113 6.16602c-13.1123 3.65723 -20.8887 17.1318 -17.4951 30.3135l4.66797 18.1299
c3.49121 13.5625 17.4385 21.6104 30.9268 17.8486l53.1162 -14.8135c6.61719 -1.84473 13.7041 -0.884766 19.5918 2.65332l58.7168 35.2822c16.165 9.71289 16.165 33.1445 0 42.8584l-58.7168 35.2832c-5.88965 3.53809 -12.9746 4.49805 -19.5928 2.65137
l-53.1172 -14.8135c-13.4883 -3.75977 -27.4346 4.28809 -30.9268 17.8486l-4.66602 18.1318c-3.39551 13.1816 4.38086 26.6562 17.4951 30.3135l22.1094 6.16602c13.1123 3.65723 20.8887 17.1318 17.4951 30.3135l-6.35449 24.6855
c-3.39355 13.1816 4.38281 26.6562 17.4941 30.3125l15.7822 4.40234c13.4883 3.76172 27.4346 -4.28906 30.9248 -17.8486l14.6816 -57.0234c1.63672 -6.35645 5.70703 -11.8145 11.333 -15.1953l56.9482 -34.2197c16.6621 -10.0137 37.877 1.98828 37.877 21.4287v70.2578
c0 6.45703 -2.5 12.665 -6.97363 17.3203l-40.8428 42.5098c-9.29688 9.6748 -9.29688 24.9648 0 34.6416l12.1465 12.6416c9.83887 10.2402 26.2188 10.2402 36.0547 0l14.6924 -15.29c9.83594 -10.2383 26.2168 -10.2383 36.0547 0z" />
    <glyph glyph-name="uni0018" 
d="M483.019 915.976l-50.0605 50.8838c-9.36816 9.52051 -24.5977 9.52051 -33.9648 0l-43.7002 -44.418c-9.30957 -9.46387 -9.30957 -24.7656 0 -34.2295l82.9092 -84.2705c4.47266 -4.54688 6.98242 -10.7002 6.98242 -17.1143v-149.224
c0 -18.6914 -20.0078 -30.3604 -35.9863 -20.9834l-126.983 74.5186c-5.49316 3.22266 -9.49805 8.52148 -11.1348 14.7314l-30.3184 115.008c-3.41699 12.9629 -16.582 20.6562 -29.3838 17.1699l-59.6084 -16.2344c-12.7617 -3.47559 -20.335 -16.752 -16.9277 -29.6768
l18.4248 -69.8936c3.40723 -12.9229 -4.16602 -26.2002 -16.9287 -29.6748l-68.5938 -18.6816c-12.7617 -3.47656 -20.335 -16.7529 -16.9277 -29.6768l16.0176 -60.7617c3.41699 -12.9629 16.582 -20.6553 29.3828 -17.1699l112.979 30.7695
c6.16016 1.67871 12.7285 0.800781 18.249 -2.4375l127.168 -74.627c15.9268 -9.34668 15.9268 -32.6221 0 -41.9688l-127.167 -74.626c-5.51953 -3.23828 -12.0879 -4.11719 -18.25 -2.43848l-112.979 30.7695c-12.7998 3.4873 -25.9658 -4.20605 -29.3828 -17.1699
l-16.0176 -60.7617c-3.40723 -12.9229 4.16602 -26.2002 16.9277 -29.6748l68.5947 -18.6816c12.7617 -3.47656 20.335 -16.752 16.9277 -29.6768l-18.4248 -69.8936c-3.40723 -12.9229 4.16602 -26.1992 16.9277 -29.6768l59.6094 -16.2324
c12.7998 -3.4873 25.9648 4.20605 29.3838 17.1699l30.3184 115.008c1.63672 6.20801 5.6416 11.5068 11.1348 14.7305l126.981 74.5176c15.9785 9.37695 35.9863 -2.29102 35.9863 -20.9834v-149.222c0 -6.41406 -2.50977 -12.5674 -6.98242 -17.1143l-82.9092 -84.2705
c-9.30957 -9.46484 -9.30957 -24.7666 0 -34.2295l43.7002 -44.417c9.36719 -9.52148 24.5967 -9.52148 33.9648 0l50.0605 50.8818c9.36621 9.52148 24.5967 9.52148 33.9648 0l50.0596 -50.8818c9.36914 -9.52148 24.5986 -9.52148 33.9658 0l43.6982 44.417
c9.31152 9.46289 9.31152 24.7646 0 34.2295l-82.9092 84.2705c-4.4707 4.54688 -6.98242 10.7002 -6.98242 17.1143v149.222c0 18.6924 20.0098 30.3604 35.9863 20.9834l126.981 -74.5166c5.49316 -3.22266 9.49805 -8.52148 11.1348 -14.7314l30.3184 -115.008
c3.41699 -12.9639 16.584 -20.6572 29.3838 -17.1699l59.6084 16.2344c12.7627 3.47559 20.3369 16.752 16.9277 29.6748l-18.4248 69.8955c-3.40625 12.9229 4.16699 26.2002 16.9287 29.6748l68.5947 18.6816c12.7617 3.47656 20.335 16.752 16.9287 29.6768
l-16.0186 60.7617c-3.41699 12.9619 -16.583 20.6553 -29.3838 17.1699l-112.979 -30.7695c-6.16016 -1.67871 -12.7285 -0.801758 -18.248 2.4375l-127.165 74.625c-15.9268 9.34668 -15.9268 32.6221 0 41.9688l127.166 74.625
c5.52051 3.24023 12.0889 4.11816 18.249 2.43945l112.979 -30.7695c12.7998 -3.48633 25.9648 4.20703 29.3838 17.1699l16.0166 60.7617c3.4082 12.9238 -4.16504 26.2002 -16.9287 29.6748l-68.5928 18.6816c-12.7617 3.47656 -20.335 16.752 -16.9287 29.6768
l18.4248 69.8936c3.40723 12.9229 -4.16699 26.2002 -16.9277 29.6748l-59.6084 16.2354c-12.8018 3.48633 -25.9668 -4.20703 -29.3838 -17.1699l-30.3184 -115.009c-1.63672 -6.20996 -5.6416 -11.5068 -11.1348 -14.7314l-126.983 -74.5166
c-15.9766 -9.37695 -35.9863 2.29199 -35.9863 20.9834v149.224c0 6.41406 2.51172 12.5674 6.98242 17.1143l82.9092 84.2705c9.31152 9.46387 9.31152 24.7656 0 34.2295l-43.6982 44.418c-9.36719 9.52051 -24.5967 9.52051 -33.9658 0l-50.0596 -50.8838
c-9.36816 -9.52051 -24.5986 -9.52051 -33.9648 0z" />
    <glyph glyph-name="uni0019" 
d="M358.684 808.66l-70.9434 125.335c-8.12207 14.3486 -26.1104 19.2646 -40.1787 10.9805c-14.0664 -8.28418 -18.8867 -26.6318 -10.7646 -40.9805l72.8799 -128.754c3.36523 -5.94629 9.01953 -10.2559 15.6445 -11.9258l2.80078 -0.707031
c13.1094 -3.30371 26.4697 4.41113 30.1611 17.417l2.69531 9.49414c1.82324 6.43066 0.998047 13.3242 -2.29492 19.1406zM164.373 529h-134.961c-16.2441 0 -29.4121 -13.4316 -29.4121 -30s13.168 -30 29.4121 -30h134.961c6.79492 0 13.2969 2.7666 18.0107 7.66211
l4.8125 5c9.32031 9.67969 9.32031 24.9961 0 34.6777l-4.8125 4.99805c-4.71387 4.89551 -11.2158 7.66211 -18.0107 7.66211zM309.677 222.759l-72.8799 -128.754c-8.12207 -14.3486 -3.30176 -32.6963 10.7646 -40.9795
c14.0684 -8.28516 32.0547 -3.36914 40.1787 10.9795l70.9434 125.335c3.29297 5.81641 4.11816 12.71 2.29297 19.1416l-2.69336 9.49316c-3.69141 13.0059 -17.0518 20.7207 -30.1611 17.417l-2.80078 -0.707031c-6.625 -1.66992 -12.2793 -5.97949 -15.6445 -11.9258z
M641.316 189.34l70.9434 -125.333c8.12402 -14.3486 26.1104 -19.2656 40.1787 -10.9805c14.0664 8.2832 18.8867 26.6318 10.7646 40.9805l-72.8779 128.752c-3.36719 5.94629 -9.02051 10.2559 -15.6465 11.9258l-2.80078 0.707031
c-13.1084 3.30371 -26.4678 -4.41113 -30.1592 -17.417l-2.69531 -9.49414c-1.8252 -6.43066 -0.998047 -13.3242 2.29297 -19.1406zM835.628 469h134.96c16.2441 0 29.4121 13.4316 29.4121 30s-13.168 30 -29.4121 30h-134.96
c-6.79492 0 -13.2959 -2.7666 -18.0098 -7.66211l-4.81348 -4.99805c-9.31934 -9.68164 -9.31934 -24.998 0 -34.6777l4.81348 -5c4.71387 -4.89551 11.2148 -7.66211 18.0098 -7.66211zM674.679 763.315c6.62598 1.66992 12.2793 5.97949 15.6465 11.9258l72.8779 128.753
c8.12207 14.3486 3.30176 32.6963 -10.7646 40.9805c-14.0684 8.28418 -32.0566 3.36719 -40.1787 -10.9814l-70.9434 -125.333c-3.29102 -5.81641 -4.11816 -12.71 -2.29297 -19.1406l2.69531 -9.49414c3.68945 -13.0059 17.0508 -20.7207 30.1592 -17.417zM485.856 863.27
l-60.5977 -213.52c-2.17871 -7.6748 -10.0205 -12.2285 -17.7188 -10.2871l-214.19 53.9893c-14.3516 3.61621 -24.4326 -13.9434 -14.1416 -24.6338l153.59 -159.531c5.52246 -5.7334 5.52246 -14.8389 0 -20.5742l-153.59 -159.531
c-10.293 -10.6904 -0.209961 -28.25 14.1416 -24.6318l214.19 53.9873c7.69824 1.94141 15.54 -2.6123 17.7188 -10.2871l60.5977 -213.52c4.06152 -14.3076 24.2256 -14.3076 28.2871 0.000976562l60.5977 213.519c2.17871 7.6748 10.0205 12.2285 17.7188 10.2871
l214.19 -53.9893c14.3516 -3.61621 24.4326 13.9434 14.1416 24.6338l-153.59 159.531c-5.52246 5.73535 -5.52246 14.8408 0 20.5742l153.59 159.531c10.293 10.6904 0.209961 28.25 -14.1416 24.6338l-214.19 -53.9893c-7.69824 -1.94141 -15.54 2.6123 -17.7188 10.2871
l-60.5977 213.52c-4.06152 14.3076 -24.2256 14.3076 -28.2871 0z" />
    <glyph glyph-name="uni001B" 
d="M499.997 899c-39.1152 0 -150.204 -1.71387 -281.632 -108.571c-56.5967 -46.0156 -92.999 -117.969 -111.847 -197.245l64.4336 41.3096c0.868164 16.7148 2.80762 32.1953 5.21582 45.2705l3.25391 17.6514l16.75 1.81836
c19.043 2.06641 67.2402 6.19531 108.578 6.19531h0.208008c20.0039 0 43.167 0 63.9336 -0.773438c20.0146 -0.74707 40.5605 -2.26074 53.8018 -6.18066l13.7832 -4.08008l2.52051 -15.0449c1.1377 -6.7959 2.11328 -14.3594 2.83594 -22.4912h116.34
c0.72168 8.13184 1.69727 15.6953 2.83594 22.4912l2.51953 15.0449l13.7852 4.08008c13.2402 3.91992 33.7852 5.43359 53.8018 6.18066c20.7666 0.773438 43.9297 0.773438 63.9316 0.773438h0.208008c41.3389 0 89.5371 -4.12891 108.578 -6.19531l16.75 -1.81836
l3.25391 -17.6514c2.41016 -13.0752 4.34961 -28.5557 5.2168 -45.2705l64.4199 -41.3018c-18.8486 79.2734 -55.25 151.224 -111.846 197.237c-131.428 106.857 -242.517 108.571 -281.631 108.571zM557.267 608.287h-114.528
c-1.21191 -23.875 -5.01367 -49.0967 -12.7979 -72.6104c-3.18164 -9.61133 -7.09082 -19.1172 -11.8623 -28.2119c40.4033 -22.1064 67.4619 -64.5215 81.9268 -108.774c14.4639 44.2529 41.5215 86.666 81.9238 108.772
c-4.77246 9.0957 -8.68164 18.6025 -11.8633 28.2139c-7.78418 23.5137 -11.585 48.7354 -12.7988 72.6104zM355.12 523.287c6.17773 0 12.167 -0.395508 17.9678 -1.15723c5.67383 8.61133 10.3174 18.6182 14 29.7471c10.9385 33.0381 12.1934 72.3252 9.3252 102.268
c-7.71484 0.875 -17.5615 1.53906 -29.1045 1.96875c-19.9033 0.742188 -42.334 0.743164 -62.5586 0.743164c-29.8896 0 -64.0283 -2.30469 -86.6533 -4.27637c-3.70703 -31.2871 -3.41504 -70.3516 6.57129 -102.717c5.8916 -19.1016 14.7549 -34.582 26.957 -45.2637
c4.72461 -4.13477 10.2119 -7.7832 16.6436 -10.6797c26.7852 17.6914 56.0361 29.3672 86.8516 29.3672zM228.639 462.264c-1.99023 1.52148 -3.93066 3.10938 -5.81836 4.7627c-20.6738 18.0957 -33.5566 42.459 -41.3223 67.6289
c-4.40625 14.2852 -7.29492 29.2344 -9.00684 44.1826l-77.2676 -49.54c-9.02148 -75.5312 -3.68457 -153.118 13.9365 -218.13c6.46289 8.62402 12.8223 17.6123 19.1816 26.6016c2.4668 3.4873 5.28125 7.56738 8.42578 12.124
c19.4473 28.1816 51.502 74.6348 91.8711 112.37zM499.997 74c40.7646 0 106.005 6.25293 171.703 26.3418c-96.9199 1.30664 -149.652 43.2461 -171.7 96.6553c-22.0479 -53.4102 -74.7832 -95.3506 -171.707 -96.6553c65.6982 -20.0889 130.94 -26.3418 171.704 -26.3418z
M890.837 311.184c17.6201 65.0117 22.9551 142.595 13.9316 218.123l-77.2539 49.5312c-1.71289 -14.9482 -4.60156 -29.8975 -9.00781 -44.1826c-7.76562 -25.1699 -20.6484 -49.5332 -41.3223 -67.6289c-1.8877 -1.65332 -3.82617 -3.23926 -5.81641 -4.76172
c40.3701 -37.7344 72.4268 -84.1895 91.873 -112.371c3.14258 -4.55371 5.96094 -8.63867 8.42578 -12.124c6.35449 -8.98242 12.7109 -17.9678 19.1699 -26.5859zM748.382 504.6c12.2012 10.6816 21.0635 26.1621 26.9561 45.2637
c9.98535 32.3652 10.2773 71.4297 6.57227 102.717c-22.625 1.97168 -56.7656 4.27637 -86.6553 4.27637c-20.2246 0 -42.6553 -0.000976562 -62.5566 -0.743164c-11.543 -0.429688 -21.3896 -1.09375 -29.1045 -1.96875
c-2.86914 -29.9424 -1.61328 -69.2295 9.32324 -102.268c3.68457 -11.1289 8.32812 -21.1367 14.001 -29.7471c5.80176 0.761719 11.792 1.15723 17.9707 1.15723c30.8145 0 60.0645 -11.6758 86.8496 -29.3652c6.43164 2.89453 11.918 6.54297 16.6436 10.6777z
M375 474.713c-85.1553 0 -156.467 -89.835 -188.389 -130.051c-2.71094 -3.41504 -5.13672 -6.47168 -7.2627 -9.08496c-27.1748 -33.3926 -54.3486 -66.7852 -92.3926 -66.7852c-38.043 0 -48.9121 22.2617 -48.9121 44.5234c0 17.8096 14.4922 35.248 21.7383 38.958
c-19.9268 -5.56543 -59.7822 -16.6963 -59.7822 -66.7852c0 -33.3936 10.8691 -139.137 179.349 -139.137c6.14648 0 12.4248 0.208008 18.8047 0.613281c-2.49805 -27.2363 -2.49805 -52.6953 -2.49805 -72.9648c10.8682 27.8281 56.5215 83.4834 152.173 83.4834
c86.1914 0 132.844 31.8135 152.172 72.5068c19.3281 -40.6934 65.9805 -72.5068 152.172 -72.5068c95.6514 0 141.305 -55.6553 152.173 -83.4834c0 20.2695 0 45.7285 -2.49805 72.9648c6.37988 -0.405273 12.6582 -0.613281 18.8047 -0.613281
c168.479 0 179.349 105.743 179.349 139.137c0 50.0889 -39.8555 61.2197 -59.7832 66.7852c7.24609 -3.70996 21.7402 -21.1484 21.7402 -38.958c0 -22.2617 -10.8701 -44.5234 -48.9141 -44.5234c-38.043 0 -65.2158 33.3926 -92.3916 66.7852
c-2.12598 2.61426 -4.55664 5.6748 -7.26758 9.09082c-31.9238 40.2168 -103.229 130.045 -188.384 130.045c-65.8779 0 -106.889 -45.2725 -125 -93.4492c-18.1113 48.1768 -59.1221 93.4492 -125 93.4492z" />
    <glyph glyph-name="uni001C" 
d="M1000 394.145c0 278.825 -223.858 504.855 -500 504.855s-500 -226.03 -500 -504.855c0 -82.498 19.5986 -160.376 54.3496 -229.145l268.728 -66l146.153 147.573l223.078 -108.738l61.5381 23.3018l5.45312 110.095l-74.6846 45.2432l-23.0771 85.4385l38.4619 69.9023
l76.9229 23.3008l61.5391 -46.6016l15.3848 -77.6699l-43.4238 -62.6367l35.7305 -108.236l130.252 40.4648c15.3252 48.4648 23.5947 100.111 23.5947 153.708zM282.813 337.997c-19.7539 -27.3887 -49.5205 -44.8223 -82.8135 -44.8223
c-23.3848 0 -45.0312 8.60156 -62.6875 23.2139c9.72363 -4.93164 20.5303 -7.68066 31.918 -7.68066c42.4844 0 76.9229 38.252 76.9229 85.4365c0 47.1855 -34.4385 85.4385 -76.9229 85.4385c-39.2988 0 -71.7129 -32.7344 -76.3516 -74.9912
c-0.375977 4.22461 -0.571289 8.51465 -0.571289 12.8545c0 10.5889 1.14941 20.8672 3.30566 30.6816l-18.6904 31.4551l15.3848 46.6016l31.3398 -21.0967c19.5059 22.625 46.5107 36.6309 76.3525 36.6309c59.4766 0 107.691 -55.6387 107.691 -124.272
c0 -6.06836 -0.375 -12.0342 -1.10352 -17.8691c-0.536133 -4.2959 -1.26074 -8.51855 -2.1709 -12.6602l41.7363 -31.6074l-15.3838 -38.835zM467.408 782.96c-21.8027 -10.4619 -36.6387 -31.0918 -36.6387 -54.833c0 -34.3184 30.9941 -62.1367 69.2305 -62.1367
s69.2305 27.8184 69.2305 62.1367c0 34.3164 -30.9941 62.1348 -69.2305 62.1348c-4.83008 0 -9.54785 -0.443359 -14.0996 -1.28809l6.4082 32.3564h38.4609l3.38086 -34.1387c46.6826 -11.0547 81.2344 -50.6943 81.2344 -97.8994
c0 -53.3398 -44.1152 -97.0205 -100 -100.717v-39.0898l-46.1543 -7.7666l-4.96582 55.1465c-37.8477 15.6562 -64.2646 51.1484 -64.2646 92.4268c0 42.4102 27.8887 78.7148 67.4082 93.668z" />
    <glyph glyph-name="uni001D" 
d="M875 999h-750l-125 -125v-750l125 -125h750l125 125v750zM686.4 277c-14.9336 -7.93359 -33.3672 -14.9336 -55.3008 -21c-21.9326 -6.06641 -46.1992 -8.86621 -72.7998 -8.40039c-40.5996 0.933594 -77 8.16699 -109.2 21.7002
c-31.7334 14 -58.7998 32.9004 -81.1992 56.7002c-21.9336 23.7998 -38.7334 51.0996 -50.4004 81.9004c-11.667 30.7998 -17.5 63.6992 -17.5 98.6992c0 39.2002 5.83301 75.1338 17.5 107.801c12.1338 32.666 29.167 60.8994 51.0996 84.6992
c22.4004 23.8008 49 42.2334 79.8008 55.3008c30.7998 13.0664 64.8662 19.5996 102.199 19.5996c34.5342 0 65.1006 -4.66699 91.7002 -14c26.6006 -9.33301 48.2998 -19.3662 65.1006 -30.0996l-39.9004 -95.9004c-11.667 8.86621 -27.2998 17.9668 -46.9004 27.2998
c-19.1328 9.7998 -41.2998 14.7002 -66.5 14.7002c-19.5996 0 -38.5 -4.2002 -56.6992 -12.5996c-17.7334 -7.93359 -33.6006 -19.3672 -47.6006 -34.3008c-13.5332 -14.9326 -24.2666 -32.4326 -32.2002 -52.5c-7.93262 -19.5996 -11.8994 -41.0664 -11.8994 -64.3994
c0 -24.7334 3.5 -47.3672 10.5 -67.9004c7.4668 -20.5332 17.9668 -38.2666 31.5 -53.2002c13.5332 -14.4658 29.6328 -25.666 48.2998 -33.5996c19.1338 -7.93359 40.5996 -11.9004 64.4004 -11.9004c27.5332 0 51.0996 4.43359 70.6992 13.3008
c19.6006 8.86621 34.5342 18.1992 44.8008 28l42 -91c-5.60059 -4.66699 -16.1006 -10.9668 -31.5 -18.9004z" />
    <glyph glyph-name="uni001E" 
d="M875 999h-750l-125 -125v-750l125 -125h750l125 125v750zM875 376.554c-3.33203 -2.66016 -9.57812 -6.25 -18.7402 -10.7725c-8.88281 -4.51953 -19.8496 -8.50977 -32.8965 -11.9658c-13.0479 -3.45703 -27.4854 -5.05176 -43.3096 -4.78711
c-24.1523 0.53125 -45.8066 4.65332 -64.9619 12.3662c-18.8789 7.97754 -34.9814 18.749 -48.3066 32.3105c-13.0488 13.5635 -23.042 29.1201 -29.9834 46.6719c-6.94043 17.5518 -10.4102 36.2998 -10.4102 56.2451c0 22.3359 3.46973 42.8145 10.4102 61.4297
c7.21777 18.6152 17.3516 34.7031 30.4004 48.2666c13.3242 13.5615 29.1494 24.0664 47.4727 31.5137c18.3223 7.44434 38.5889 11.168 60.7988 11.168c20.543 0 38.7285 -2.66016 54.5518 -7.97852c15.8242 -5.31836 28.7344 -11.0352 38.7275 -17.1514l-23.7363 -54.6504
c-6.93945 5.05371 -16.2402 10.2383 -27.9004 15.5566c-11.3828 5.58496 -24.5693 8.37891 -39.5615 8.37891c-11.6602 0 -22.9033 -2.39355 -33.7295 -7.18164c-10.5498 -4.52051 -19.9883 -11.0352 -28.3184 -19.5449
c-8.0498 -8.51074 -14.4355 -18.4834 -19.1553 -29.9189c-4.71973 -11.168 -7.08008 -23.4014 -7.08008 -36.6982c0 -14.0928 2.08398 -26.9912 6.24707 -38.6934c4.44141 -11.7002 10.6885 -21.8066 18.7402 -30.3145c8.0498 -8.24512 17.6279 -14.627 28.7324 -19.1484
c11.3818 -4.52051 24.1533 -6.78027 38.3125 -6.78027c16.3799 0 30.3994 2.52539 42.0596 7.57812c11.6602 5.05371 20.543 10.3721 26.6514 15.957zM566.007 574.804c-11.6602 6.11621 -23.5967 11.1699 -35.8135 15.1582
c-11.9365 3.99023 -23.1797 5.9834 -33.7305 5.9834c-13.0479 0 -23.3193 -2.52539 -30.8164 -7.5791c-7.49512 -5.05273 -11.2432 -12.6309 -11.2432 -22.7363c0 -6.91504 2.77637 -13.165 8.32812 -18.748c5.83203 -5.31836 13.1885 -10.1064 22.0723 -14.3604
c9.16113 -4.25488 18.5996 -8.11133 28.3164 -11.5684c8.88477 -3.19141 17.6299 -7.04785 26.2354 -11.5684c8.88477 -4.25488 16.7959 -9.70605 23.7363 -16.3545c6.94141 -6.38184 12.4932 -14.4932 16.6582 -24.334c4.16309 -9.57324 6.24512 -21.4062 6.24512 -35.501
c0 -14.8916 -4.02539 -28.7207 -12.0752 -41.4854c-8.05176 -12.7646 -19.8496 -23.1367 -35.3965 -31.1152c-15.5469 -7.71094 -34.7031 -11.5664 -57.4688 -11.5664c-11.6602 0 -23.5967 1.06348 -35.8135 3.19043c-11.9365 2.39258 -23.7344 5.85156 -35.3965 10.3711
c-11.6602 4.78711 -22.9033 10.7705 -33.7295 17.9502l26.6514 45.0762c7.21875 -5.05273 14.9922 -9.57324 23.3203 -13.5625c8.60645 -3.72363 17.2109 -6.64844 25.8184 -8.77539c8.60645 -2.12793 16.5176 -3.19141 23.7363 -3.19141s14.4365 0.929688 21.6553 2.79102
c7.49512 2.12891 13.6035 5.58496 18.3213 10.3721c4.99805 4.78711 7.49707 11.4346 7.49707 19.9453c0 5.84961 -2.08203 11.1699 -6.24707 15.9561c-3.88672 4.78711 -9.2998 9.17383 -16.2402 13.1641c-6.66309 3.98828 -14.0195 7.44629 -22.0713 10.3711
c-9.43848 3.45703 -19.1553 7.44531 -29.1504 11.9668c-9.99414 4.51953 -19.4326 9.97168 -28.3164 16.3555c-8.60645 6.64746 -15.6865 14.7578 -21.2383 24.3311c-5.27441 9.83984 -7.91113 21.8066 -7.91113 35.9014c0 17.0205 3.88672 31.7783 11.6592 44.2783
c8.05078 12.499 19.2939 22.3389 33.7305 29.5186c14.4365 7.44531 31.0928 11.5674 49.9717 12.3652c24.708 0 44.6963 -2.79199 59.9668 -8.37695c15.5469 -5.58496 29.4268 -12.2334 41.6416 -19.9443zM125 645.809h209.048v-55.8457h-148.666v-62.626h131.593v-55.8467
h-131.593v-63.4248h154.496v-55.8457h-214.878v293.589z" />
    <glyph glyph-name="uni001F" 
d="M532.2 556.5c9.7998 12.1338 14.7002 25.9004 14.7002 41.2998c0 17.7334 -6.06738 31.0332 -18.2002 39.9004c-11.667 8.86621 -27.5332 13.2998 -47.6006 13.2998h-54.5996v-112.7h61.5996c20.0674 0 34.7666 6.06641 44.1006 18.2002zM532.2 333.9
c12.1328 4.19922 21.7002 10.5 28.7002 18.8994c7 8.86719 10.5 19.834 10.5 32.9004c0 14.9336 -4.2002 26.1328 -12.6006 33.5996c-8.39941 7.93359 -19.3662 13.2998 -32.8994 16.1006c-13.0674 3.2666 -26.834 4.89941 -41.3008 4.89941h-58.0996v-112h65.0996
c14.9336 0 28.4668 1.86719 40.6006 5.60059zM875 999h-750l-125 -125v-750l125 -125h750l125 125v750zM604.3 716.1c31.7334 -21.4658 47.6006 -53.666 47.6006 -96.5996c0 -31.7334 -7.93359 -58.333 -23.8008 -79.7998
c-10.04 -13.6914 -22.5576 -25.2002 -37.5576 -34.5273c23.2646 -10.8359 42.3164 -24.7598 57.1582 -41.7725c19.1328 -21.4668 28.7002 -47.3672 28.7002 -77.7002c0 -28 -5.13379 -51.7998 -15.4004 -71.4004c-9.7998 -19.1328 -23.333 -34.7666 -40.5996 -46.8994
c-16.8008 -11.667 -35.9336 -20.3008 -57.4004 -25.9004c-21.4668 -5.13379 -43.6338 -7.7002 -66.5 -7.7002h-171.5v515.2h151.2c53.666 0 96.3662 -10.9668 128.1 -32.9004z" />
    <glyph glyph-name="exclam" unicode="!" 
d="M875 999h-750l-125 -125v-750l125 -125h750l125 125v750zM551.5 749v-515.2h-101.5v515.2h101.5z" />
    <glyph glyph-name="quotedbl" unicode="&#x22;" 
d="M875 999h-750l-125 -125v-750l125 -125h750l125 125v750zM400.1 539.7l15.4004 19.5996l168 189.7h131.6l-212.8 -231l213.5 -284.2h-128.8l-158.9 219.8l-25.1992 -25.1992v-194.601h-102.9v515.2h102.9v-183.4z" />
    <glyph glyph-name="numbersign" unicode="#" 
d="M125 999l-125 -125v-750l125 -125h750l125 125v750l-125 125h-750zM426.5 749v-417.2h242.2v-98h-343.7v515.2h101.5z" />
    <glyph glyph-name="dollar" unicode="$" 
d="M875 999h-750l-125 -125v-750l125 -125h750l125 125v750zM225 774h0.700195l261.345 -370.611l267.155 370.611h1.39941v-536.2h-101.5v245.844l-168 -238.844h-1.39941l-161.7 223.601v-230.601h-98v536.2z" />
    <glyph glyph-name="percent" unicode="%" 
d="M553.599 518.5c10.2666 5.59961 18.1992 12.3662 23.7998 20.2998c6.06641 8.40039 10.2666 17.0332 12.5996 25.9004c2.7998 8.86621 4.2002 16.5664 4.2002 23.0996c0 5.13379 -0.933594 11.9004 -2.7998 20.2998c-1.40039 8.86719 -4.66699 17.7334 -9.7998 26.6006
c-5.13379 8.86621 -13.0674 16.333 -23.8008 22.3994c-10.2666 6.06738 -24.2666 9.10059 -42 9.10059h-72.7998v-155.4h72.1006c15.3994 0 28.2334 2.56641 38.5 7.7002zM125 999l-125 -125v-750l125 -125h750l125 125v750l-125 125h-750zM605.398 742.5
c29.3994 -14 51.7998 -34.0664 67.2002 -60.2002c15.3994 -25.666 23.0996 -56.2334 23.0996 -91.7002c0 -21 -3.2666 -42.2334 -9.7998 -63.6992c-6.06641 -21 -16.1006 -40.1338 -30.1006 -57.4004c-13.5332 -17.2666 -31.9658 -31.2666 -55.2998 -42
c-22.8662 -10.2666 -51.0996 -15.4004 -84.7002 -15.4004h-72.7998v-163.1h-101.5v515.2h156.101c42.4668 0 78.3994 -7.2334 107.8 -21.7002z" />
    <glyph glyph-name="ampersand" unicode="&#x26;" 
d="M512.1 503.3c10.2666 5.13379 18.2002 11.667 23.8008 19.6006c6.06641 7.93262 10.2666 16.0996 12.5996 24.5c2.7998 8.86621 4.2002 17.0332 4.2002 24.5c0 5.59961 -0.933594 12.5996 -2.7998 21c-1.40039 8.86621 -4.66699 17.7334 -9.80078 26.5996
c-5.13281 8.86621 -13.0664 16.333 -23.7998 22.4004c-10.2666 6.06641 -24.2666 9.09961 -42 9.09961h-72.7998v-155.4h72.0996c15.4004 0 28.2334 2.56738 38.5 7.7002zM875 999h-750l-125 -125v-750l125 -125h750l125 125v750zM542.2 736.4
c25.2002 -7.93359 46.2002 -19.6006 63 -35c17.2666 -14.9336 30.333 -33.1338 39.2002 -54.6006c8.86621 -21 13.2998 -44.7998 13.2998 -71.3994c0 -21 -3.2666 -42 -9.7998 -63c-6.06738 -21 -16.334 -40.1338 -30.8008 -57.4004
c-10.8076 -13.3301 -24.3975 -24.7129 -40.7695 -34.1504l119.87 -187.05h-118.3l-108.811 163.8h-67.5898v-163.8h-101.5v515.2h156.1c32.2002 0 60.9004 -4.2002 86.1006 -12.5996z" />
    <glyph glyph-name="quotesingle" unicode="'" 
d="M875 999h-750l-125 -125v-750l125 -125h750l125 125v750zM514.608 483.587l110.392 290.413h120.4l-235.2 -539l-235.2 539h121.8z" />
    <glyph glyph-name="parenleft" unicode="(" 
d="M875 999h-750l-125 -125v-750l125 -125h750l125 125v750zM250 749h125.3l118.287 -237.82l115.513 237.82h125.301l-193.2 -354.9v-160.3h-101.5v160.3z" />
    <glyph glyph-name="parenright" unicode=")" 
d="M100 574v-150c0 -13.8066 11.1924 -25 25 -25h150c13.8066 0 25 11.1934 25 25v150c0 13.8066 -11.1934 25 -25 25h-150c-13.8076 0 -25 -11.1934 -25 -25zM700 574v-150c0 -13.8066 11.1934 -25 25 -25h150c13.8066 0 25 11.1934 25 25v150
c0 13.8066 -11.1934 25 -25 25h-150c-13.8066 0 -25 -11.1934 -25 -25zM425 599c-13.8066 0 -25 -11.1934 -25 -25v-150c0 -13.8066 11.1934 -25 25 -25h150c13.8066 0 25 11.1934 25 25v150c0 13.8066 -11.1934 25 -25 25h-150z" />
    <glyph glyph-name="asterisk" unicode="*" 
d="M600 549h400v110.17h-214.707l206.688 258.474v81.3564h-391.981v-110.17h214.443l-214.443 -261.863v-77.9668zM0 -1h150v42.8438h-80.5156l77.5088 100.518v31.6387h-146.993v-42.8438h80.416l-80.416 -101.836v-30.3203zM250 350.977v-51.9766h250v73.4463h-134.191
l129.18 172.317v54.2363h-244.988v-73.4463h134.026z" />
    <glyph glyph-name="plus" unicode="+" 
d="M776.991 934.934l-266.515 -266.514l54.1006 -54.1016l43.8496 0.570312l244.305 244.305l0.570312 43.8496l-32.4619 32.46zM391.457 787.44l75.7393 -75.7402l210.99 210.99l0.570312 43.8496l-32.46 32.46l-43.8506 -0.569336zM651.137 527.759l32.46 -32.4609
l45.7012 2.4209l240.604 240.603l2.41992 45.7021l-32.46 32.46l-45.7012 -2.41992l-240.604 -240.605zM759.906 463.408l-0.569336 -43.8496l32.4609 -32.46l43.8486 0.569336l155.469 155.467l0.568359 43.8486l-32.46 32.4619l-43.8506 -0.570312zM24.998 687.497
v-333.144l355.354 -355.354h66.6289l99.9424 99.9434v44.418l-166.571 166.572v155.468l-155.468 155.467v88.8389l77.7344 77.7334v44.418l-44.4199 44.4199h-44.418zM591.912 187.212l43.8496 0.569336l88.8379 88.8389l1.13867 87.6982l-378.701 378.701
l-55.5234 -55.5225l-0.570312 -43.8506l156.037 -156.036v-155.467z" />
    <glyph glyph-name="comma" unicode="," 
d="M982.318 651.983l-239.646 239.645c-15.748 15.749 -42.6777 4.59473 -42.6777 -17.6777v-114.646c0 -13.8066 -11.1914 -25 -25 -25h-118.833c-22.4316 0 -33.5137 -27.2568 -17.4434 -42.9082l153.722 -149.731c4.8291 -4.70508 7.55469 -11.1699 7.55469 -17.9131
v-129.092c0 -22.2715 26.9277 -33.4268 42.6777 -17.6768l239.646 239.645c9.76367 9.76172 9.76367 25.5918 0 35.3555zM246.967 891.628l-239.645 -239.645c-9.7627 -9.76367 -9.7627 -25.5938 0 -35.3555l239.645 -239.645
c15.75 -15.75 42.6777 -4.59473 42.6777 17.6768v114.645c0 13.3857 10.5176 24.3115 23.7393 24.9688c6.1748 -0.308594 12.0332 -2.89844 16.4258 -7.29004l102.512 -102.514c4.68848 -4.68848 7.32324 -11.0469 7.32324 -17.6768v-307.793c0 -13.8066 11.1934 -25 25 -25
h150c13.8076 0 25 11.1934 25 25v390.635c0 6.62988 -2.63477 12.9902 -7.32324 17.6787l-219.67 219.67c-4.68848 4.68848 -11.0459 7.32129 -17.6768 7.32129h-80.3301c-13.8066 0 -25 11.1934 -25 25v114.646c0 22.2725 -26.9277 33.4268 -42.6777 17.6777z" />
    <glyph glyph-name="hyphen" unicode="-" 
d="M109.337 838.544c34.748 -51.9639 77.5195 -105.928 82.2578 -113.098c17.249 -26.0996 54.3633 -86.4131 76.9082 -118.116c17.9521 -25.248 57.0391 -83.9053 86.7422 -130.03c29.7051 -46.127 58.8516 -103.345 30.8379 -129.627
c-28.0127 -26.2793 -94.7012 27.4336 -125.523 51.3701c-13.5176 10.499 -51.5566 36.1973 -82.9365 49.0391c-31.3809 12.8408 -74.5254 4.07812 -97.4951 -28.04c-22.9697 -32.1201 36.3076 -71.6436 77.2168 -107.257
c40.9102 -35.6152 88.6689 -96.5137 135.182 -126.872c46.5117 -30.3584 174.959 -78.9834 200.179 -108.177c55.4814 -64.2246 178.068 -12.6445 315.901 74.3789c137.834 87.0234 122.259 146.404 105.997 247.422s-82.9639 260.421 -112.106 317.643
c-29.1455 57.2207 -53.8057 97.5088 -85.7451 99.2549c-31.9404 1.74902 -72.7783 -11.8994 -89.2148 -20.2715c-6.53906 11.4834 -19.6172 34.4502 -51.5557 36.1973c-26.6299 1.45703 -65.7832 -16.3389 -80.7432 -23.1387l-0.504883 -0.230469
c-14.9453 21.2158 -17.125 37.0312 -57.1582 30.9414c-26.8955 -4.09082 -53.7949 -8.18457 -70.6035 -23.9521c-13.4463 -12.6152 -18.1133 -41.6572 -13.4414 -54.8926c-35.8652 29.7754 -74.8154 73.1465 -99.0674 97.3291
c-38.2324 38.124 -53.3643 55.6406 -76.2158 76.4844c-14.3496 13.0898 -41.4678 24.5195 -69.4824 -1.76074c-28.0137 -26.2803 -34.1758 -42.6309 0.572266 -94.5967z" />
    <glyph glyph-name="period" unicode="." 
d="M850 542.302l-600 346.409c-33.333 19.2451 -75 -4.81152 -75 -43.3008v-692.82c0 -38.4902 41.667 -62.5469 75 -43.3018l600 346.41c33.333 19.2451 33.333 67.3564 0 86.6035z" />
    <glyph glyph-name="slash" unicode="/" 
d="M125 874c-13.8076 0 -25 -11.1924 -25 -25v-700c0 -13.8066 11.1924 -25 25 -25h250c13.8066 0 25 11.1934 25 25v700c0 13.8076 -11.1934 25 -25 25h-250zM625 874c-13.8066 0 -25 -11.1924 -25 -25v-700c0 -13.8066 11.1934 -25 25 -25h250c13.8066 0 25 11.1934 25 25
v700c0 13.8076 -11.1934 25 -25 25h-250z" />
    <glyph glyph-name="zero" unicode="0" 
d="M575 924c0 13.8076 -11.1934 25 -25 25h-100c-13.8066 0 -25 -11.1924 -25 -25v-64.3613c0 -10.1123 -6.0918 -19.2275 -15.4336 -23.0977l-84.3018 -34.918c-9.3418 -3.87012 -20.0947 -1.73145 -27.2451 5.41895l-45.5098 45.5107
c-9.7627 9.7627 -25.5928 9.7627 -35.3545 0l-70.7119 -70.7109c-9.7627 -9.76367 -9.7627 -25.5918 0 -35.3555l45.5137 -45.5117c7.14941 -7.14941 9.28809 -17.9033 5.41797 -27.2441l-34.916 -84.2969c-3.87012 -9.3418 -12.9854 -15.4336 -23.0977 -15.4336h-64.3613
c-13.8076 0 -25 -11.1934 -25 -25v-100c0 -13.8066 11.1924 -25 25 -25h64.3613c10.1123 0 19.2275 -6.0918 23.0977 -15.4336l34.916 -84.2969c3.87012 -9.34082 1.73145 -20.0928 -5.41797 -27.2432l-45.5146 -45.5127c-9.7627 -9.76367 -9.7627 -25.5938 0 -35.3574
l70.7109 -70.71c9.76367 -9.7627 25.5918 -9.7627 35.3555 0l45.5107 45.5117c7.15039 7.15039 17.9033 9.28906 27.2451 5.41992l84.3018 -34.9199c9.3418 -3.87012 15.4336 -12.9844 15.4336 -23.0967v-64.3613c0 -13.8066 11.1934 -25 25 -25h100
c13.8066 0 25 11.1934 25 25v64.3613c0 10.1123 6.0918 19.2266 15.4336 23.0967l84.2969 34.917c9.34082 3.87012 20.0947 1.73145 27.2441 -5.41797l45.5107 -45.5107c9.76172 -9.7627 25.5918 -9.7627 35.3545 0l70.71 70.71c9.76367 9.76367 9.76367 25.5918 0 35.3555
l-45.5078 45.5078c-7.15039 7.15039 -9.28906 17.9033 -5.41895 27.2451l34.9189 84.3018c3.87012 9.3418 12.9844 15.4336 23.0967 15.4336h64.3613c13.8066 0 25 11.1934 25 25v100c0 13.8066 -11.1934 25 -25 25h-64.3613c-10.1123 0 -19.2266 6.0918 -23.0967 15.4336
l-34.9199 84.3018c-3.86914 9.3418 -1.73047 20.0947 5.41992 27.2451l45.5078 45.5059c9.76367 9.76367 9.76367 25.5938 0 35.3574l-70.7119 70.71c-9.7627 9.7627 -25.5908 9.7627 -35.3545 0l-45.5098 -45.5107c-7.14844 -7.14941 -17.9023 -9.28809 -27.2432 -5.41797
l-84.2969 34.916c-9.3418 3.87012 -15.4336 12.9854 -15.4336 23.0977v64.3613zM629.903 559.566v-121.133c0 -8.93164 -4.76465 -17.1855 -12.5 -21.6504l-104.903 -60.5664c-7.73535 -4.46484 -17.2646 -4.46484 -25 0l-104.903 60.5664
c-7.73535 4.46484 -12.5 12.7188 -12.5 21.6504v121.133c0 8.93164 4.76465 17.1855 12.5 21.6504l104.903 60.5664c7.73535 4.46484 17.2646 4.46484 25 0l104.903 -60.5664c7.73535 -4.46484 12.5 -12.7188 12.5 -21.6504z" />
    <glyph glyph-name="one" unicode="1" 
d="M236.554 65.417c6.36426 1.58984 13.0967 0.583008 18.8164 -2.62891c190.483 -106.96 436.115 -79.4062 598.184 82.6582c195.263 195.264 195.263 511.846 0 707.107c-195.266 195.262 -511.842 195.262 -707.105 0
c-164.277 -164.28 -190.35 -414.436 -78.2041 -605.967c3.39551 -5.7998 4.49512 -12.7002 2.86426 -19.2207l-44.1084 -176.441c-4.57715 -18.3096 12.0078 -34.8936 30.3174 -30.3164zM303.028 453.073c-29.2852 -29.2881 -76.7695 -29.2881 -106.055 0
c-29.2969 29.29 -29.2969 76.7783 0 106.066c29.2852 29.29 76.7695 29.29 106.055 0c29.2969 -29.2881 29.2969 -76.7764 0 -106.066zM553.028 453.073c-29.2852 -29.2881 -76.7695 -29.2881 -106.055 0c-29.2969 29.29 -29.2969 76.7783 0 106.066
c29.2852 29.29 76.7695 29.29 106.055 0c29.2969 -29.2881 29.2969 -76.7764 0 -106.066zM803.028 453.073c-29.2852 -29.2881 -76.7695 -29.2881 -106.055 0c-29.2969 29.29 -29.2969 76.7783 0 106.066c29.2852 29.29 76.7695 29.29 106.055 0
c29.2969 -29.2881 29.2969 -76.7764 0 -106.066z" />
    <glyph glyph-name="two" unicode="2" 
d="M592.905 933.555c-4.28027 -1.16406 -7.91992 -3.9873 -10.1133 -7.84375l-92.7539 -163.123c-2.1543 -3.79004 -2.73828 -8.27441 -1.62598 -12.4893l13.5146 -51.2051c1.12305 -4.25879 3.88672 -7.89844 7.68652 -10.125l89.0703 -52.2168
c7.86621 -4.61133 10.5664 -14.6885 6.05762 -22.6152l-93.4414 -164.335c-6.38965 -11.2383 -22.5869 -11.2383 -28.9766 0l-109.468 192.523c-3.81055 6.7002 -2.50684 15.1221 3.00488 20.5098c96.5576 94.3838 94.5898 158.229 78.0762 187.269
c-16.4951 29.0098 -69.8662 62.6221 -198.354 25.0928c-7.54883 -2.20508 -15.6836 0.956055 -19.5703 7.79199l-22.6904 39.9014c-4.59277 8.07617 -14.9014 10.8379 -22.916 6.13965l-86.1807 -50.5225c-7.86719 -4.61133 -10.5674 -14.6895 -6.05957 -22.6162
l11.5977 -20.3975c4.74414 -8.34277 1.47852 -18.9492 -7.07617 -23.2998c-26.5039 -13.4814 -54.8652 -28.9961 -85.2012 -46.7812c-40.2637 -23.6016 -1.66602 -115.087 22.6689 -157.879c24.334 -42.793 83.0605 -122.478 123.324 -98.876
c30.1865 17.6963 57.4766 34.7959 82.1318 51.2861c8.12109 5.43164 19.1816 2.90039 24.0117 -5.59277l145.88 -256.552c2.9043 -5.10742 2.9043 -11.3682 0 -16.4756l-99.7588 -175.444c-4.50781 -7.92676 -1.80859 -18.0039 6.05859 -22.6152l86.1797 -50.5215
c8.01562 -4.7002 18.3252 -1.93652 22.9189 6.13965l51.4229 90.4385c6.38965 11.2383 22.5869 11.2383 28.9766 0l48.1855 -84.7402c4.5918 -8.07617 14.9014 -10.8398 22.916 -6.13965l86.1807 50.5215c7.86621 4.61133 10.5664 14.6885 6.05957 22.6152l-96.5195 169.746
c-2.90332 5.1084 -2.90332 11.3682 0 16.4756l141.341 248.574c4.5918 8.07715 14.9023 10.8389 22.917 6.14062l88.583 -51.9297c3.86719 -2.26758 8.48242 -2.88086 12.8057 -1.7041l50.0029 13.6055c4.28027 1.16504 7.91992 3.98633 10.1133 7.84277l92.7539 163.124
c2.1543 3.79004 2.73828 8.27441 1.62598 12.4893l-13.5098 51.2051c-1.12305 4.25879 -3.88672 7.90039 -7.68457 10.127l-89.0752 52.2168c-7.86816 4.61133 -10.5684 14.6904 -6.06055 22.6162l10.2842 18.0859c4.50781 7.92676 1.80762 18.0049 -6.05859 22.6162
l-86.1797 50.5215c-8.01758 4.69922 -18.3252 1.93652 -22.9189 -6.13965l-9.84863 -17.3203c-4.59082 -8.07617 -14.9014 -10.8379 -22.916 -6.13965l-88.5781 51.9268c-3.86523 2.26562 -8.48047 2.87988 -12.8037 1.7041z" />
    <glyph glyph-name="three" unicode="3" 
d="M279.29 299.002c13.2598 0 25.9785 -5.26855 35.3545 -14.6455l200 -200c31.499 -31.498 85.3555 -9.18945 85.3555 35.3555v758.578c0 44.5459 -53.8564 66.8535 -85.3555 35.3555l-200 -200.001c-9.37598 -9.37598 -22.0947 -14.6426 -35.3545 -14.6426h-229.29
c-27.6143 0 -50 -22.3867 -50 -50v-300c0 -27.6152 22.3857 -50 50 -50h229.29zM756.158 165.39c141.4 44.9551 243.842 177.32 243.842 333.61c0 156.292 -102.441 288.656 -243.842 333.611c-29 9.2207 -56.1582 -14.3848 -56.1582 -44.8164v-2.9248
c0 -23.7803 16.998 -43.7686 39.2119 -52.2568c94.0166 -35.9229 160.788 -126.97 160.788 -233.613c0 -106.642 -66.7715 -197.688 -160.788 -233.611c-22.2139 -8.48828 -39.2119 -28.4766 -39.2119 -52.2568v-2.9248c0 -30.4316 27.1582 -54.0371 56.1582 -44.8174z
M758.753 395.691c25.5625 26.9004 41.2471 63.2734 41.2471 103.309c0 40.0371 -15.6846 76.4102 -41.2471 103.31c-23.7695 25.0156 -58.7529 1.95898 -58.7529 -32.5479v-141.521c0 -34.5068 34.9834 -57.5635 58.7529 -32.5488z" />
    <glyph glyph-name="four" unicode="4" 
d="M533.531 936.253l-221.449 -221.451l145.788 -145.787l-33.6436 -33.6445c-6.19531 -6.19336 -6.19531 -16.2354 0 -22.4287c6.19336 -6.19336 6.19336 -16.2344 0 -22.4277l-19.8447 -19.8457c-11.6787 -11.6777 -30.2598 -12.2881 -43.5918 -2.54004
c-42.167 30.834 -87.4199 49.6055 -138.384 45.6855c-70.8906 -5.45312 -131.789 -54.1182 -190.687 -113.017l-22.4297 -22.4287c-12.3867 -12.3867 -12.3867 -32.4717 0 -44.8584l325.22 -325.22c12.3867 -12.3867 32.4717 -12.3867 44.8584 0l22.4287 22.4297
c58.8984 58.8965 107.563 119.795 113.017 190.687c3.91992 50.9639 -14.8516 96.2168 -45.6855 138.384c-9.74805 13.332 -9.1377 31.9131 2.54004 43.5918l19.8457 19.8447c6.19336 6.19336 16.2344 6.19336 22.4277 0c6.19336 -6.19531 16.2354 -6.19531 22.4287 0
l33.6445 33.6436l145.787 -145.788l221.451 221.449c99.9375 99.9375 58.4854 327.634 25.2686 428.989c-101.356 33.2178 -329.053 74.6689 -428.99 -25.2676zM232.137 387.31c16.1396 1.24219 43.2334 -5.875 96.7666 -59.4062
c53.5312 -53.5332 60.6484 -80.627 59.4062 -96.7666c-0.689453 -8.96973 -4.18457 -20.1816 -12.9941 -35.0146c-9.63184 -16.2158 -32.0508 -17.1553 -45.3857 -3.81836l-136.626 136.626c-13.3369 13.335 -12.3975 35.7539 3.81836 45.3857
c14.833 8.80957 26.0449 12.3047 35.0146 12.9941z" />
    <glyph glyph-name="five" unicode="5" 
d="M560.355 999c-6.63086 0 -12.9893 -2.63379 -17.6768 -7.32227l-160.357 -160.356c-4.6875 -4.6875 -7.32129 -11.0459 -7.32129 -17.6768v-279.289c0 -6.63086 -2.63379 -12.9893 -7.32129 -17.6768l-360.356 -360.357
c-4.68848 -4.6875 -7.32227 -11.0459 -7.32227 -17.6768v-114.645c0 -13.8066 11.1934 -25 25 -25h114.645c6.63086 0 12.9893 2.63379 17.6777 7.32129l360.356 360.357c4.6875 4.6875 11.0459 7.32129 17.6768 7.32129h279.289c6.63086 0 12.9893 2.63379 17.6768 7.32129
l160.357 160.357c4.6875 4.6875 7.32129 11.0459 7.32129 17.6768v204.289c0 22.2725 -26.9287 33.4268 -42.6787 17.6768l-200 -200c-4.6875 -4.6875 -11.0459 -7.32129 -17.6768 -7.32129h-139.645c-13.8066 0 -25 11.1934 -25 25v139.645
c0 6.63086 2.63379 12.9893 7.32129 17.6768l200 200.001c15.75 15.749 4.5957 42.6777 -17.6768 42.6777h-204.289z" />
    <glyph glyph-name="six" unicode="6" 
d="M378.347 779.173l-73.5996 -73.5977c-31.9873 -31.9873 -47.3125 -73.3447 -56.3623 -110.144c-7.8916 -32.0918 -12.5117 -67.752 -16.6777 -99.915c-0.601562 -4.63867 -1.19336 -9.20508 -1.78418 -13.6768c-10.4043 -78.7744 -22.1895 -133.706 -55.3896 -166.908
l-169.845 -169.844c-6.25391 -6.25293 -6.25391 -16.3926 0 -22.6465l67.9375 -67.9385c6.25293 -6.25293 16.3926 -6.25293 22.6455 0l86.8232 86.8252c4.22656 -7.3418 8.77734 -14.3877 13.4502 -21.083c27.2334 -39.0098 65.2568 -74.6348 86.293 -94.3447
c6.44531 -6.04004 16.6484 -5.96387 22.8955 0.283203l22.6602 22.6602c6.25293 6.25293 6.21973 16.3584 -0.213867 22.4277c-0.451172 0.426758 -0.908203 0.856445 -1.36816 1.29004c-0.978516 0.923828 -1.97852 1.86328 -2.99805 2.82227
c-21.5938 20.3164 -51.96 48.8848 -74.7471 81.5264c-7.83789 11.2266 -14.0283 21.96 -18.3867 32.002l35.4365 35.4365c68.7051 68.7061 82.3975 169.465 91.8086 240.718c0.643555 4.875 1.26562 9.63672 1.87207 14.2949l0.00488281 0.0322266
c4.31836 33.1016 7.94141 60.8818 13.9834 85.4482c6.87305 27.9561 14.8994 42.5049 22.5449 50.1484l73.5996 73.5996c45.292 -45.292 11.3232 -101.906 -45.291 -158.521c141.536 -5.66211 218.533 -14.7197 322.703 -118.892
c104.172 -104.17 158.521 -324.59 141.536 -390.642c118.892 118.892 192.492 509.533 -39.6299 741.655l-96.2451 96.2441c-32.0811 -28.3076 -106.435 -74.7314 -147.198 -33.9697l79.2607 79.2617c6.25488 6.25293 6.25488 16.3926 0 22.6455l-67.9375 67.9375
c-6.25293 6.25391 -16.3926 6.25391 -22.6465 0l-79.2598 -79.2607l-39.6299 39.6309l-135.877 -135.876z" />
    <glyph glyph-name="seven" unicode="7" 
d="M625 948.95v-114.646c0 -13.8066 -11.1934 -25 -25 -25h-255.33c-6.62988 0 -12.9902 -2.63281 -17.6787 -7.32129l-219.669 -219.67c-4.68848 -4.68848 -7.32227 -11.0488 -7.32227 -17.6787v-310.66c0 -6.62988 2.63379 -12.9883 7.32227 -17.6777l180.026 -180.025
c9.76172 -9.7627 25.5918 -9.7627 35.3545 0l106.065 106.066c9.7627 9.76367 9.7627 25.5918 0 35.3555l-121.447 121.446c-4.6875 4.68848 -7.32129 11.0469 -7.32129 17.6787v144.975c0 6.62988 2.63379 12.9883 7.32129 17.6768l102.514 102.514
c4.68848 4.68848 11.0469 7.32129 17.6787 7.32129h172.486c13.8066 0 25 -11.1934 25 -25v-114.645c0 -22.2715 26.9287 -33.4268 42.6787 -17.6768l239.643 239.645c9.76367 9.76172 9.76367 25.5918 0 35.3555l-239.643 239.645
c-15.75 15.749 -42.6787 4.59473 -42.6787 -17.6777z" />
    <glyph glyph-name="eight" unicode="8" 
d="M389.648 948.95c0 22.2725 -26.9287 33.4268 -42.6768 17.6777l-239.646 -239.645c-9.7627 -9.76367 -9.7627 -25.5938 0 -35.3555l239.646 -239.645c15.748 -15.75 42.6768 -4.59473 42.6768 17.6768v114.645c0 13.8066 11.1934 25 25 25h172.488
c6.62988 0 12.9883 -2.63281 17.6768 -7.32129l102.514 -102.514c4.6875 -4.68848 7.32129 -11.0469 7.32129 -17.6768v-144.975c0 -6.63184 -2.63379 -12.9902 -7.32129 -17.6787l-121.447 -121.446c-9.76367 -9.76367 -9.76367 -25.5918 0 -35.3555l106.065 -106.066
c9.7627 -9.7627 25.5928 -9.7627 35.3564 0l180.025 180.025c4.6875 4.68945 7.32129 11.0479 7.32129 17.6777v310.66c0 6.62988 -2.63379 12.9902 -7.32129 17.6787l-219.671 219.67c-4.6875 4.68848 -11.0459 7.32129 -17.6777 7.32129h-255.33
c-13.8066 0 -25 11.1934 -25 25v114.646z" />
    <glyph glyph-name="nine" unicode="9" 
d="M911.59 910.59c14.1748 14.1748 4.13477 38.4102 -15.9102 38.4102h-598.496c-5.9668 0 -11.6904 -2.37012 -15.9102 -6.58984l-224.684 -224.684c-4.21973 -4.21973 -6.58984 -9.94336 -6.58984 -15.9102v-336.22c0 -20.0449 24.2354 -30.085 38.4102 -15.9102l135 135
c4.21973 4.21973 6.58984 9.94141 6.58984 15.9102v126.662c0 5.96582 2.37012 11.6895 6.58984 15.9092l119.242 119.242c4.21973 4.21973 9.94336 6.58984 15.9092 6.58984h195.759c12.4268 0 22.5 -10.0732 22.5 -22.5v-103.18
c0 -20.0449 24.2354 -30.085 38.4102 -15.9102zM88.4102 87.4102c-14.1748 -14.1748 -4.13574 -38.4102 15.9102 -38.4102h598.496c5.9668 0 11.6904 2.37012 15.9102 6.58984l224.684 224.684c4.21973 4.21973 6.58984 9.94336 6.58984 15.9102v336.22
c0 20.0449 -24.2354 30.085 -38.4102 15.9102l-135 -135c-4.21973 -4.21973 -6.58984 -9.94336 -6.58984 -15.9102v-126.662c0 -5.96582 -2.37012 -11.6895 -6.58984 -15.9092l-119.242 -119.242c-4.21973 -4.21973 -9.94336 -6.58984 -15.9092 -6.58984h-195.759
c-12.4268 0 -22.5 10.0732 -22.5 22.5v103.18c0 20.0449 -24.2354 30.085 -38.4102 15.9102z" />
    <glyph glyph-name="colon" unicode=":" 
d="M50 742.12c0 -62.4336 25.4785 -243.618 64.1152 -427.858c9.72363 -46.3721 30.1895 -90.3281 62.2334 -125.872c71.1328 -78.9014 134.095 -126.883 221.366 -167.083c32.292 -14.8721 67.2881 -22.3066 102.285 -22.3066s69.9932 7.43457 102.285 22.3066
c87.2715 40.2002 150.233 88.1816 221.366 167.083c32.0439 35.5439 52.5088 79.5 62.2334 125.872c38.6367 184.24 64.1152 365.425 64.1152 427.858c0 62.4346 -130.387 256.88 -450.014 256.88c-319.6 0 -449.986 -194.445 -449.986 -256.88zM181.443 552.2
c147.432 111.752 247.903 -65.9854 229.196 -97.0137c0 0 -45.2695 -35.9434 -93.8096 -33.0801c-26.8652 1.58496 -53.1953 10.9785 -73.3447 28.8223c-24.2705 21.501 -58.1133 69.8232 -62.042 101.271zM818.557 552.2
c-3.92871 -31.4482 -37.7715 -79.7705 -62.042 -101.271c-20.1494 -17.8438 -46.4795 -27.2373 -73.3447 -28.8223c-48.54 -2.86328 -93.8096 33.0801 -93.8096 33.0801c-18.707 31.0283 81.7646 208.766 229.196 97.0137zM547.267 676.733l-47.2666 -127.733
l-47.2666 127.733l-127.733 47.2666l127.733 47.2666l47.2666 127.733l47.2666 -127.733l127.733 -47.2666z" />
    <glyph glyph-name="semicolon" unicode=";" 
d="M852.445 946.68l-11.9033 -11.9043l-11.9053 11.9043c-6.57324 6.57422 -17.2334 6.57422 -23.8086 0l-54.3535 -54.3545c-208.918 142.488 -477.585 117.621 -528.948 66.2588c133.007 -23.7285 278.521 -124.944 381.408 -213.797l-59.9961 -59.9971
c-6.5752 -6.5752 -6.5752 -17.2354 0 -23.8086l11.9033 -11.9043l-549.913 -549.914c-6.57422 -6.5752 -6.57422 -17.2334 0 -23.8076l71.4248 -71.4258c6.57422 -6.57324 17.2334 -6.57324 23.8086 0l549.913 549.914l11.9053 -11.9033
c6.57324 -6.5752 17.2324 -6.5752 23.8076 0l59.9971 59.9961c88.8535 -102.887 190.068 -248.403 213.798 -381.408c51.3623 51.3633 76.2266 320.03 -66.2598 528.948l54.3555 54.3535c6.57422 6.5752 6.57422 17.2354 0 23.8086l-11.9033 11.9043l11.9033 11.9043
c6.57422 6.57422 6.57422 17.2334 0 23.8076l-71.4258 71.4248c-6.57324 6.57422 -17.2334 6.5752 -23.8076 0z" />
    <glyph glyph-name="less" unicode="&#x3c;" 
d="M985.355 913.645c19.5264 19.5264 19.5264 51.1846 0 70.7109c-19.5273 19.5264 -51.1836 19.5264 -70.7109 0l-900 -900c-19.5264 -19.5273 -19.5264 -51.1836 0 -70.7109c19.5264 -19.5264 51.1846 -19.5264 70.7109 0zM87.8682 299l512.132 512.132v67.1582
c0 44.5449 -53.8564 66.8535 -85.3555 35.3545l-200 -200c-9.37598 -9.37598 -22.0947 -14.6445 -35.3545 -14.6445h-229.29c-27.6143 0 -50 -22.3848 -50 -50v-300c0 -27.6133 22.3857 -50 50 -50h37.8682zM514.645 84.3555
c31.499 -31.4971 85.3555 -9.18848 85.3555 35.3564v267.156l-193.934 -193.934zM855.106 641.975c28.2969 -40.5166 44.8936 -89.8066 44.8936 -142.975c0 -106.642 -66.7715 -197.688 -160.788 -233.613c-22.2139 -8.48633 -39.2119 -28.4746 -39.2119 -52.2549v-2.92676
c0 -30.4297 27.1582 -54.0352 56.1582 -44.8154c141.4 44.9551 243.842 177.32 243.842 333.61c0 80.8154 -27.3896 155.231 -73.3916 214.475zM782.503 569.37l-82.5029 -82.502v-58.6279c0 -34.5088 34.9834 -57.5635 58.7529 -32.5488
c25.5625 26.8984 41.2471 63.2715 41.2471 103.309c0 25.4316 -6.32812 49.3848 -17.4971 70.3701z" />
    <glyph glyph-name="equal" unicode="=" 
d="M50 449l450 -450h475v125l-123.333 125h-201.667l-75.833 75v50l325.833 325l-300 300z" />
    <glyph glyph-name="greater" unicode="&#x3e;" 
d="M894.528 773.13l-394.528 225.87l-394.53 -225.87l394.528 -212.005zM950 685.04l-396.708 -213.175v-472.865l396.708 227.116v458.924zM446.705 -0.998047v472.863l-396.705 213.173v-458.922z" />
    <glyph glyph-name="question" unicode="?" 
d="M500 346.115l13.6836 -18.1318l0.717773 -0.90332c35.6758 -44.873 85.1816 -78.3281 142.142 -93.7236c22.0938 -6.16016 45.6084 -9.35645 70.7305 -9.35645c150.621 0 272.727 123.122 272.727 275s-122.115 275 -272.738 275h-0.141602
c-87.0283 -0.0429688 -155.771 -37.1602 -210.282 -100.145l-2.00293 -2.31543l-14.835 -19.6553l-13.6836 18.1318l-0.717773 0.90332c-35.6768 44.875 -85.1855 78.3301 -142.146 93.7246c-21.8643 6.0957 -45.1309 9.28906 -69.959 9.35352l-0.766602 0.00195312
c-14.667 0 -29.0928 -1.17188 -43.1846 -3.43457c-130.112 -20.9004 -229.542 -134.482 -229.542 -271.565c0 -151.878 122.104 -275 272.727 -275c87.0967 0 155.89 37.1201 210.436 100.145l2.00293 2.31348zM272.727 590.667h0.264648
c7.30859 -0.0224609 14.3535 -0.898438 21.0654 -2.52051c17.4297 -4.63965 36.3916 -17.4414 65.4434 -55.8662l25.1162 -33.2803l-25.1279 -33.2949c-19.1904 -25.3818 -33.9346 -39.5332 -46.7471 -47.585c-11.6416 -7.31641 -23.5547 -10.7871 -40.0146 -10.7871
c-50.207 0 -90.9082 41.04 -90.9082 91.667s40.7012 91.667 90.9082 91.667zM818.182 499c0 -50.627 -40.7012 -91.667 -90.9082 -91.667c-7.40527 0 -14.54 0.879883 -21.332 2.52051c-17.4277 4.63965 -36.3896 17.4434 -65.4414 55.8662l-25.1162 33.2803
l25.1279 33.2949c19.1904 25.3818 33.9346 39.5332 46.7471 47.585c11.6416 7.31641 23.5547 10.7871 40.0146 10.7871c50.207 0 90.9082 -41.04 90.9082 -91.667z" />
    <glyph glyph-name="at" unicode="@" 
d="M40.2373 449h93.0957c9.20508 0 16.667 -7.46191 16.667 -16.667v-366.666c0 -9.20508 7.46191 -16.667 16.667 -16.667h191.666c9.20508 0 16.667 7.46191 16.667 16.667v183.333s0 150 125 150s125 -150 125 -150v-183.333c0 -9.20508 7.46191 -16.667 16.667 -16.667
h191.666c9.20508 0 16.667 7.46191 16.667 16.667v366.666c0 9.20508 7.46191 16.667 16.667 16.667h93.0967c14.8477 0 22.2842 17.9521 11.7842 28.4521l-459.763 459.763c-6.50879 6.50879 -17.0615 6.50879 -23.5703 0l-459.763 -459.763
c-10.5 -10.5 -3.06348 -28.4521 11.7852 -28.4521z" />
    <glyph glyph-name="A" unicode="A" 
d="M483.338 989.378l-399.679 -230.755c-10.3135 -5.95508 -16.667 -16.96 -16.667 -28.8682v-461.51c0 -11.9082 6.35352 -22.9131 16.667 -28.8682l399.679 -230.754c10.3135 -5.95508 23.0205 -5.95508 33.334 0l399.68 230.754
c10.3135 5.95508 16.667 16.96 16.667 28.8682v461.51c0 11.9082 -6.35352 22.9131 -16.667 28.8682l-399.68 230.755c-10.3135 5.9541 -23.0205 5.9541 -33.334 0z" />
    <glyph glyph-name="B" unicode="B" 
d="M400 973.971c0 16.6016 -15.8838 28.5918 -31.8496 24.043l-350.001 -99.7178c-10.7412 -3.06055 -18.1494 -12.874 -18.1494 -24.043v-750.505c0 -11.168 7.4082 -20.9814 18.1494 -24.041l350.001 -99.7188c15.9658 -4.5498 31.8496 7.44141 31.8496 24.043v949.939z
M975 574.06h-117.538c-13.8066 0 -25 11.1924 -25 25v68.9258c0 22.1729 -26.7217 33.3711 -42.5303 17.8232l-171.81 -168.983c-9.95996 -9.79688 -9.95996 -25.8516 0 -35.6484l171.81 -168.983c15.8086 -15.5488 42.5303 -4.34961 42.5303 17.8232v68.9268
c0 13.8066 11.1934 25 25 25h117.538c13.8066 0 25 11.1914 25 25v100.116c0 13.8066 -11.1934 25 -25 25zM500 828.854c0 -13.8066 11.1934 -25 25 -25h67.8564c13.8086 0 25 -11.1934 25 -25v-80.7217c0 -22.1387 26.6533 -33.3516 42.4805 -17.873l107.144 104.784
c4.80762 4.7041 7.51953 11.1475 7.51953 17.874v128.362c0 13.8076 -11.1934 25 -25 25h-225c-13.8066 0 -25 -11.1924 -25 -25v-102.426zM617.856 299.872v-80.7236c0 -13.8066 -11.1914 -25 -25 -25h-67.8564c-13.8066 0 -25 -11.1934 -25 -25v-102.427
c0 -13.8066 11.1934 -25 25 -25h225c13.8066 0 25 11.1934 25 25v128.365c0 6.72656 -2.71191 13.1699 -7.51953 17.873l-107.144 104.783c-15.8271 15.4805 -42.4805 4.2666 -42.4805 -17.8711z" />
    <glyph glyph-name="C" unicode="C" 
d="M325 999h-325v-125h200zM0 649h175v125h-175v-125zM600 924h-200l-125 -125v-200l125 -125h-75l-225 -225v-175h800v175l-225 225h-75l125 125v200zM875 874l125 125h-325l125 -125h75zM1000 774h-175v-125h50z" />
    <glyph glyph-name="D" unicode="D" 
d="M523.243 934.353c-9.4082 19.5303 -37.0781 19.5303 -46.4863 0l-169.787 -352.442c-7.05469 -14.6465 -25.6182 -19.2314 -38.6211 -9.54199l-227.091 169.219c-19.4619 14.501 -46.2861 -3.48828 -40.4424 -27.124l134.069 -542.335
c2.19531 -8.87793 8.87598 -15.9414 17.5859 -18.5898l340.051 -103.427c4.87695 -1.4834 10.0801 -1.4834 14.957 0l340.05 103.427c8.71191 2.64844 15.3916 9.71191 17.5869 18.5898l134.069 542.335c5.84375 23.6357 -20.9814 41.625 -40.4434 27.124l-227.09 -169.219
c-13.0029 -9.68945 -31.5664 -5.10449 -38.6211 9.54199zM767.642 745.684l44.9863 33.5215c8.31738 6.19629 12.1484 16.7881 9.7373 26.9102l-11.2656 47.2695c-5.5459 23.2783 -36.8076 27.252 -47.9434 6.09277l-37.9248 -72.0645
c-3.84668 -7.30762 -4.00098 -16.0195 -0.416016 -23.4609l4.2041 -8.72754c7.05566 -14.6465 25.6191 -19.2314 38.6221 -9.54102zM270.969 755.225l4.2041 8.72754c3.58398 7.43945 3.43066 16.1533 -0.416016 23.4609l-37.9248 72.0645
c-11.1357 21.1592 -42.3975 17.1855 -47.9453 -6.09277l-11.2646 -47.2695c-2.41211 -10.1201 1.4209 -20.7119 9.73828 -26.9102l44.9863 -33.5215c13.0029 -9.69043 31.5664 -5.10547 38.6221 9.54102z" />
    <glyph glyph-name="E" unicode="E" 
d="M576.075 958.932l-0.046875 -0.0722656l25.5547 -188.346c0.0986328 -0.733398 0.155273 -1.4707 0.166992 -2.20898c0.0117188 -0.761719 -0.0214844 -1.52344 -0.103516 -2.28125l-4.92969 -46.0898c-1.31152 -12.2803 -13.998 -19.917 -25.5146 -15.3584
l-54.7285 21.6582c-2.3418 0.924805 -4.47168 2.31348 -6.26562 4.07812l-111.731 109.988c-0.226562 0.224609 -0.583008 0.25293 -0.844727 0.0664062c-0.0917969 -0.0664062 -0.197266 -0.105469 -0.304688 -0.118164
c-0.213867 -0.0253906 -0.432617 0.0527344 -0.582031 0.222656c-8.00879 9.05762 -20.25 14.0938 -33.1396 12.374c-20.5117 -2.73535 -34.8867 -21.54 -32.1104 -42.001c0.696289 -5.14355 2.41113 -9.90039 4.91504 -14.0986
c0.0527344 -0.0898438 0.0283203 -0.207031 -0.0566406 -0.268555c-0.0898438 -0.0634766 -0.110352 -0.18457 -0.0498047 -0.276367l96.415 -143.891c1.7959 -3.14941 3.8877 -6.09766 6.22949 -8.8125c0.0517578 -0.0605469 0.0566406 -0.147461 0.0136719 -0.211914
c-0.0449219 -0.0664062 -0.0371094 -0.157227 0.0166016 -0.216797l88.3779 -93.875c6.6123 -7.02344 6.80176 -17.8984 0.438477 -25.125l-53.8496 -61.168c-6.60742 -7.50586 -17.9717 -8.4873 -25.7949 -2.23047l-135.732 108.543
c-16.0215 17.0117 -39.751 26.3271 -64.6865 23.002c-5.25684 -0.701172 -10.3135 -1.92969 -15.1201 -3.62695l-0.108398 0.0625l-0.108398 0.0595703l-202.516 -81.9863c-0.636719 -0.258789 -1.28711 -0.476562 -1.94629 -0.673828l-0.694336 -0.201172
c-17.6719 -4.95508 -29.4297 -22.252 -26.8955 -40.9307c2.48242 -18.2959 17.8379 -31.7217 35.7246 -32.4014l0.0361328 -0.0283203l0.321289 0.0146484c1.95996 -0.0546875 3.94727 0.0419922 5.95215 0.301758l177.208 8.99316
c5.45996 0.277344 10.7715 -1.83789 14.543 -5.78906l68.6406 -71.9092c8.60449 -9.01172 6.16016 -23.7217 -4.89062 -29.4561l-108.114 -56.1016c-11.4404 -5.77734 -21.0684 -14.3555 -28.1133 -24.7217l-150.481 -193.014
c-6.73828 -7.80859 -10.2236 -18.3535 -8.72754 -29.3779c2.77637 -20.4619 21.6523 -34.8301 42.1621 -32.0957c8.10352 1.08203 15.25 4.67188 20.7578 9.87988c0.911133 0.858398 1.85352 1.6875 2.88281 2.40039l194.428 134.935
c1.38184 0.958984 2.88477 1.72754 4.47168 2.28418l239.293 84.0312l0.0332031 0.078125l0.0332031 0.0771484c5.41406 2.00781 10.5635 4.49316 15.415 7.39844l0.124023 0.0732422c9.2793 5.57812 17.4482 12.6934 24.1992 20.9482
c0.711914 0.870117 1.48535 1.69336 2.33008 2.43652l211.695 186.59c29.6855 23.7686 46.5 62.0234 41.0186 102.432c-1.65527 12.2031 -5.21973 23.6855 -10.3535 34.1836l-79.043 204.688c-0.773438 3.25098 -1.82324 6.37988 -3.12207 9.36523l-60.3232 175.445
c-0.0566406 0.165039 -0.230469 0.259766 -0.400391 0.217773c-0.0830078 -0.0205078 -0.167969 -0.00878906 -0.236328 0.0283203c-0.0664062 0.0341797 -0.12207 0.0908203 -0.15332 0.163086c-6.65332 14.6738 -22.3652 23.9199 -39.1729 21.6777
c-19.7275 -2.63184 -33.7783 -20.1279 -32.3535 -39.666zM902.642 641.855c61.5303 8.20605 104.656 64.6211 96.3301 126.006c-8.32812 61.3838 -64.958 104.492 -126.488 96.2852c-61.5303 -8.20801 -104.658 -64.623 -96.3301 -126.007
c8.32812 -61.3848 64.958 -104.493 126.488 -96.2842z" />
    <glyph glyph-name="F" unicode="F" 
d="M526.65 807.265l-43.6504 43.4482l-224.145 -223.107l43.6494 -43.4473l-97.4834 -97.0303c-47.6025 -47.3828 -92.2979 -116.27 -127.901 -179.432c-32.0752 -56.9014 -58.8525 -112.93 -75.8828 -152.206c-3.37695 -7.79004 0.37207 -16.7637 8.24512 -20.0137
l136.815 -35.2998c7.87305 -3.25 16.8955 0.469727 20.2852 8.25488c15.4668 35.5137 -11.209 86.9502 18.2051 139.134c34.1455 60.5713 72.2021 117.501 107.532 152.668l97.4834 97.0303l57.8711 -57.6035c112.214 -111.693 123.434 -263.771 115.016 -325.849
c41.0742 -5.65527 156.253 15.9121 288.381 147.429c132.127 131.517 153.795 246.161 148.113 287.045c-62.3662 -8.37891 -215.149 2.78809 -327.363 114.481l-57.873 57.6055l62.5254 62.2344c6.02637 5.99902 6.02637 15.7256 0 21.7236l-65.4736 65.1709
c-6.02637 5.99902 -15.7979 5.99902 -21.8252 0z" />
    <glyph glyph-name="G" unicode="G" 
d="M100 99h800v800h-800v-800z" />
    <glyph glyph-name="H" unicode="H" 
d="M500 -1c0 0 375 250 375 625c0 207.106 -167.894 375 -375 375s-375 -167.894 -375 -375c0 -375 375 -625 375 -625zM500 474c-69.0352 0 -125 55.9648 -125 125s55.9648 125 125 125s125 -55.9648 125 -125s-55.9648 -125 -125 -125z" />
    <glyph glyph-name="I" unicode="I" 
d="M475 878.169c-32.1299 0 -113.179 35.6836 -166.151 59.0068c-8.85352 3.89746 -16.9238 7.4502 -23.8486 10.4336c-11.082 4.77344 -22.7432 10.4209 -34.667 16.1963c-53.123 25.7285 -111.432 53.9688 -146.698 18.5244
c-43.1816 -43.4004 -60.4541 -190.962 -43.1816 -286.441c11.9521 -66.0703 7.36328 -98.8906 3.40234 -127.221c-1.76367 -12.6094 -3.40234 -24.3311 -3.40234 -37.6992c0 -18.5352 -11.0254 -48.1504 -23.6582 -82.085
c-16.9502 -45.5303 -36.7949 -98.8389 -36.7949 -143.597c0 -78.1201 34.542 -147.561 60.4531 -190.962c14.8496 -24.8721 32.5352 -46.8936 48.1797 -57.8955c0.738281 5.16211 1.4834 10.5186 2.23535 16.0508c2.50098 18.4043 5.08008 38.8174 7.74219 59.8877
c4.81641 38.1123 9.90918 78.4102 15.3184 113.025c8.68066 55.541 28.7002 147.477 77.7061 226.729c50.2598 81.2803 133.271 151.877 263.362 151.877c130.088 0 213.108 -70.5967 263.368 -151.877c49.0068 -79.2529 69.0244 -171.188 77.7061 -226.729
c5.40918 -34.6123 10.5 -74.9033 15.3154 -113.01c2.66309 -21.0723 5.24512 -41.499 7.74512 -59.9033c0.751953 -5.53223 1.49609 -10.8887 2.23438 -16.0508c15.6455 11.002 33.3301 33.0234 48.1807 57.8955c25.9111 43.4014 60.4531 112.842 60.4531 190.962
c0 44.7578 -19.8447 98.0645 -36.7949 143.595c-12.6338 33.9346 -23.6582 63.5518 -23.6582 82.0869c0 13.3662 -1.63867 25.0879 -3.40234 37.6982c-3.96094 28.3301 -8.5498 61.1514 3.40234 127.222c17.2734 95.4795 0 243.041 -43.1816 286.441
c-35.2666 35.4443 -93.5752 7.2041 -146.698 -18.5244c-11.9238 -5.77539 -23.585 -11.4229 -34.667 -16.1963c-6.92285 -2.98242 -14.9912 -6.53516 -23.8447 -10.4326c-52.9736 -23.3223 -134.025 -59.0078 -166.155 -59.0078zM474.997 524
c-87.5059 0 -141.068 -44.2471 -178.309 -104.47c-38.4932 -62.252 -55.9736 -138.48 -63.958 -189.578c-5.22363 -33.4209 -9.92188 -70.6523 -14.5791 -107.568c-1.84766 -14.6436 -3.68848 -29.2373 -5.55469 -43.5234
c96.5947 -56.1201 206.446 -79.8604 262.403 -79.8604s165.809 23.7402 262.403 79.8604c-1.86328 14.2695 -3.70312 28.8467 -5.54785 43.4717l-0.00683594 0.0517578c-4.65723 36.916 -9.35547 74.1475 -14.5791 107.568
c-7.98438 51.0977 -25.4648 127.326 -63.958 189.578c-37.2402 60.2227 -90.8115 104.47 -178.314 104.47zM400 186.5c0 -48.3252 -33.5781 -87.5 -75 -87.5s-75 39.1748 -75 87.5c0 7.1748 0.740234 14.1504 2.13672 20.8232
c5.15039 -19.415 19.0381 -33.3232 35.3633 -33.3232c20.71 0 37.5 22.3848 37.5 50c0 20.5869 -9.33203 38.2686 -22.6631 45.9336c7.14941 2.6416 14.7627 4.06641 22.6631 4.06641c41.4219 0 75 -39.1748 75 -87.5zM625 99c-41.4219 0 -75 39.1748 -75 87.5
s33.5781 87.5 75 87.5c7.90039 0 15.5137 -1.4248 22.6631 -4.06641c-13.3311 -7.66504 -22.6631 -25.3467 -22.6631 -45.9336c0 -27.6152 16.79 -50 37.5 -50c16.3252 0 30.2129 13.9082 35.3633 33.3232c1.39648 -6.67285 2.13672 -13.6484 2.13672 -20.8232
c0 -48.3252 -33.5781 -87.5 -75 -87.5z" />
    <glyph glyph-name="J" unicode="J" 
d="M787.01 458.092c8.14551 14.7764 12.9902 33.2998 12.9902 53.4082c0 21.1533 -5.36133 40.5537 -14.2871 55.6816h63.1035c-6.41797 157.889 -37.3545 272.561 -53.6943 313.34c-5.93164 2.37891 -12.8008 5.56836 -20.7471 9.25781
c-24.7314 11.4814 -59.9014 27.8096 -109.74 39.6553c-65.8545 15.6523 -137.196 19.5654 -164.635 19.5654c-27.4404 0 -98.7803 -3.91309 -164.635 -19.5654c-49.8389 -11.8457 -85.0088 -28.1738 -109.74 -39.6553
c-7.94629 -3.68945 -14.8154 -6.87891 -20.7471 -9.25781c-16.3398 -40.7793 -47.2764 -155.451 -53.6943 -313.34h63.1035c-8.92578 -15.1279 -14.2871 -34.5283 -14.2871 -55.6816c0 -20.1084 4.84473 -38.6318 12.9902 -53.4082h-62.0986
c5.7041 -161.861 37.3818 -279.608 53.9863 -321.049c6.3125 -2.25 13.7852 -5.97656 23.5742 -10.8545c18.5762 -9.26172 45.498 -22.6836 88.6211 -38.0586c65.8535 -23.4785 149.39 -35.8701 182.927 -39.1299c33.5371 3.25977 117.073 15.6514 182.927 39.1299
c43.123 15.375 70.0449 28.7969 88.623 38.0586c9.78711 4.87793 17.2598 8.60449 23.5723 10.8545c16.6045 41.4404 48.2832 159.188 53.9863 321.049h-62.0986zM361.61 567.182h276.779c14.0225 34.1602 39.3633 56.5234 67.334 55.1104
c16.6943 -0.84375 31.7393 -10.0283 43.5098 -24.832c-3.7998 1.01172 -7.72363 1.54004 -11.7334 1.54004c-34.5186 0 -62.5 -39.1748 -62.5 -87.5s27.9814 -87.5 62.5 -87.5c3.41504 0 6.76465 0.383789 10.0312 1.12207
c-13.9482 -17.7666 -32.0127 -28.1357 -51.335 -27.1602c-27.5625 1.39355 -50.6279 25.5215 -61.8848 60.1299h-268.623c-11.2568 -34.6084 -34.3223 -58.7363 -61.8848 -60.1299c-19.3223 -0.975586 -37.3867 9.39355 -51.335 27.1602
c3.2666 -0.738281 6.61621 -1.12207 10.0312 -1.12207c34.5186 0 62.5 39.1748 62.5 87.5s-27.9814 87.5 -62.5 87.5c-4.00977 0 -7.93359 -0.52832 -11.7334 -1.54004c11.7705 14.8037 26.8154 23.9883 43.5098 24.832c27.9707 1.41309 53.3115 -20.9502 67.334 -55.1104z
M67.3076 812.637c-22.4355 -30.2637 -67.3076 -135.358 -67.3076 -313.637s51.2822 -277.872 76.9229 -305.384l48.0771 -8.25293c-19.2305 55.0254 -57.6924 194.785 -57.6924 313.637s38.4619 258.611 57.6924 313.637h-57.6924zM875 812.637
c19.2305 -55.0254 57.6914 -194.785 57.6914 -313.637s-38.4609 -258.611 -57.6914 -313.637l48.0771 8.25293c25.6416 27.5117 76.9229 127.105 76.9229 305.384s-44.8721 283.373 -67.3086 313.637h-57.6914z" />
    <glyph glyph-name="K" unicode="K" 
d="M40.8584 994.176c-68.2578 -26.1328 -41.7012 -196.31 14.9873 -338.457c-2.61816 -3.56055 -5.22168 -7.17871 -7.83984 -10.8535l-4.42188 -6.26562c-71.3096 -101.555 -57.041 -162.307 57.0615 -275.437c71.4316 -70.8164 111.96 -69.1963 142.505 -67.9766
c18.25 0.730469 32.9316 1.31641 48.5166 -13.7715c21.7275 -21.04 9.45996 -42.0801 -7.25 -70.748c-15.334 -26.3066 -34.4189 -59.0352 -34.4189 -104.08c0 -94.1406 87.0371 -107.587 138.891 -107.587c0 0 -27.7783 80.6904 -27.7783 134.483
s41.665 82.5869 138.89 82.5869s138.89 -28.7939 138.89 -82.5869s-27.7783 -134.483 -27.7783 -134.483c51.8535 0 138.891 13.4463 138.891 107.587c0 45.0449 -19.085 77.7734 -34.4189 104.08c-16.71 28.668 -28.9775 49.708 -7.25 70.748
c15.585 15.0879 30.2686 14.502 48.5166 13.7715c30.5449 -1.21973 71.0732 -2.83984 142.506 67.9766c114.102 113.13 128.369 173.882 57.0596 275.437c-4.10156 5.8457 -8.17188 11.5537 -12.2598 17.1191c56.6885 142.147 83.2451 312.324 14.9863 338.457
c-70.252 26.8965 -280.463 -61.9131 -340.557 -185.739c-1.83789 -3.78613 -3.32324 -7.63281 -4.46973 -11.5264c-33.9355 1.99609 -71.7432 3.0127 -114.033 3.0127h-0.164062c-42.29 0 -80.0977 -1.0166 -114.033 -3.0127
c-1.14648 3.89355 -2.63184 7.74023 -4.46973 11.5264c-60.0938 123.826 -270.312 212.636 -340.557 185.739zM409.309 418.535c0 0 -45.9053 -30.9365 -95.1338 -28.4756c-27.2432 1.36523 -53.9414 9.45215 -74.3818 24.8086
c-24.6113 18.5068 -58.9268 87.125 -62.915 114.191c149.511 96.1836 251.405 -83.8193 232.431 -110.524zM590.691 418.535c-18.9746 26.7051 82.9199 206.708 232.431 110.524c-3.98828 -27.0664 -38.3037 -95.6846 -62.9219 -114.191
c-20.4336 -15.3564 -47.1318 -23.4434 -74.375 -24.8086c-49.2285 -2.46094 -95.1338 28.4756 -95.1338 28.4756zM500 -1c25 0 55.5547 40.3467 55.5547 107.587c0 23.9951 -20.4727 24.7012 -38.5801 25.3252c-11.6826 0.40332 -22.2666 0.40332 -33.9492 0
c-18.1074 -0.624023 -38.5801 -1.33008 -38.5801 -25.3252c0 -67.2402 30.5547 -107.587 55.5547 -107.587z" />
    <glyph glyph-name="L" unicode="L" 
d="M610.71 849h-221.42l-89.29 -89.29v-210.71h-210.711l-89.2891 -89.29v-221.42l89.2891 -89.29h221.421l39.29 39.29l39.29 -39.29h221.42l39.29 39.29l39.29 -39.29h221.42l89.29 89.29v221.42l-89.29 89.29h-210.71v210.71zM700 418.29l30.71 30.71h138.58
l30.71 -30.71v-138.58l-30.71 -30.71h-138.58l-30.71 30.71v138.58zM600 418.29v-138.58l-30.71 -30.71h-138.58l-30.71 30.71v138.58l30.71 30.71h138.58zM269.29 449l30.71 -30.71v-138.58l-30.71 -30.71h-138.579l-30.7109 30.71v138.58l30.7109 30.71h138.579z
M569.29 549h-138.58l-30.71 30.71v138.58l30.71 30.71h138.58l30.71 -30.71v-138.58z" />
    <glyph glyph-name="M" unicode="M" 
d="M610.71 849h-221.42l-89.29 -89.29v-210.71h-210.711l-89.2891 -89.29v-221.42l89.2891 -89.29h221.421l39.29 39.29l39.29 -39.29h221.42l39.29 39.29l39.29 -39.29h221.42l89.29 89.29v221.42l-89.29 89.29h-210.71v210.71zM700 418.29l30.71 30.71h138.58
l30.71 -30.71v-138.58l-30.71 -30.71h-138.58l-30.71 30.71v138.58zM600 418.29v-138.58l-30.71 -30.71h-138.58l-30.71 30.71v138.58l30.71 30.71h138.58zM269.29 449l30.71 -30.71v-138.58l-30.71 -30.71h-138.579l-30.7109 30.71v138.58l30.7109 30.71h138.579z" />
    <glyph glyph-name="N" unicode="N" 
d="M610.71 849h-221.42l-89.29 -89.29v-210.71h-210.711l-89.2891 -89.29v-221.42l89.2891 -89.29h221.421l39.29 39.29l39.29 -39.29h221.42l39.29 39.29l39.29 -39.29h221.42l89.29 89.29v221.42l-89.29 89.29h-210.71v210.71zM600 418.29v-138.58l-30.71 -30.71h-138.58
l-30.71 30.71v138.58l30.71 30.71h138.58zM269.29 449l30.71 -30.71v-138.58l-30.71 -30.71h-138.579l-30.7109 30.71v138.58l30.7109 30.71h138.579zM569.29 549h-138.58l-30.71 30.71v138.58l30.71 30.71h138.58l30.71 -30.71v-138.58z" />
    <glyph glyph-name="O" unicode="O" 
d="M610.71 849h-221.42l-89.29 -89.29v-210.71h-210.711l-89.2891 -89.29v-221.42l89.2891 -89.29h221.421l39.29 39.29l39.29 -39.29h221.42l39.29 39.29l39.29 -39.29h221.42l89.29 89.29v221.42l-89.29 89.29h-210.71v210.71zM700 418.29l30.71 30.71h138.58
l30.71 -30.71v-138.58l-30.71 -30.71h-138.58l-30.71 30.71v138.58zM600 418.29v-138.58l-30.71 -30.71h-138.58l-30.71 30.71v138.58l30.71 30.71h138.58zM569.29 549h-138.58l-30.71 30.71v138.58l30.71 30.71h138.58l30.71 -30.71v-138.58z" />
    <glyph glyph-name="P" unicode="P" 
d="M610.71 849h-221.42l-89.29 -89.29v-210.71h-210.711l-89.2891 -89.29v-221.42l89.2891 -89.29h221.421l39.29 39.29l39.29 -39.29h221.42l39.29 39.29l39.29 -39.29h221.42l89.29 89.29v221.42l-89.29 89.29h-210.71v210.71zM700 418.29l30.71 30.71h138.58
l30.71 -30.71v-138.58l-30.71 -30.71h-138.58l-30.71 30.71v138.58zM269.29 449l30.71 -30.71v-138.58l-30.71 -30.71h-138.579l-30.7109 30.71v138.58l30.7109 30.71h138.579zM569.29 549h-138.58l-30.71 30.71v138.58l30.71 30.71h138.58l30.71 -30.71v-138.58z" />
    <glyph glyph-name="Q" unicode="Q" 
d="M471.113 923.827l-417.346 -724.862c-12.7939 -22.2217 3.24512 -49.9648 28.8877 -49.9648h834.689c25.6416 0 41.6816 27.7432 28.8867 49.9648l-417.345 724.862c-12.8203 22.2686 -44.9531 22.2686 -57.7734 0z" />
    <glyph glyph-name="R" unicode="R" 
d="M474.118 980.98l-118.783 -321.011c-2.79688 -7.55273 -8.75195 -13.5078 -16.3047 -16.3047l-321.011 -118.783c-24.0264 -8.8916 -24.0264 -42.8721 0 -51.7637l321.011 -118.783c7.55273 -2.79688 13.5078 -8.75195 16.3047 -16.3047l118.783 -321.011
c8.8916 -24.0264 42.8721 -24.0264 51.7637 0l118.783 321.011c2.79688 7.55273 8.75195 13.5078 16.3047 16.3047l321.011 118.783c24.0264 8.8916 24.0264 42.8721 0 51.7637l-321.011 118.783c-7.55273 2.79688 -13.5078 8.75195 -16.3047 16.3047l-118.783 321.011
c-8.8916 24.0264 -42.8721 24.0264 -51.7637 0z" />
    <glyph glyph-name="S" unicode="S" 
d="M500 999l-500 -175v-100h1000v100zM100 624v-50h50v-325h-50v-50h200v50h-50v325h50v50h-200zM600 574v50h-200v-50h50v-325h-50v-50h200v50h-50v325h50zM700 624v-50h50v-325h-50v-50h200v50h-50v325h50v50h-200zM1000 -1v100h-1000v-100h1000z" />
    <glyph glyph-name="T" unicode="T" 
d="M569.702 583.44l384.703 -188.018l43.9102 89.8438l-372.379 376.775l-100.937 11.958zM365.635 724l-357.896 -207.229l18.707 -98.2344l486.523 92.6465zM450 410.122v-161.122h-50v-50h200v50h-50v180.163zM750 249h-50v-50h200v50h-50v93.4785l-100 43.4785v-136.957
zM1000 -1v100h-1000v-100h1000zM158.34 349.225l-16.8896 -36.2012l-45.3105 21.1396l-21.1396 -45.3115l181.247 -84.5566l21.1377 45.3115l-45.3115 21.1387l47.2969 101.378z" />
    <glyph glyph-name="U" unicode="U" 
d="M499.986 999c-319.6 0 -449.986 -194.445 -449.986 -256.88c0 -62.4336 25.4785 -243.618 64.1152 -427.858c9.72363 -46.3721 30.1895 -90.3281 62.2334 -125.872c71.1328 -78.9014 134.095 -126.883 221.366 -167.083
c32.292 -14.8721 67.2881 -22.3066 102.285 -22.3066s69.9932 7.43457 102.285 22.3066c87.2715 40.2002 150.233 88.1816 221.366 167.083c32.0439 35.5439 52.5088 79.5 62.2334 125.872c38.6367 184.24 64.1152 365.425 64.1152 427.858
c0 62.4346 -130.387 256.88 -450.014 256.88zM410.64 455.187c0 0 -45.2695 -35.9434 -93.8096 -33.0801c-26.8652 1.58496 -53.1953 10.9785 -73.3447 28.8223c-24.2705 21.501 -58.1133 69.8232 -62.042 101.271c147.432 111.752 247.903 -65.9854 229.196 -97.0137z
M589.36 455.187c-18.707 31.0283 81.7646 208.766 229.196 97.0137c-3.92871 -31.4482 -37.7715 -79.7705 -62.042 -101.271c-20.1494 -17.8438 -46.4795 -27.2373 -73.3447 -28.8223c-48.54 -2.86328 -93.8096 33.0801 -93.8096 33.0801z" />
    <glyph glyph-name="V" unicode="V" 
d="M442.609 999c-314.36 0 -442.609 -191.258 -442.609 -252.669c0 -61.4102 25.0605 -239.624 63.0635 -420.844c9.56543 -45.6123 29.6953 -88.8477 61.2139 -123.809c69.9668 -77.6084 131.896 -124.804 217.737 -164.345
c31.7627 -14.627 66.1855 -21.9404 100.608 -21.9404s68.8457 7.31348 100.608 21.9404c8.61133 3.96777 6.61816 14.6836 9.58008 23.458l30.0723 89.082l-79.7197 55.7461c-73.0283 51.0664 -27.251 152.964 48.6016 152.964h101.577l30.8145 91.2812
c25.8066 76.4414 134.454 76.4414 160.261 0l1.30371 -3.86035c24.4688 134.954 39.5244 252.727 39.5244 300.326c0 61.4111 -128.249 252.669 -442.637 252.669zM354.728 464.102c0 0 -44.5273 -35.3545 -92.2715 -32.5381
c-26.4248 1.55957 -52.3232 10.7988 -72.1426 28.3496c-23.8721 21.1494 -57.1602 68.6787 -61.0244 99.6113c145.015 109.92 243.839 -64.9033 225.438 -95.4229zM754.054 426.269l-45.3369 -134.298c-1.44141 -4.26758 -5.57227 -7.15723 -10.2363 -7.15723h-146.715
c-10.4248 0 -14.7588 -12.8398 -6.32422 -18.7383l118.694 -83c3.77051 -2.6377 5.34961 -7.3125 3.9082 -11.582l-45.3359 -134.297c-3.22266 -9.54395 8.12598 -17.4785 16.5605 -11.5811l118.695 83.001c3.77051 2.6377 8.87891 2.6377 12.6514 0l118.694 -83.001
c8.43457 -5.89746 19.7822 2.03711 16.5605 11.5811l-45.3369 134.297c-1.44141 4.26953 0.137695 8.94434 3.90918 11.582l118.695 83c8.43457 5.89844 4.09863 18.7383 -6.32617 18.7383h-146.715c-4.66211 0 -8.79492 2.88965 -10.2344 7.15723l-45.3379 134.298
c-3.2207 9.54297 -17.249 9.54297 -20.4707 0z" />
    <glyph glyph-name="W" unicode="W" 
d="M449.986 999c-319.6 0 -449.986 -194.445 -449.986 -256.88c0 -62.4336 25.4785 -243.618 64.1152 -427.858c9.72363 -46.3721 30.1895 -90.3281 62.2334 -125.872c71.1328 -78.9014 134.095 -126.883 221.366 -167.083
c32.292 -14.8721 67.2881 -22.3066 102.285 -22.3066c16.7646 0 33.5312 1.70703 50 5.11816v494.882h370.651c18.4102 110.325 29.3486 202.212 29.3486 243.12c0 62.4346 -130.387 256.88 -450.014 256.88zM360.64 455.187c0 0 -45.2695 -35.9434 -93.8096 -33.0801
c-26.8652 1.58496 -53.1953 10.9785 -73.3447 28.8223c-24.2705 21.501 -58.1133 69.8232 -62.041 101.271c147.431 111.752 247.902 -65.9854 229.195 -97.0137zM575 424v-425h53.125v212.5h106.25v-79.6865h265.625l-92.9688 119.53l92.9688 92.9697h-132.813v79.6865
h-292.187z" />
    <glyph glyph-name="X" unicode="X" 
d="M500 999l-175 -175v-50l100 -100v-150l-125 125h-100v-100l225 -225v-150l-325 325h-100v-100l400 -400h200l400 400v100h-100l-325 -325v150l225 225v100h-100l-125 -125v150l100 100v50z" />
    <glyph glyph-name="Y" unicode="Y" 
d="M474.913 982.65l-132.836 -282.193c-4.0752 -8.65723 -11.9521 -14.6572 -21.0635 -16.0449l-297.031 -45.252c-22.9453 -3.49707 -32.1074 -33.0605 -15.5039 -50.0283l214.934 -219.657c6.59277 -6.73828 9.60254 -16.4463 8.0459 -25.9609l-50.7393 -310.162
c-3.91895 -23.958 20.0664 -42.2295 40.5898 -30.918l265.673 146.438c8.15039 4.49121 17.8848 4.49121 26.0352 0l265.674 -146.438c20.5225 -11.3115 44.5098 6.95996 40.5898 30.918l-50.7402 310.162c-1.55469 9.51465 1.45312 19.2227 8.04688 25.9609
l214.933 219.657c16.6035 16.9678 7.44238 46.5312 -15.5029 50.0283l-297.031 45.252c-9.1123 1.3877 -16.9883 7.3877 -21.0635 16.0449l-132.837 282.193c-10.2617 21.7998 -39.9102 21.7998 -50.1719 0z" />
    <glyph glyph-name="Z" unicode="Z" 
d="M392.474 860.465c-42.4736 98.1328 -217.476 175.938 -309.281 119.518s-83.1943 -228.866 0.151367 -335.57c-83.3438 -126.71 -83.3447 -262.334 -83.3438 -342.016c0.00195312 -176.981 137.499 -227.547 199.998 -227.547c62.5 0 200.002 113.773 200.002 139.212
c0 9.9082 -6.64453 27.5068 -14.2031 47.5264c-11.8506 31.3867 -25.9473 68.7217 -20.2031 91.6875c9.40625 37.6133 67.2041 88.5898 134.406 88.5898s125 -50.9766 134.406 -88.5898c5.74414 -22.9658 -8.35254 -60.3008 -20.2031 -91.6875
c-7.55859 -20.0195 -14.2031 -37.6182 -14.2031 -47.5264c0 -25.4385 137.502 -139.212 200.002 -139.212s199.996 50.5654 199.998 227.547c0.00195312 79.6816 0 215.306 -83.3438 342.016c83.3457 106.704 91.957 279.15 0.150391 335.57
c-91.8047 56.4199 -266.807 -21.3848 -309.28 -119.518c-35.1709 1.94727 -71.3477 2.92188 -107.526 2.92188s-72.3555 -0.974609 -107.526 -2.92188zM262.498 479.38c-48.3252 0 -87.5 39.6182 -87.5 88.4902c0 48.8711 39.1748 88.4912 87.5 88.4912
c48.3271 0 87.502 -39.6201 87.502 -88.4912c0 -48.8721 -39.1748 -88.4902 -87.502 -88.4902zM737.502 479.38c-48.3271 0 -87.502 39.6182 -87.502 88.4902c0 48.8711 39.1748 88.4912 87.502 88.4912c48.3252 0 87.5 -39.6201 87.5 -88.4912
c0 -48.8721 -39.1748 -88.4902 -87.5 -88.4902zM425 125.415c-12.5 0 -25 0 -25 -33.3369c0 -55.9229 50 -93.0781 100 -93.0781s100 37.1553 100 93.0781c0 33.3369 -12.5 33.3369 -25 33.3369h-150zM500 239.345c26.8838 0 59.7363 15.5654 59.7363 83.6436
c0 24.2949 -22.0146 25.0098 -41.4834 25.6396c-6.28125 0.205078 -12.2676 0.306641 -18.2529 0.306641s-11.9717 -0.101562 -18.2529 -0.306641c-19.4688 -0.629883 -41.4834 -1.34473 -41.4834 -25.6396c0 -68.0781 32.8525 -83.6436 59.7363 -83.6436z" />
    <glyph glyph-name="bracketleft" unicode="[" 
d="M0 499v-100h150l100 -100v-100h100v100h100v-100h100v100h100v-100h100v100l100 100h150v100c0 276.144 -223.858 500 -500 500s-500 -223.856 -500 -500zM175 599c0 55.2285 44.7715 100 100 100s100 -44.7715 100 -100s-44.7715 -100 -100 -100s-100 44.7715 -100 100z
M625 599c0 55.2285 44.7715 100 100 100s100 -44.7715 100 -100s-44.7715 -100 -100 -100s-100 44.7715 -100 100zM350 199v-100h-200v200h-100v-200l100 -100h700l100 100v200h-100v-200h-200v100h-100v-100h-100v100h-100z" />
    <glyph glyph-name="backslash" unicode="\" 
d="M478.797 965.046l-121.75 -194.956c-4.40527 -7.05273 -12.0283 -11.4551 -20.3398 -11.7412l-229.711 -7.96191c-18.4717 -0.639648 -29.8867 -20.4102 -21.2051 -36.7266l107.962 -202.917c3.90527 -7.3418 3.90527 -16.1436 0 -23.4844l-107.962 -202.917
c-8.68164 -16.3164 2.7334 -36.0869 21.2051 -36.7266l229.711 -7.96191c8.31152 -0.288086 15.9346 -4.68848 20.3398 -11.7412l121.75 -194.957c9.79004 -15.6768 32.6182 -15.6768 42.4082 0l121.75 194.957c4.40527 7.05273 12.0283 11.4531 20.3379 11.7412
l229.712 7.96191c18.4717 0.639648 29.8867 20.4102 21.2051 36.7266l-107.962 202.917c-3.90625 7.34082 -3.90625 16.1426 0 23.4844l107.962 202.917c8.68164 16.3164 -2.7334 36.0869 -21.2051 36.7266l-229.712 7.96191
c-8.30957 0.286133 -15.9326 4.68848 -20.3379 11.7412l-121.75 194.956c-9.79004 15.6768 -32.6182 15.6768 -42.4082 0z" />
    <glyph glyph-name="bracketright" unicode="]" 
d="M0 649l500 -500l500 500l-200 200h-600zM500 274l-175 375h350z" />
    <glyph glyph-name="asciicircum" unicode="^" 
d="M75 624l-75 -75v-100l114.644 -114.644l-100.001 -100.001l70.71 -70.7119l100.003 100.001l139.645 -139.645h124.998v-75h100v75h125.002l139.644 139.644l99.998 -99.999l70.7119 70.7119l-99.998 99.999l114.645 114.645v100l-75 75l-75 -75l50 -50l-275 -275h-250
l-275 275l50 50z" />
    <glyph glyph-name="underscore" unicode="_" 
d="M476.43 950.43l-427.859 -427.859c-13.0176 -13.0166 -13.0176 -34.124 0 -47.1406l427.859 -427.859c13.0166 -13.0166 34.124 -13.0166 47.1406 0l427.859 427.859c13.0166 13.0166 13.0166 34.124 0 47.1406l-427.859 427.859
c-13.0166 13.0176 -34.124 13.0176 -47.1406 0z" />
    <glyph glyph-name="grave" unicode="`" 
d="M875 949h-750l-50 50h-75v-200h75l50 50h750l50 -50h75v200h-75zM125 749v-553.389l375 -196.611l375 196.611v553.389h-750z" />
    <glyph glyph-name="a" unicode="a" 
d="M150 324l-150 150v325l50 50h150l150 150h300l150 -150h150l50 -50v-325l-150 -150v-125l-200 -200h-300l-200 200v125z" />
    <glyph glyph-name="b" unicode="b" 
d="M337.5 949h325v-452.728h287.5l-450 -447.272l-450 447.272h287.5v452.728z" />
    <glyph glyph-name="c" unicode="c" 
d="M950 661.5v-325h-452.728v-287.5l-447.272 450l447.272 450v-287.5h452.728z" />
    <glyph glyph-name="d" unicode="d" 
d="M50 336.5v325h452.728v287.5l447.272 -450l-447.272 -450v287.5h-452.728z" />
    <glyph glyph-name="e" unicode="e" 
d="M337.5 49v452.728h-287.5l450 447.272l450 -447.272h-287.5v-452.728h-325z" />
    <glyph glyph-name="f" unicode="f" 
d="M394.995 873.79c-7.15332 -2.8584 -10.043 -11.4424 -6.07812 -18.0449l61.1992 -101.889c5.63086 -9.37109 19.7285 -7.51172 22.7354 3l40.7998 142.644c2.85742 9.9873 -7.00977 18.8994 -16.6562 15.0449zM640.151 834.203
c-3.20117 -0.856445 -5.93164 -2.9502 -7.58984 -5.81934l-139.911 -242.067c-5.57324 -9.6416 3.2959 -21.21 14.0547 -18.3301l409.491 109.602c3.20215 0.858398 5.93164 2.95215 7.59082 5.82031l69.9531 121.028c3.45605 5.98047 1.40625 13.6318 -4.57812 17.083
l-121.174 69.8818c-2.86816 1.65527 -6.27637 2.10352 -9.47656 1.24707zM7.88867 103.264l83.2734 -48.0254c5.97559 -3.44629 13.6143 -1.40039 17.0664 4.57324l126.809 219.396c3.45312 5.97363 11.0908 8.02051 17.0684 4.57324l123.135 -71.0146
c5.97656 -3.44629 13.6152 -1.40039 17.0664 4.57324l43.2129 74.7637c3.45703 5.98145 1.40723 13.6328 -4.57812 17.083l-74.8359 43.1602c-5.98535 3.45117 -8.03516 11.1035 -4.5791 17.083l67.9707 117.596c1.65918 2.87305 2.10938 6.29004 1.25 9.49414
l-72.4307 270.016c-2.88477 10.752 -17.3252 12.6553 -22.8945 3.0166l-166.936 -288.82c-3.45215 -5.97266 -11.0908 -8.01953 -17.0674 -4.57324l-74.8779 43.1836c-5.97656 3.44629 -13.6152 1.39941 -17.0674 -4.57227l-43.2119 -74.7646
c-3.45703 -5.97949 -1.40723 -13.6318 4.57715 -17.083l123.095 -70.9902c5.98438 -3.4502 8.03418 -11.1016 4.57715 -17.083l-131.646 -227.766c-0.371094 -0.641602 -0.47168 -1.40625 -0.279297 -2.12305c0.192383 -0.714844 0.661133 -1.32617 1.30273 -1.69629z
M527.455 402.74l6.4502 -223.317c0.319336 -11.0928 13.8613 -16.2979 21.5293 -8.27637l76.6592 80.1885c3.84473 4.02148 4.56836 10.1016 1.77441 14.9131l-83.1084 143.129c-6.50977 11.2109 -23.6777 6.32129 -23.3047 -6.63672zM811.935 338.677l109.228 137.9
c6.54004 8.25781 0.55957 20.4082 -9.97363 20.2598l-289.903 -4.04395c-11.96 -0.166016 -16.8789 -15.4209 -7.2666 -22.543l180.677 -133.855c5.41992 -4.0166 13.0498 -3.00586 17.2393 2.28223z" />
    <glyph glyph-name="g" unicode="g" 
d="M1000 739.495l-612.18 -615.495l-387.82 389.92l158.647 159.505l229.173 -230.412l453.532 455.987z" />
    <glyph glyph-name="h" unicode="h" 
d="M508.838 182.838l469.822 469.824c7.875 7.875 2.29688 21.3379 -8.83887 21.3379h-155.121c-3.31543 0 -6.49512 -1.31641 -8.83887 -3.66211l-297.023 -297.022c-4.88086 -4.88184 -12.7959 -4.88184 -17.6777 0l-297.023 297.022
c-2.34473 2.3457 -5.52539 3.66211 -8.83984 3.66211h-155.12c-11.1367 0 -16.7139 -13.4629 -8.83887 -21.3379l469.822 -469.824c4.88184 -4.87988 12.7969 -4.87988 17.6777 0zM491.16 815.162l-132.322 -132.324c-4.88086 -4.87988 -4.88086 -12.7949 0 -17.6758
l132.322 -132.324c4.88184 -4.87988 12.7969 -4.87988 17.6777 0l132.322 132.324c4.88184 4.88086 4.88184 12.7959 0 17.6758l-132.322 132.324c-4.88086 4.88086 -12.7959 4.88086 -17.6777 0z" />
    <glyph glyph-name="i" unicode="i" 
d="M183.842 490.162l469.821 -469.822c7.875 -7.875 21.3389 -2.29785 21.3389 8.83887v155.119c0 3.31738 -1.31738 6.49512 -3.66016 8.84082l-297.025 297.023c-4.88184 4.88086 -4.88184 12.7959 0 17.6777l297.025 297.023
c2.34277 2.34375 3.66016 5.52344 3.66016 8.83887v155.121c0 11.1357 -13.4639 16.7129 -21.3389 8.83887l-469.821 -469.822c-4.88184 -4.88184 -4.88184 -12.7969 0 -17.6777zM666.16 640.162l-132.323 -132.324c-4.88184 -4.88086 -4.88184 -12.7949 0 -17.6758
l132.323 -132.324c4.88184 -4.88086 12.7949 -4.88086 17.6768 0l132.323 132.324c4.88184 4.88086 4.88184 12.7949 0 17.6758l-132.323 132.324c-4.88184 4.88086 -12.7949 4.88086 -17.6768 0z" />
    <glyph glyph-name="j" unicode="j" 
d="M816.16 507.84l-469.823 469.821c-7.875 7.875 -21.3389 2.29785 -21.3389 -8.83887v-155.12c0 -3.31543 1.31738 -6.49512 3.66211 -8.83887l297.023 -297.023c4.88184 -4.88184 4.88184 -12.7969 0 -17.6777l-297.023 -297.023
c-2.34473 -2.3457 -3.66211 -5.52344 -3.66211 -8.84082v-155.119c0 -11.1367 13.4639 -16.7139 21.3389 -8.83887l469.823 469.822c4.87988 4.88086 4.87988 12.7959 0 17.6777zM316.16 640.162l-132.323 -132.322c-4.88184 -4.88184 -4.88184 -12.7969 0 -17.6777
l132.323 -132.322c4.88184 -4.88184 12.7949 -4.88184 17.6768 0l132.323 132.322c4.88184 4.88086 4.88184 12.7959 0 17.6777l-132.323 132.322c-4.88184 4.88086 -12.7949 4.88086 -17.6768 0z" />
    <glyph glyph-name="k" unicode="k" 
d="M491.16 815.162l-469.822 -469.824c-7.875 -7.87305 -2.29785 -21.3379 8.83887 -21.3379h155.12c3.31445 0 6.49512 1.31641 8.83984 3.66211l297.023 297.022c4.88184 4.88184 12.7969 4.88184 17.6777 0l297.023 -297.022
c2.34375 -2.3457 5.52344 -3.66211 8.83887 -3.66211h155.121c11.1357 0 16.7139 13.4648 8.83887 21.3379l-469.822 469.824c-4.88086 4.88086 -12.7959 4.88086 -17.6777 0zM491.16 465.162l-132.322 -132.324c-4.88086 -4.88086 -4.88086 -12.7949 0 -17.6758
l132.322 -132.324c4.88184 -4.88086 12.7969 -4.88086 17.6777 0l132.322 132.324c4.88184 4.88086 4.88184 12.7949 0 17.6758l-132.322 132.324c-4.88086 4.88086 -12.7959 4.88086 -17.6777 0z" />
    <glyph glyph-name="l" unicode="l" 
d="M600 924l125 -125v-200l-125 -125h75l225 -225v-175h-800v175l225 225h75l-125 125v200l125 125h200z" />
    <glyph glyph-name="m" unicode="m" 
d="M608.688 241.446c2.0332 -3.52832 2.85645 -7.50488 2.58301 -11.3848c-0.561523 -7.94629 -5.73145 -15.5 -14.585 -18.0303l-177.573 -50.7344c-14.7861 -4.22559 -19.5938 -22.7783 -8.71973 -33.6523l52.2285 -52.2275
c4.60938 -4.61035 11.1631 -6.70703 17.5928 -5.62988l269.528 45.1729c4.17188 0.700195 8.42188 0.0654297 12.1631 -1.75781c1.24707 -0.607422 2.43848 -1.34668 3.55176 -2.21191l138.523 -107.742c1.00488 -0.779297 2.06055 -1.45117 3.15527 -2.0166
c1.25 -0.643555 2.54785 -1.14648 3.875 -1.51172c4.48535 -1.23145 9.28516 -0.875977 13.5449 1.01562c2.20703 0.981445 4.27051 2.37305 6.06641 4.1709l63.4707 63.4688c7.19141 7.19336 7.90332 18.6152 1.6582 26.6416l-107.742 138.525
c-3.46289 4.45312 -4.90332 10.1514 -3.96973 15.7148l45.1719 269.528c1.07812 6.42969 -1.01855 12.9834 -5.62891 17.5928l-36.1895 36.1904l-68.7656 -59.4404l-31.6611 -110.814c-4.50684 -15.7715 -24.9551 -19.8535 -35.1699 -7.01855l-29.7168 34.3779
l-164.735 -142.396l46.3604 -40.0732c2.11133 -1.67969 3.76465 -3.6377 4.9834 -5.75684zM234.412 600.491l12.9297 -45.25l22.8828 -19.7812l180.209 208.479l-213.896 247.453c-3.82715 4.80762 -9.63672 7.6084 -15.7803 7.6084h-200.59
c-11.1377 0 -20.167 -9.0293 -20.167 -20.167v-200.59c0 -6.14355 2.80078 -11.9531 7.6084 -15.7803l111.016 -95.9609c47.3672 12.3965 100.77 -13.4434 115.788 -66.0107zM779.243 999c-6.14355 0 -11.9531 -2.80078 -15.7803 -7.6084l-515.26 -596.097
c-10.2148 -12.835 -30.6631 -8.75293 -35.1699 7.01855l-50.7354 177.573c-4.22461 14.7861 -22.7783 19.5938 -33.6514 8.71973l-52.2295 -52.2285c-4.60938 -4.60938 -6.70703 -11.1631 -5.62891 -17.5928l45.1719 -269.528
c0.932617 -5.56348 -0.507812 -11.2617 -3.9707 -15.7148l-107.741 -138.525c-6.24414 -8.02637 -5.5332 -19.4482 1.65918 -26.6416l63.4688 -63.4688c7.19141 -7.19141 18.6133 -7.90332 26.6416 -1.6582l138.524 107.742
c54.5215 42.4043 95.1494 83.2012 161.753 136.213l596.097 515.26c4.80859 3.82715 7.6084 9.63672 7.6084 15.7803v200.59c0 11.1377 -9.02832 20.167 -20.167 20.167h-200.59z" />
    <glyph glyph-name="n" unicode="n" 
d="M500 668.688l280.325 280.312l169.675 -169.707l-280.305 -280.293l280.305 -280.293l-169.675 -169.707l-280.325 280.312l-280.324 -280.312l-169.676 169.707l280.305 280.293l-280.305 280.293l169.676 169.707z" />
    <glyph glyph-name="o" unicode="o" 
d="M893.858 754.11c8.19336 4.93164 8.04004 16.8633 -0.27832 21.5811l-387.412 219.809c-3.82422 2.1709 -8.51172 2.1709 -12.3359 0l-374.543 -212.507c-8.31738 -4.71777 -8.4707 -16.6484 -0.27832 -21.5801l387.043 -232.99
c3.96582 -2.38574 8.92676 -2.38574 12.8926 0zM950 647.243c0 9.72363 -10.6152 15.7236 -18.9463 10.709l-362.5 -218.216c-3.75684 -2.25977 -6.05371 -6.32422 -6.05371 -10.708v-394.38c0 -9.58008 10.335 -15.6006 18.668 -10.8721l362.5 205.674
c3.91406 2.21973 6.33203 6.37305 6.33203 10.8711v406.922zM443.832 9.5918c8.33301 -4.72852 18.668 1.29199 18.668 10.8711v408.565c0 4.38379 -2.29688 8.44824 -6.05371 10.708l-387.5 233.266c-8.33105 5.01465 -18.9463 -0.985352 -18.9463 -10.71v-421.971
c0 -4.49805 2.41797 -8.65137 6.33105 -10.8711z" />
    <glyph glyph-name="p" unicode="p" 
d="M300 624v325l50 50h75l50 -50v-275l-50 -50h-125zM25 824l50 50h75l50 -50v-200h-175v200zM0 474l50 50h375l50 -50v-75l-50 -50h-150v-100h200l100 100h375l50 -50v-225l-75 -75h-800l-125 125v350zM575 503.168v441.666l50 54.166h75l50 -54.166v-441.666l-50 -54.168
h-75zM875 449l-50 50v250l50 50h75l50 -50v-250l-50 -50h-75z" />
    <glyph glyph-name="q" unicode="q" 
d="M0 924h240.477l259.523 -259.525l259.525 259.525h240.475l-500 -500zM0 549h240.477l259.523 -259.525l259.525 259.525h240.475l-500 -500z" />
    <glyph glyph-name="r" unicode="r" 
d="M100 230.428l400 218.572l400 -218.572l-400 -231.428zM400 949l100 50l100 -50v-225h200l-300 -175l-300 175h200v225z" />
    <glyph glyph-name="s" unicode="s" 
d="M0 572.17l426.83 426.83h125.54l200.86 -200.861v-125.539l-142.4 -142.399l389.17 -389.17l-142.03 -142.03l-389.17 389.17l-142.399 -142.4h-125.539l-200.861 200.86v125.54z" />
    <glyph glyph-name="t" unicode="t" 
d="M631.033 723.493c-75.2285 66.9014 -110.113 201.2 -123.71 270.813c-1.22168 6.25781 -13.4248 6.25781 -14.6465 0c-13.5967 -69.6133 -48.4814 -203.912 -123.71 -270.813c-70.5654 -62.7549 -207.813 -93.9414 -289.162 -107.545
c-6.53027 -1.0918 -6.34766 -15.5264 0.205078 -16.4854c82.8262 -12.1143 222.969 -41.8115 288.957 -109.026c72.0664 -73.4062 96.46 -113.956 72.373 -209.02c-18.54 -73.1699 -61.6279 -89.8369 -135.922 -100.983
c-6.36133 -0.955078 -6.24316 -11.5889 0.119141 -12.5391c44.8564 -6.69629 108.946 -20.251 137.136 -45.3193c25.417 -22.6035 40.3076 -87.792 48.5107 -118.95c1.62305 -6.16699 16.0098 -6.16699 17.6328 0c8.20312 31.1582 23.0938 96.3467 48.5107 118.95
c28.1895 25.0684 92.2793 38.623 137.136 45.3193c6.3623 0.950195 6.48047 11.584 0.119141 12.5391c-74.2939 11.1465 -117.382 27.8135 -135.922 100.983c-24.0869 95.0635 0.306641 135.613 72.373 209.02c65.9883 67.2148 206.13 96.9121 288.957 109.026
c6.55273 0.958984 6.73633 15.3936 0.205078 16.4854c-81.3486 13.6035 -218.597 44.79 -289.162 107.545z" />
    <glyph glyph-name="u" unicode="u" 
d="M350 949l50 50h200l50 -50v-550l-50 -50h-200l-50 50v550zM650 49l-50 -50h-200l-50 50v150l50 50h200l50 -50v-150z" />
    <glyph glyph-name="v" unicode="v" 
d="M550 774h-100v175h100v-175zM275 549v-168.75l131.25 -131.25h187.5l131.25 131.25v168.75h200l75 -75v-100l-325 -325h-350l-325 325v100l75 75h200zM400 549h200l25 -28.125v-93.75l-78.125 -78.125h-93.75l-78.125 78.125v93.75zM85.3555 834.356l100 -100.001
l-70.7109 -70.7109l-100 100.001zM885.355 663.645l-70.7109 70.7109l100 99.999l70.7109 -70.7109z" />
    <glyph glyph-name="w" unicode="w" 
d="M437.943 940.051c-22.0488 -5.56348 -41.9551 -13.29 -53.8916 -18.5566c-4.54297 -2.00488 -9.95996 -0.192383 -12.1582 4.24609l-4.87207 9.83691c-2.44824 4.94238 -6.44629 8.74707 -9.66016 11.1201c-2.18945 1.61816 -4.99805 1.68457 -7.46484 0.52832
c-67.9863 -31.8633 -173.59 -98.8193 -248.542 -189.949c28.1094 8.58008 52.6104 -45.7764 23.6455 -95.7764c-36.2061 -62.5 -87.5 -62.5 -98.6328 -36.5801c-8.93066 -27.9951 -13.9561 -57.2432 -13.9561 -87.5645c0 -200.639 228.608 -268.686 348.617 -291.58
c3.65332 -0.698242 7.25488 1.00098 9.30664 4.09473c0.770508 1.16309 1.60547 2.40527 2.47852 3.70508c4.87695 7.26172 11.1436 16.5928 16.3711 26.8936c4.73047 9.31836 8.09375 16.7197 10.332 22.4277c1.86133 4.74805 7.06836 7.63184 11.9688 6.16016
c15.4443 -4.63867 37.1992 -10.6904 53.0527 -10.6904h35.4639h35.46c15.8535 0 37.6084 6.05176 53.0527 10.6904c4.90039 1.47168 10.1074 -1.41211 11.9688 -6.16016c2.23828 -5.70801 5.60156 -13.1094 10.332 -22.4277
c5.22949 -10.3008 11.4941 -19.6318 16.3711 -26.8936c0.873047 -1.2998 1.70801 -2.54199 2.47852 -3.70508c2.05176 -3.09375 5.65332 -4.79297 9.30859 -4.09473c120.007 22.8945 348.614 90.9414 348.614 291.58c0 30.3213 -5.02441 59.5693 -13.9541 87.5645
c-11.1338 -25.9199 -62.4268 -25.9199 -98.6338 36.5801c-28.9648 50 -4.46484 104.356 23.6465 95.7764c-74.9531 91.1299 -180.557 158.086 -248.543 189.949c-2.4668 1.15625 -5.27539 1.08984 -7.46484 -0.52832c-3.21387 -2.37305 -7.21191 -6.17773 -9.66016 -11.1201
l-4.87207 -9.83691c-2.19824 -4.43848 -7.61523 -6.25098 -12.1582 -4.24609c-11.9365 5.2666 -31.8428 12.9932 -53.8916 18.5566c-28.3682 7.15918 -53.1904 8.94922 -62.0566 8.94922s-33.6885 -1.79004 -62.0566 -8.94922zM337.5 849
c35.3203 -19.8535 41.0254 -78.583 19.8613 -115.116c-21.1631 -36.5322 -70.3359 -68.1953 -107.361 -47.3838s-35.3447 58.4951 -30.3047 85.335c0.142578 -14.2764 5.97656 -26.6621 16.9883 -32.8496c19.1377 -10.7588 46.6748 1.27344 61.5029 26.8711
c14.8301 25.5986 11.3369 55.0703 -7.80273 65.8281c-10.4893 5.89648 -23.5 4.94727 -35.5605 -1.3291c20.4668 16.3887 63.665 29.3301 82.6768 18.6445zM236.684 611.5c38.3164 0 63.3164 -37.5 75.8164 -87.5s0 -122.594 -50 -125
c-70.8379 -3.4082 -92.708 40.8682 -103.979 71.2314c8.55762 -17.1152 23.9248 -28.1367 40.6777 -27.04c24.1953 1.58691 42.123 27.8516 40.042 58.667c-2.08203 30.8145 -23.3838 54.5098 -47.5781 52.9248c-20.7119 -1.3584 -36.832 -20.8018 -39.7373 -45.7012
c0.521484 43.7275 23.0752 102.418 84.7588 102.418zM662.5 849c19.0117 10.6855 62.21 -2.25586 82.6768 -18.6445c-12.0605 6.27637 -25.0713 7.22559 -35.5605 1.3291c-19.1396 -10.7578 -22.6328 -40.2295 -7.80273 -65.8281
c14.8281 -25.5977 42.3652 -37.6299 61.5029 -26.8711c11.0117 6.1875 16.8457 18.5732 16.9883 32.8496c5.04004 -26.8398 6.7207 -64.5234 -30.3047 -85.335s-86.1982 10.8516 -107.361 47.3838c-21.1641 36.5332 -15.459 95.2627 19.8613 115.116zM763.316 611.5
c61.6836 0 84.2373 -58.6904 84.7588 -102.418c-2.90527 24.8994 -19.0254 44.3428 -39.7373 45.7012c-24.1943 1.58496 -45.4961 -22.1104 -47.5781 -52.9248c-2.08008 -30.8154 15.8467 -57.0801 40.042 -58.667c16.7529 -1.09668 32.1201 9.9248 40.6787 27.04
c-11.2725 -30.3633 -33.1426 -74.6396 -103.98 -71.2314c-50 2.40625 -62.5 75 -50 125s37.5 87.5 75.8164 87.5zM464.285 210.778c-7.1416 0 -29.7617 5.92969 -40.1787 8.89453l-31.25 -62.2598c-56.5469 0 -175.21 21.1465 -263.393 93.3906
c-81.9199 67.1133 -108.631 115.824 -116.071 139.543c-4.46387 -5.92969 -13.3926 -21.3467 -13.3926 -35.5771c0 -17.7891 35.7139 -86.1777 111.607 -157.331c75.8926 -71.1553 138.393 -106.731 209.821 -133.415c57.1426 -21.3447 142.856 -35.5771 178.571 -40.0234
c35.7148 4.44629 121.429 18.6787 178.571 40.0234c71.4287 26.6836 133.929 62.2598 209.822 133.415c75.8916 71.1533 111.606 139.542 111.606 157.331c0 14.2305 -8.92871 29.6475 -13.3936 35.5771c-7.43945 -23.7188 -34.1494 -72.4297 -116.071 -139.543
c-88.1816 -72.2441 -206.845 -93.3906 -263.392 -93.3906l-31.25 62.2598c-10.417 -2.96484 -33.0371 -8.89453 -40.1787 -8.89453h-71.4297zM62.5508 757.892c-12.9932 7.30371 -35.5488 -7.52832 -50.3779 -33.127c-14.8291 -25.5977 -16.3164 -52.2695 -3.32324 -59.5742
c12.9941 -7.30371 35.5488 7.52832 50.3779 33.126c14.8291 25.5986 16.3174 52.2705 3.32324 59.5752zM937.448 757.892c-12.9932 -7.30469 -11.5049 -33.9766 3.32324 -59.5752c14.8301 -25.5977 37.3848 -40.4297 50.3789 -33.126
c12.9932 7.30469 11.5059 33.9766 -3.32324 59.5742c-14.8291 25.5986 -37.3838 40.4307 -50.3789 33.127z" />
    <glyph glyph-name="x" unicode="x" 
d="M350 649v300l50 50h200l50 -50v-300h300l50 -50v-200l-50 -50h-300v-300l-50 -50h-200l-50 50v300h-300l-50 50v200l50 50h300z" />
    <glyph glyph-name="y" unicode="y" 
d="M0 49l500 500l500 -500h-240.475l-259.525 259.525l-259.523 -259.525h-240.477zM0 424l500 500l500 -500h-240.475l-259.525 259.525l-259.523 -259.525h-240.477z" />
    <glyph glyph-name="z" unicode="z" 
d="M550 624v375h150l150 -150v-225h-300zM750 724v83.5791l-91.4229 91.4209h-8.57715v-175h100zM150 524h700v-375l-150 -150h-400l-150 150v375zM250 190.423l91.4229 -91.4229h317.154l91.4229 91.4229v233.577h-500v-233.577zM150 849l150 150h150v-375h-300v225z" />
    <glyph glyph-name="braceleft" unicode="{" 
d="M653.138 899l126.862 -126.863v-213.137h40l80 -80v-300l-80 -80h-640l-80 80v300l80 80h40v213.137l126.862 126.863h306.275zM620 559v146.862l-33.1377 33.1377h-173.725l-33.1377 -33.1377v-146.862h240z" />
    <glyph glyph-name="bar" unicode="|" 
d="M875 599v-200h-750v200h750z" />
    <glyph glyph-name="braceright" unicode="}" 
d="M137.491 449h230.49c16.2637 0 28.1982 -15.2852 24.2539 -31.0635l-88.8018 -355.205c-2.12988 -8.51855 0.366211 -17.5312 6.57617 -23.7402l21.5732 -21.5742c9.59668 -9.59668 25.0957 -9.78516 34.9219 -0.425781l513.248 488.907
c16.3389 15.5645 5.32422 43.1016 -17.2432 43.1016h-230.49c-16.2646 0 -28.1982 15.2852 -24.2529 31.0635l88.7998 355.204c2.12988 8.51953 -0.364258 17.5322 -6.5752 23.7412l-21.5742 21.5752c-9.59668 9.5957 -25.0957 9.78418 -34.9199 0.423828l-513.249 -488.906
c-16.3398 -15.5645 -5.32324 -43.1016 17.2432 -43.1016z" />
    <glyph glyph-name="asciitilde" unicode="~" 
d="M706.778 989.568l-390.812 -491.021c-12.6631 -15.9092 -38.0137 -10.8516 -43.5986 8.7002l-62.8945 220.13c-5.2373 18.3291 -28.2373 24.2891 -41.7148 10.8086l-64.7461 -64.7451c-5.71484 -5.71484 -8.31445 -13.8379 -6.97852 -21.8096l55.998 -334.118
c1.15625 -6.89746 -0.628906 -13.9619 -4.92285 -19.4824l-133.561 -171.722c-7.74023 -9.95117 -6.85938 -24.1094 2.05664 -33.0244l78.6787 -78.6797c8.91504 -8.91504 23.0742 -9.79688 33.0264 -2.05566l171.721 133.561
c5.52051 4.29297 12.585 6.07812 19.4805 4.92285l334.12 -55.998c7.96973 -1.33496 16.0947 1.2627 21.8096 6.97852l64.7451 64.7451c13.4785 13.4795 7.51855 36.4795 -10.8096 41.7158l-220.129 62.8936c-19.5518 5.58691 -24.6094 30.9355 -8.7002 43.5986
l491.021 390.812c5.95801 4.74316 9.43164 11.9453 9.43164 19.5615v248.66c0 13.8066 -11.1934 25 -25 25h-248.66c-7.61621 0 -14.8184 -3.47168 -19.5615 -9.43164z" />
    <glyph glyph-name="uni007F" 
d="M528.662 352.662l-19.8242 -19.8242c-4.88086 -4.88086 -12.7949 -4.88086 -17.6758 0l-19.8242 19.8242c-7.87305 7.87305 -21.3379 2.2959 -21.3379 -8.84082v-89.6426c0 -3.31738 1.31641 -6.49512 3.66211 -8.84082l37.5 -37.5
c4.88086 -4.88086 12.7949 -4.88086 17.6758 0l37.5 37.5c2.3457 2.3457 3.66211 5.52344 3.66211 8.84082v89.6426c0 11.1367 -13.4648 16.7139 -21.3379 8.84082zM546.338 752.662l-37.5 37.5c-4.88086 4.88086 -12.7949 4.88086 -17.6758 0l-37.5 -37.5
c-2.3457 -2.3457 -3.66211 -5.52344 -3.66211 -8.84082v-89.6426c0 -11.1367 13.4648 -16.7139 21.3379 -8.84082l19.8242 19.8242c4.88086 4.88086 12.7949 4.88086 17.6758 0l19.8242 -19.8242c7.87305 -7.87305 21.3379 -2.2959 21.3379 8.84082v89.6426
c0 3.31738 -1.31641 6.49512 -3.66211 8.84082zM400.628 995.339l-146.966 -146.967c-2.3457 -2.34473 -3.66211 -5.52344 -3.66211 -8.83887v-681.066c0 -3.31543 1.31641 -6.49512 3.66211 -8.83887l146.966 -146.966c2.34375 -2.3457 5.52344 -3.66211 8.83887 -3.66211
h181.066c3.31543 0 6.49512 1.31641 8.83887 3.66211l146.966 146.966c2.3457 2.34375 3.66211 5.52344 3.66211 8.83887v681.066c0 3.31543 -1.31641 6.49414 -3.66211 8.83887l-146.966 146.967c-2.34375 2.34375 -5.52344 3.66113 -8.83887 3.66113h-181.066
c-3.31543 0 -6.49512 -1.31738 -8.83887 -3.66113zM450.889 899h98.2227c3.31543 0 6.49512 -1.31738 8.83887 -3.66113l88.3877 -88.3887c2.3457 -2.34375 3.66211 -5.52344 3.66211 -8.83887v-598.223c0 -3.31543 -1.31641 -6.49512 -3.66211 -8.83887l-88.3877 -88.3877
c-2.34375 -2.3457 -5.52344 -3.66211 -8.83887 -3.66211h-98.2227c-3.31543 0 -6.49512 1.31641 -8.83887 3.66211l-88.3877 88.3877c-2.3457 2.34375 -3.66211 5.52344 -3.66211 8.83887v598.223c0 3.31543 1.31641 6.49512 3.66211 8.83887l88.3877 88.3887
c2.34375 2.34375 5.52344 3.66113 8.83887 3.66113z" />
    <glyph glyph-name="uni0080" 
d="M700 899l200 -200l-102.145 -102.145l-200 200zM527.145 726.145l200 -200l-304.289 -304.289l-200 200zM352.145 151.145l-52.1445 -52.1445h-200v200l52.1445 52.1445z" />
    <glyph glyph-name="uni0081" 
d="M600 874v-275h275v-200h-275v-275h-200v275h-275v200h275v275h200z" />
    <glyph glyph-name="uni0082" 
d="M650 49l-50 -50h-200l-50 50v150l50 50h200l50 -50v-150zM200 999h600l150 -150v-250l-125 -125h-175v-75l-50 -50h-200l-50 50v175l100 100h200v125h-300v-125l-50 -50h-200l-50 50v175z" />
    <glyph glyph-name="uni0083" 
d="M750 999l250 -250v-500l-250 -250h-500l-250 250v500l250 250h500zM650 799h-300l-150 -150v-300l150 -150h300l150 150v300zM400 699h200l100 -100v-200l-100 -100h-200l-100 100v200z" />
    <glyph glyph-name="uni0084" 
d="M400 699v300h200v-300h-200zM400 -1v300h200v-300h-200zM400 399v200h200v-200h-200zM0 399v200h300v-200h-300zM700 399v200h300v-200h-300z" />
    <glyph glyph-name="uni0086" 
d="M188.78 870.8l154.268 -74.501l-27.583 -25.8438l102.11 -103.47l4.37012 -3.87988l-90.0576 -78.4102l-0.998047 1.06445l-102.106 103.473l-27.5811 -25.8447l-75.4639 148.341zM607.173 290.42l-28.0508 29.9873l-1.34961 93.4629h97.3896v24.6602l46.2754 -41.043
l129.01 -130.732c37.8906 -38.3945 -5.60449 -86.5371 -17.4248 -97.6123c-11.8203 -11.0771 -62.7402 -44.0098 -96.8379 -9.45508zM535.022 335.987l-111.747 2.58789l-137.153 150.7l436.683 377.595l102.948 -81.0635l1.55469 -97.8662l-111.748 2.58496
l8.77539 -105.801l-100.917 -9.30957l7.8291 -120.787l-100.447 -1.81836zM133.54 272.298c-21.6562 23.7949 -14.7432 72.29 17.9053 100.522l106.109 91.752l137.152 -150.7l-2.52441 -101.397l-53.0547 -45.875c-36.7305 -31.7617 -86.4834 -25.1748 -104.529 -5.34473z
M194.826 325.425l101.209 -111.175l53.1328 45.9297l-101.209 111.176z" />
    <glyph glyph-name="uni0087" 
d="M500 549l-400 231.429l400 218.571l400 -218.571zM256.162 590.76l243.838 -141.76l243.838 141.76l156.162 -85.3301l-400 -231.43l-400 231.43zM256.16 315.758l243.84 -141.758l243.84 141.758l156.16 -85.3301l-400 -231.428l-400 231.428z" />
    <glyph glyph-name="uni0088" 
d="M346.862 999h306.275l126.862 -126.863v-313.137h40l80 -80v-300l-80 -80h-640l-80 80v300l80 80h40h160h240v246.863l-33.1377 33.1367h-173.725l-33.1377 -33.1367v-144.363h-160v210.637z" />
    <glyph glyph-name="uni0089" 
d="M804.213 831.026c12.4619 5.34082 25.8369 13.6797 33.4375 6.08008c7.59961 -7.60059 -0.738281 -20.9766 -6.08008 -33.4385c-1.81055 -4.22656 -27.2705 -58.998 -54.0078 -116.66l-65.7051 24.3799l-24.3174 65.623c57.667 26.7402 112.445 52.2041 116.673 54.0156z
M195.333 167.433c-12.4619 -5.33984 -25.8389 -13.6777 -33.4385 -6.07715c-7.59961 7.59668 0.739258 20.9746 6.08008 33.4375c1.81055 4.22461 27.2705 58.9971 54.0088 116.659l65.7041 -24.3799l24.3174 -65.6221
c-57.667 -26.7402 -112.445 -52.2051 -116.672 -54.0176zM804.213 167.433c-4.22754 1.8125 -59.0059 27.2773 -116.673 54.0176l24.3174 65.6221l65.7051 24.3799c26.7373 -57.6621 52.1973 -112.435 54.0078 -116.659c5.3418 -12.4629 13.6797 -25.8408 6.08008 -33.4375
c-7.60059 -7.60059 -20.9756 0.737305 -33.4375 6.07715zM161.895 837.106c7.59961 7.59961 20.9766 -0.739258 33.4385 -6.08008c4.22656 -1.81152 59.0049 -27.2754 116.672 -54.0156l-24.3174 -65.623l-65.7041 -24.3799
c-26.7383 57.6621 -52.1982 112.434 -54.0088 116.66c-5.34082 12.4619 -13.6797 25.8379 -6.08008 33.4385zM500 999c12.1348 0 16.1572 -17.3379 21.8447 -31.5537c4.03027 -10.0781 101.942 -279.126 109.223 -296.116
c2.42773 -8.08984 9.70996 -26.7002 12.1377 -29.125c2.4248 -2.42773 21.0352 -9.70996 29.125 -12.1377c16.9902 -7.28027 286.037 -105.192 296.117 -109.223c14.2148 -5.6875 31.5527 -9.70996 31.5527 -21.8447s-17.3379 -16.1572 -31.5527 -21.8447
c-10.0801 -4.03027 -279.127 -101.942 -296.117 -109.223c-8.08984 -2.42773 -26.7002 -9.70996 -29.125 -12.1377c-2.42773 -2.4248 -9.70996 -21.0352 -12.1377 -29.125c-7.28027 -16.9902 -105.192 -286.037 -109.223 -296.117
c-5.6875 -14.2148 -9.70996 -31.5527 -21.8447 -31.5527s-16.1572 17.3379 -21.8447 31.5527c-4.03027 10.0801 -101.942 279.127 -109.223 296.117c-2.42773 8.08984 -9.70996 26.7002 -12.1377 29.125c-2.4248 2.42773 -21.0352 9.70996 -29.125 12.1377
c-16.9902 7.28027 -286.038 105.192 -296.116 109.223c-14.2158 5.6875 -31.5537 9.70996 -31.5537 21.8447s17.3379 16.1572 31.5537 21.8447c10.0781 4.03027 279.126 101.942 296.116 109.223c8.08984 2.42773 26.7002 9.70996 29.125 12.1377
c2.42773 2.4248 9.70996 21.0352 12.1377 29.125c7.28027 16.9902 105.192 286.038 109.223 296.116c5.6875 14.2158 9.70996 31.5537 21.8447 31.5537z" />
    <glyph glyph-name="uni008A" 
d="M422.74 806.016c-42.458 48.1387 -58.3506 105.348 -62.5156 143.721c-1.47949 13.626 9.87305 24.4902 23.5752 24.2598l67.7031 -1.1377c13.9072 -0.233398 25.3594 -11.8613 28.4492 -25.4229c4.29004 -18.834 13.5781 -43.667 31.8477 -64.3809
c8.19531 -9.29297 22.7051 -4.13379 28.0352 7.05176c23.5898 49.5078 71.7852 75.8311 172.683 46.8438c309.225 -88.8398 287.78 -537.288 221.938 -659.123c-82.3076 -152.297 -240.688 -253.827 -399.771 -253.827c-135.125 0 -261.625 36.6279 -325.175 140.99
c-10.5586 17.3398 -34.5293 18.4668 -38.1426 -1.50977c-2.4541 -13.5703 -3.42383 -28.3379 -3.09668 -43.8281c0.444336 -21.0146 3.21582 -40.585 6.09082 -55.6475c2.62988 -13.7803 -5.53027 -27.6729 -19.1553 -31.0146l-65.6777 -16.1201
c-13.1953 -3.2373 -26.6123 4.63281 -29.4248 17.9248c-4.42285 20.9023 -9.31152 50.9004 -10.0166 84.2354c-1.03027 48.7002 6.64941 113.64 47.7637 166.064c21.083 26.8799 49.873 42.0674 76.8262 50.75c7.82422 2.52051 14.21 8.28809 17.4551 15.8379
c46.1777 107.439 176.011 199.6 268.988 218.045c49.8604 9.88965 52.082 81.3203 54.5176 159.57c0.189453 6.13184 -3.2002 11.8018 -8.62793 14.665c-30.1719 15.916 -61.7793 36.5527 -84.2695 62.0527z" />
    <glyph glyph-name="uni008B" 
d="M374.439 974.606l66.0508 -1.11035c13.5684 -0.228516 24.7412 -11.5723 27.7539 -24.8027c4.18555 -18.375 13.249 -42.6025 31.0732 -62.8105c12.0293 -13.6396 36.7773 -29.6445 68.9756 -44.6553c17.4951 -8.15625 35.127 -15.082 50.4561 -20.4707
c5.13867 -1.80566 10.7217 -1.67871 15.9434 -0.124023c16.7686 4.99414 35.3096 7.63574 55.7393 7.63574c106.062 0 177.951 -60.7549 212.044 -142.308c33.0557 -79.0752 31.7852 -178.202 0.297852 -269.541c-64.0908 -185.918 -223.154 -295.469 -433.891 -295.469
c-98.2021 0 -178.688 14.3711 -235.631 51.9023c-9.10059 5.99805 -17.418 12.459 -24.9844 19.3516c-11.7979 10.749 -30.748 10.3779 -35.8789 -4.73438c-6.19824 -18.2559 -8.71484 -39.8828 -8.22266 -63.1904c0.433594 -20.5 3.1377 -39.5928 5.94238 -54.29
c2.56543 -13.4443 -5.39551 -26.9951 -18.6875 -30.2588l-64.0762 -15.7246c-12.873 -3.16016 -25.9629 4.51953 -28.707 17.4883c-4.31543 20.3906 -9.08496 49.6582 -9.77246 82.1777c-1.00488 47.5146 6.4873 110.871 46.5996 162.015
c10.71 13.6562 23.459 24.2197 36.9316 32.4023c8.58789 5.21777 14.0947 14.4951 13.9688 24.542c-0.015625 1.24902 -0.0234375 2.50195 -0.0234375 3.75879c0 41.1826 13.6377 75.041 39.8799 100.733c24.3926 23.8828 55.832 36.8125 83.7715 45.459
c19.5527 6.05078 41.8604 11.1973 62.2969 15.9121c8.05859 1.8584 15.8291 3.65137 23.0244 5.40723c27.6494 6.73926 51.3906 13.8242 71.251 23.8828c21.4658 10.8711 36.625 28.0811 49.5928 52.3486c10.8906 20.3779 18.6055 42.2129 27.4736 67.3027
l0.00683594 0.0244141c2.41016 6.81934 4.90527 13.8779 7.57129 21.2148c4.3584 11.9854 9.25391 24.9238 15.1631 37.9775c3.69727 8.16895 0.226562 17.9346 -7.89746 21.7227c-35.5732 16.585 -78.0508 40.6045 -106.046 72.3467
c-41.4229 46.9648 -56.9277 102.777 -60.9932 140.216c-1.44141 13.293 9.63184 23.8926 23.0029 23.668z" />
    <glyph glyph-name="uni008C" 
d="M383.8 973.996l67.7031 -1.1377c13.9072 -0.234375 25.3594 -11.8623 28.4473 -25.4229c4.29004 -18.834 13.5801 -43.668 31.8496 -64.3818c12.3301 -13.9795 37.6973 -30.3848 70.7002 -45.7705c13 -6.06055 26.0723 -11.458 38.2676 -16.0732
c7.8252 -2.96191 16.5273 -1.45996 23.6621 2.91113c8.92285 5.4668 19.21 10.5146 31.0801 15.0938c167.123 64.4756 232.085 -204.143 184.09 -382.085c-47.9922 -177.939 -194.317 -308.13 -347.728 -308.13c-118.712 0 -213.942 0.37793 -258.965 67.2627
c-6.81055 10.1201 -19.5234 16.9775 -29.7598 10.3428c-2.84863 -1.84766 -4.88281 -3.68262 -6.2002 -5.36328c-17.5029 -22.3174 -24.4775 -55.8994 -23.6758 -93.8301c0.444336 -21.0146 3.21582 -40.585 6.09082 -55.6475
c2.62988 -13.7793 -5.53125 -27.6699 -19.1553 -31.0146l-65.6777 -16.1201c-13.1953 -3.2373 -26.6113 4.63477 -29.4248 17.9248c-4.42285 20.9023 -9.31152 50.9004 -10.0166 84.2354c-1.03027 48.7002 6.64941 113.64 47.7637 166.065
c23.9277 30.5068 57.7822 45.9541 87.6133 53.9219c9.99805 2.66992 17.6279 10.6797 20.9961 20.4648c17.4502 50.71 68.2715 64.3574 128.074 80.418c45.7549 12.2871 96.7646 25.9844 142.109 58.7725c74.7002 54.0146 78.25 119.04 81.5254 178.992
c0.0996094 1.83301 0.200195 3.65723 0.302734 5.48047c0.62207 11.1846 -6.07031 21.5293 -16.4824 25.6621c-11.5752 4.59473 -23.5703 9.70801 -35.5527 15.293c-36.4629 17 -80.0029 41.6191 -108.697 74.1553c-42.458 48.1387 -58.3506 105.347 -62.5176 143.721
c-1.47754 13.626 9.87207 24.4902 23.5771 24.2598z" />
    <glyph glyph-name="uni008D" 
d="M500 999l100 -50v-225h200l-300 -175l-300 175h200v225zM900 674v-450l-400 -225l-400 225v450l400 -239.062z" />
    <glyph glyph-name="uni008E" 
d="M298.183 590.668v-191.668l-298.183 300l298.183 300v-191.667h401.817l-200 -216.665h-201.817zM300 190.668l200 216.664h201.817v191.668l298.183 -300l-298.183 -300v191.668h-401.817z" />
    <glyph glyph-name="uni008F" 
d="M550 820.905c73.0352 -9.10742 139.955 -37.9043 195.282 -80.9131l69.3623 69.3633l70.7109 -70.7109l-69.3633 -69.3623c52.6523 -67.7344 84.0078 -152.848 84.0078 -245.282c0 -220.915 -179.085 -400 -400 -400s-400 179.085 -400 400
c0 203.98 152.685 372.301 350 396.905v53.0947h-100v100h300v-100h-100v-53.0947zM550 444.71v229.29h-100v-270.71l189.645 -189.646l70.7109 70.7109z" />
    <glyph glyph-name="uni0090" 
d="M75 449l450 -450h475v125l-123.333 125h-201.667l-75.833 75v50l325.833 325l-300 300zM125 649l125 125h-250v-125h125zM475 999h-475v-125h350z" />
    <glyph glyph-name="uni0091" 
d="M550 999h150l150 -150v-225h-300v375zM150 524h700v-375l-150 -150h-400l-150 150v375zM250 190.423l91.4229 -91.4229h317.154l91.4229 91.4229v233.577h-500v-233.577zM150 849l150 150h150v-375h-300v225zM250 724h100v175h-8.57715l-91.4229 -91.4209v-83.5791z" />
    <glyph glyph-name="uni0092" 
d="M537.502 985.084c-23.2051 13.3975 -51.7949 13.3975 -75 0l-91.1787 -52.6416c-23.9131 -13.8066 -32.1084 -44.3857 -18.2998 -68.3008c13.8066 -23.915 44.3867 -32.1084 68.2998 -18.3018l78.6787 45.4248l78.6777 -45.4248
c23.915 -13.8066 54.4932 -5.61328 68.3018 18.3018c13.8066 23.915 5.61328 54.4941 -18.3018 68.3008zM811.035 827.16c-23.9131 13.8066 -54.4932 5.61328 -68.2998 -18.3018c-13.8086 -23.915 -5.61328 -54.4932 18.2998 -68.3018l78.6777 -45.4248v-90.8486
c0 -27.6152 22.3857 -50 50 -50s50 22.3848 50 50v105.283c0 26.7949 -14.2949 51.5537 -37.5 64.9521zM238.969 740.557c23.915 13.8086 32.1084 44.3867 18.3008 68.3018c-13.8066 23.915 -44.3857 32.1084 -68.3008 18.3018l-91.1787 -52.6416
c-23.2041 -13.3984 -37.5 -38.1572 -37.5 -64.9521v-105.283c0 -27.6152 22.3867 -50 50 -50c27.6152 0 50 22.3848 50 50v90.8486zM160.29 393.717c0 27.6152 -22.3848 50 -50 50c-27.6133 0 -50 -22.3848 -50 -50v-105.283c0 -26.7949 14.2959 -51.5537 37.5 -64.9521
l91.1787 -52.6416c23.915 -13.8066 54.4941 -5.61328 68.3008 18.3018c13.8076 23.915 5.61426 54.4932 -18.3008 68.3018l-78.6787 45.4229v90.8506zM939.713 393.717c0 27.6152 -22.3857 50 -50 50s-50 -22.3848 -50 -50v-90.8506l-78.6777 -45.4229
c-23.9131 -13.8086 -32.1084 -44.3867 -18.2998 -68.3018c13.8066 -23.915 44.3867 -32.1084 68.2998 -18.3018l91.1777 52.6416c23.2051 13.3984 37.5 38.1572 37.5 64.9521v105.283zM421.323 152.16c-23.9131 13.8066 -54.4932 5.61328 -68.2998 -18.3018
c-13.8086 -23.915 -5.61328 -54.4932 18.2998 -68.3018l91.1787 -52.6416c23.2051 -13.3965 51.7949 -13.3965 75 0l91.1777 52.6416c23.915 13.8086 32.1084 44.3867 18.3018 68.3018c-13.8086 23.915 -44.3867 32.1084 -68.3018 18.3018l-78.6777 -45.4248z
M525.002 734.566c-15.4707 8.93164 -34.5283 8.93164 -50 0l-166.505 -96.1318c-15.4707 -8.93164 -25 -25.4375 -25 -43.3008v-192.266c0 -17.8633 9.5293 -34.3701 25 -43.3018l166.505 -96.1318c15.4717 -8.93164 34.5293 -8.93164 50 0l166.507 96.1318
c15.4697 8.93164 25 25.4385 25 43.3018v192.266c0 17.8633 -9.53027 34.3691 -25 43.3008z" />
    <glyph glyph-name="uni0093" 
d="M554.427 424.7l-49.4932 125.604l-52.3018 -125.604h101.795zM125 999l-125 -125v-750l125 -125h750l125 125v750l-125 125h-750zM507.4 774h5.59961l232.4 -535.5h-117.601l-39.7197 100.8h-171.009l-41.9717 -100.8h-100.1z" />
    <glyph glyph-name="uni0094" 
d="M549.2 369.1c13.0664 12.6006 22.166 29.6338 27.2998 51.1006c5.59961 21.4668 8.40039 45.2666 8.40039 71.3994c0 25.667 -2.80078 48.5342 -8.40039 68.6006c-5.13379 20.0664 -14.2334 35.9336 -27.2998 47.5996
c-13.0664 12.1338 -31.2666 18.2002 -54.6006 18.2002c-22.8662 0 -40.833 -6.06641 -53.8994 -18.2002c-13.0664 -12.1328 -22.167 -28.4668 -27.2998 -49c-5.13379 -20.5332 -7.7002 -43.6328 -7.7002 -69.2998s2.56641 -49 7.7002 -70
c5.13281 -21 14.2334 -37.7998 27.2998 -50.4004c13.0664 -12.1328 31.0332 -18.1992 53.8994 -18.1992c23.334 0 41.5342 6.06641 54.6006 18.1992zM875 999h-750l-125 -125v-750l125 -125h750l125 125v750zM419.7 267.6
c-23.334 9.33398 -44.1006 23.5674 -62.2998 42.7002c-17.7334 19.6006 -31.7334 44.1006 -42 73.5c-10.2666 29.8672 -15.4004 64.8672 -15.4004 105c0 44.7998 4.90039 82.1338 14.7002 112c9.7998 30.334 23.333 54.6006 40.5996 72.7998
c17.7334 18.2002 38.5 31.0342 62.2998 38.5c23.8008 7.93359 49.7002 11.9004 77.7002 11.9004c26.6006 0 51.5664 -4.66699 74.9004 -14c23.7998 -9.33301 44.5664 -23.7998 62.2998 -43.4004c18.2002 -19.1328 32.4336 -43.6328 42.7002 -73.5
c10.2666 -29.3994 15.3994 -64.166 15.3994 -104.3c0 -41.5332 -5.13281 -77.2334 -15.3994 -107.1c-10.2666 -29.8672 -24.5 -54.3672 -42.7002 -73.5c-18.2002 -18.667 -38.9668 -32.4336 -62.2998 -41.2998c-23.334 -8.86719 -48.2998 -13.3008 -74.9004 -13.3008
c-26.5996 0 -51.7998 4.66699 -75.5996 14z" />
    <glyph glyph-name="uni0095" 
d="M875 999h-750l-125 -125v-750l125 -125h750l125 125v750zM564.3 724v-464.1h-102.2v366.1h-37.0996v98h139.3z" />
    <glyph glyph-name="uni0096" 
d="M875 999h-750l-125 -125v-750l125 -125h750l125 125v750zM421.6 339c26.6006 27.5332 50.4004 53.9004 71.4004 79.0996c21.4668 25.667 38.2666 50.4004 50.4004 74.2002c12.5996 23.7998 18.8994 46.9004 18.8994 69.2998c0 9.80078 -1.86621 18.667 -5.59961 26.6006
c-3.2666 7.93359 -8.16699 14.7002 -14.7002 20.2998c-6.06641 5.59961 -13.5332 9.7998 -22.4004 12.5996c-8.39941 3.2666 -17.9658 4.90039 -28.6992 4.90039s-20.3008 -1.63379 -28.7002 -4.90039c-8.40039 -2.7998 -15.4004 -6.7666 -21 -11.8994
c-5.60059 -5.13379 -10.0332 -10.7334 -13.2998 -16.7998c-2.80078 -6.06738 -4.2002 -12.3672 -4.2002 -18.9004c0 -14.9336 2.33301 -28.2334 7 -39.9004c5.13281 -11.1992 11.8994 -21.2334 20.2998 -30.0996l-62.2998 -56.7002
c-13.5332 6.5332 -25.2002 17.5 -35 32.9004c-9.33398 15.3994 -16.5664 31.5 -21.7002 48.2998c-4.66699 17.2666 -7 31.5 -7 42.7002c0 25.666 7 50.166 21 73.5c14.4668 23.333 35.2334 42.4668 62.2998 57.3994c27.5332 14.9336 60.9004 22.4004 100.101 22.4004
c32.1992 0 60.1992 -7.2334 84 -21.7002c23.7998 -14.4668 42.2334 -33.5996 55.2998 -57.3994c13.5332 -23.334 20.2998 -48.3008 20.2998 -74.9004c0 -21 -3.2666 -41.2998 -9.7998 -60.9004c-6.5332 -19.5996 -15.6338 -38.9658 -27.2998 -58.0996
c-11.2002 -18.667 -24.0342 -37.333 -38.5 -56c-11.0957 -13.958 -22.4658 -28.1914 -34.1104 -42.7002h115.31v-98h-335.3c28.9336 29.4004 56.7002 57.6338 83.2998 84.7002z" />
    <glyph glyph-name="uni0097" 
d="M875 999h-750l-125 -125v-750l125 -125h750l125 125v750zM552.767 554.207c2.41211 -0.516602 4.82129 -1.08691 7.2334 -1.70703c16.333 -4.2002 31.0332 -11.667 44.0996 -22.4004c13.5342 -10.7334 24.2666 -25.4326 32.2002 -44.0996
c8.40039 -18.667 12.6006 -42.4668 12.6006 -71.4004c0 -33.5996 -7.93359 -62.5332 -23.8008 -86.7998c-15.3994 -23.7998 -35.6992 -42 -60.8994 -54.5996c-25.2002 -12.6006 -52.5 -18.9004 -81.9004 -18.9004c-22.8662 0 -46.8994 4.66699 -72.0996 14
c-25.2002 9.7998 -45.2666 22.6338 -60.2002 38.5l51.7998 84c7 -8.86621 17.7334 -17.5 32.2002 -25.8994c14.4668 -8.40039 29.6338 -12.6006 45.5 -12.6006c10.2666 0 20.2998 2.56641 30.0996 7.7002c9.80078 5.13379 17.9668 12.833 24.5 23.0996
c6.53418 10.2666 9.80078 22.8672 9.80078 37.8008c0 20.5332 -5.83398 36.8662 -17.5 49c-11.2002 12.1328 -27.0674 18.1992 -47.6006 18.1992c-14 0 -24.7334 -0.699219 -32.2002 -2.09961c-7 -0.933594 -14 -2.33301 -21 -4.2002l-2.09961 2.7998l75.542 141.4h-110.542
v98h252.7z" />
    <glyph glyph-name="uni0098" 
d="M519.6 494.145l-45.8594 -61.3447h45.8594v61.3447zM875 999h-750l-125 -125v-750l125 -125h750l125 125v750zM325 356.5l296.1 367.5h0.700195v-291.2h55.2998v-77h-55.2998v-101.5h-102.2v101.5h-194.6v0.700195z" />
    <glyph glyph-name="uni0099" 
d="M875 999h-750l-125 -125v-750l125 -125h750l125 125v750zM410.9 269.7c-26.1338 10.2666 -46.4336 22.6328 -60.9004 37.0996l52.5 81.2002c8.40039 -10.2666 20.2998 -18.9004 35.7002 -25.9004c15.8662 -6.5332 31.0332 -9.7998 45.5 -9.7998
c10.7334 0 20.7666 2.33398 30.0996 7c9.33398 4.66699 16.7998 11.667 22.4004 21c5.59961 9.33398 8.39941 20.7666 8.39941 34.2998c0 14.9336 -3.0332 28 -9.09961 39.2002c-5.59961 11.2002 -14 19.834 -25.2002 25.9004c-10.7334 6.5332 -23.5664 9.7998 -38.5 9.7998
c-14.4668 0 -28.2334 -2.09961 -41.2998 -6.2998c-13.0664 -3.7334 -28.4668 -10.2666 -46.2002 -19.6006h-0.700195v260.4h231.7v-98h-144.2v-52.4316c2.36719 0.245117 4.7002 0.455078 7 0.631836c6.06738 0.466797 12.1338 0.700195 18.2002 0.700195
c32.667 0 60.2002 -7.2334 82.6006 -21.7002c22.8662 -14.4668 40.3662 -33.6006 52.5 -57.4004c12.1328 -23.7998 18.1992 -49.7002 18.1992 -77.7002c0 -30.7998 -7 -58.5664 -21 -83.2998s-33.1328 -44.333 -57.3994 -58.7998
c-23.7998 -14.4668 -50.4004 -21.7002 -79.7998 -21.7002c-27.5342 0 -54.3672 5.13379 -80.5 15.4004z" />
    <glyph glyph-name="uni009A" 
d="M535.7 365.4c10.7334 5.59961 19.1328 13.5332 25.2002 23.7998c6.06641 10.7334 9.09961 23.5664 9.09961 38.5c0 14.4668 -3.2666 26.3662 -9.7998 35.7002c-6.06641 9.7998 -14.4668 17.0332 -25.2002 21.6992c-10.2666 5.13379 -21.9336 7.7002 -35 7.7002
s-24.9668 -2.56641 -35.7002 -7.7002c-10.2666 -4.66602 -18.666 -11.1992 -25.2002 -19.5996c-6.06641 -7.93359 -9.09961 -16.5664 -9.09961 -25.9004v-16.7998c0 -11.2002 3.0332 -21.7002 9.09961 -31.5c6.06738 -9.7998 14.4668 -17.9668 25.2002 -24.5
c10.7334 -6.06641 22.6338 -9.09961 35.7002 -9.09961c13.5332 0 25.4336 2.56641 35.7002 7.7002zM875 999h-750l-125 -125v-750l125 -125h750l125 125v750zM413.2 290.5c-27.0664 15.8662 -48.5332 39.2002 -64.4004 70c-15.8662 30.7998 -23.7998 68.3662 -23.7998 112.7
c0 27.5332 5.13379 54.1328 15.4004 79.7998c10.7334 26.1338 25.1992 50.8662 43.3994 74.2002c18.667 23.7998 40.1338 45.9668 64.4004 66.5s50.166 38.9668 77.7002 55.2998l67.8994 -73.5c-37.333 -14.4668 -67.8994 -33.1338 -91.7002 -56
c-23.7998 -22.4004 -41.2998 -45.7334 -52.5 -70c-0.37793 -0.820312 -0.75 -1.63672 -1.11426 -2.45215c2.41309 2.32715 4.88477 4.54395 7.41504 6.65234c20.0664 16.333 47.833 24.5 83.2998 24.5c22.3994 0 44.0996 -6.2998 65.0996 -18.9004
c21 -12.5996 38.0332 -30.0996 51.1006 -52.5c13.5332 -22.3994 20.2998 -48.5332 20.2998 -78.3994c0 -34.5342 -8.40039 -63.9336 -25.2002 -88.2002c-16.333 -23.7998 -37.5664 -42 -63.7002 -54.6006c-26.1328 -12.5996 -53.666 -18.8994 -82.5996 -18.8994
c-33.6006 0 -63.9336 7.93359 -91 23.7998z" />
    <glyph glyph-name="uni009B" 
d="M875 999h-750l-125 -125v-750l125 -125h750l125 125v750zM490.7 259.9h-113.4l138.981 366.1h-166.281v98h313.6z" />
    <glyph glyph-name="uni009C" 
d="M439.1 396.2c6.53418 -11.2002 15.167 -20.2998 25.9004 -27.2998c10.7334 -6.53418 22.6338 -9.80078 35.7002 -9.80078c13.5332 0 25.8994 3.2666 37.0996 9.80078c11.2002 7 20.0664 16.0996 26.6006 27.2998c7 11.666 10.5 24.2666 10.5 37.7998
s-3.2666 25.667 -9.80078 36.4004c-6.06641 11.1992 -14.4658 20.2998 -25.1992 27.2998c-10.2666 7 -21.9336 10.7334 -35 11.2002c-13.0674 0.46582 -25.4336 -2.56738 -37.1006 -9.10059c-11.2002 -6.5332 -20.5332 -15.6328 -28 -27.2998
c-7 -11.2002 -10.5 -24.0332 -10.5 -38.5c0 -13.5332 3.2666 -26.1338 9.7998 -37.7998zM479 604.1c7.93359 -7 16.0996 -10.5 24.5 -10.5s16.333 3.5 23.7998 10.5s11.2002 15.167 11.2002 24.5c0 9.33398 -3.7334 17.5 -11.2002 24.5
c-7 7.4668 -14.9336 11.2002 -23.7998 11.2002s-17.0332 -3.7334 -24.5 -11.2002c-7.4668 -7 -11.2002 -15.166 -11.2002 -24.5c0 -9.33301 3.7334 -17.5 11.2002 -24.5zM875 999h-750l-125 -125v-750l125 -125h750l125 125v750zM338.3 491.4
c8.86719 16.7998 19.6006 30.5664 32.2002 41.2998c13.0664 11.2002 24.9668 20.0664 35.7002 26.5996c-10.2666 10.7334 -19.1338 21.7002 -26.6006 32.9004c-7 11.666 -10.5 28 -10.5 49s5.83398 39.666 17.5 56c12.1338 16.333 28.2334 28.9336 48.3008 37.7998
c20.0664 9.33301 42.2334 14 66.5 14s46.4326 -4.66699 66.5 -14c20.5332 -8.86621 36.8662 -21 49 -36.4004c12.5996 -15.3994 18.8994 -32.8994 18.8994 -52.5c0 -23.333 -3.9668 -40.833 -11.8994 -52.5c-7.4668 -11.666 -16.8008 -23.0996 -28 -34.2998
c11.1992 -7 22.8662 -16.0996 35 -27.2998c12.5996 -11.2002 23.333 -25.2002 32.1992 -42c8.86719 -16.333 13.3008 -36.4004 13.3008 -60.2002c0 -27.0664 -7.7002 -52.5 -23.1006 -76.2998c-15.3994 -23.7998 -36.3994 -43.167 -63 -58.0996
c-26.1328 -14.4668 -56.2334 -21.7002 -90.2998 -21.7002s-64.4004 7.2334 -91 21.7002c-26.1338 14.9326 -46.667 34.2998 -61.5996 58.0996c-14.9336 23.7998 -22.4004 49.2334 -22.4004 76.2998c0 24.2666 4.43359 44.7998 13.2998 61.6006z" />
    <glyph glyph-name="uni009D" 
d="M550.4 528.5c13.5332 12.5996 20.2998 26.833 20.2998 42.7002v16.0996c0 12.1338 -3.0332 23.5664 -9.10059 34.2998c-6.06641 10.7334 -14.4658 19.3672 -25.1992 25.9004c-10.2666 7 -22.167 10.5 -35.7002 10.5c-13.0664 0 -24.9668 -3.0332 -35.7002 -9.09961
c-10.7334 -5.60059 -19.1338 -14 -25.2002 -25.2002s-9.09961 -24.9668 -9.09961 -41.2998c0 -15.8672 3.0332 -29.4004 9.09961 -40.6006c6.5332 -10.7334 14.9336 -18.8994 25.2002 -24.5c10.7334 -5.13281 22.6338 -7.7002 35.7002 -7.7002
c19.5996 0 36.166 6.30078 49.7002 18.9004zM875 999h-750l-125 -125v-750l125 -125h750l125 125v750zM396.4 443.1c-20.5342 12.6006 -37.5674 30.1006 -51.1006 52.5c-13.5332 22.8672 -20.2998 49 -20.2998 78.4004c0 37.333 8.16699 69.0664 24.5 95.2002
c16.7998 26.1328 38.2666 45.9668 64.4004 59.5c26.1328 13.5332 53.666 20.2998 82.5996 20.2998c34.0664 0 64.4004 -7.7002 91 -23.0996c27.0664 -14.9336 48.5332 -35.7002 64.4004 -62.3008c15.8662 -26.1328 23.7998 -55.7666 23.7998 -88.8994
c0 -38.2666 -6.7666 -72.7998 -20.2998 -103.601c-13.0674 -30.333 -30.8008 -57.6328 -53.2002 -81.8994c-21.9336 -24.2666 -46.4336 -46.4336 -73.5 -66.5c-27.0664 -19.6006 -54.3672 -38.0332 -81.9004 -55.2998l-67.8994 73.5
c37.333 15.3994 70.2334 32.8994 98.6992 52.5c20.96 14.7744 38.5039 29.9277 52.6338 45.4629c-18.0234 -9.77539 -40.9355 -14.6631 -68.7334 -14.6631c-22.4004 0 -44.0996 6.2998 -65.0996 18.8994z" />
    <glyph glyph-name="uni009E" 
d="M309.673 449.4l-28.2832 71.7725l-29.8848 -71.7725h58.168zM875 999h-750l-125 -125v-750l125 -125h750l125 125v750zM282.8 649h3.2002l132.8 -306h-67.2002l-22.6963 57.5996h-97.7188l-23.9844 -57.5996h-57.2002zM461.715 637.4h58v-238.4h138.4v-56h-196.4v294.4z
M866.288 637.4v-56h-71.5996v-238.4h-58v238.4h-68.8018v56h198.401z" />
    <glyph glyph-name="uni009F" 
d="M875 999h-750l-125 -125v-750l125 -125h750l125 125v750zM557.144 750.9c-10.2666 -9.33398 -18.667 -22.8672 -25.2002 -40.6006s-8.16699 -34.7666 -4.90039 -51.0996l-74.8994 -4.90039c-3.2666 17.7334 -2.7998 34.0664 1.39941 49
c4.66699 14.9336 11.9004 28 21.7002 39.2002c9.7998 11.667 20.2998 21 31.5 28z" />
    <glyph glyph-name="exclamdown" unicode="&#xa1;" 
d="M875 999h-750l-125 -125v-750l125 -125h750l125 125v750zM598.182 607.333h201.818v-216.666h-201.818v-191.667l-298.182 300l298.182 300v-191.667zM300 499v-300h-100v600h100v-300z" />
    <glyph glyph-name="cent" unicode="&#xa2;" 
d="M875 999h-750l-125 -125v-750l125 -125h750l125 125v750zM533.5 685.8l43.4004 -94.5h-59.5l-92.4004 94.5h108.5z" />
    <glyph glyph-name="sterling" unicode="&#xa3;" 
d="M875 999h-750l-125 -125v-750l125 -125h750l125 125v750zM608.333 500.818v-126.818h-216.666v126.818h-191.667l300 298.182l300 -298.182h-191.667zM608.333 199h-216.666v100h216.666v-100z" />
    <glyph glyph-name="currency" unicode="&#xa4;" 
d="M875 999h-750l-125 -125v-750l125 -125h750l125 125v750zM425 184.9v91h62.2998v457.8h-62.2998v90.2998h163.8v-639.1h-163.8z" />
    <glyph glyph-name="yen" unicode="&#xa5;" 
d="M875 999h-750l-125 -125v-750l125 -125h750l125 125v750zM534.2 237.1c-10.2666 -24.2666 -20.5332 -48.7666 -30.7998 -73.5h-78.4004c9.33301 24.7334 18.4336 49.2334 27.2998 73.5c9.33398 24.2666 18.667 48.7666 28 73.5h84.7002
c-10.2666 -24.7334 -20.5332 -49.2334 -30.7998 -73.5z" />
    <glyph glyph-name="brokenbar" unicode="&#xa6;" 
d="M614.361 516.302c4.40039 2.2002 7.80078 5 10.2002 8.40039c2.60059 3.39941 4.40039 6.89941 5.40039 10.5c1.2002 3.7998 1.7998 7.2998 1.7998 10.5c0 2.39941 -0.400391 5.39941 -1.2002 9c-0.599609 3.7998 -2 7.59961 -4.2002 11.3994
c-2.19922 3.7998 -5.59961 7 -10.1992 9.60059c-4.40039 2.59961 -10.4004 3.89941 -18 3.89941h-31.2002v-66.5996h30.8994c6.60059 0 12.1006 1.09961 16.5 3.2998zM875 999h-750l-125 -125v-750l125 -125h750l125 125v750zM304.1 419.1
c-2.39941 -2 -6.89941 -4.69922 -13.5 -8.09961c-6.39941 -3.40039 -14.2998 -6.40039 -23.6992 -9c-9.40039 -2.59961 -19.8008 -3.7998 -31.2002 -3.59961c-17.4004 0.399414 -33 3.5 -46.7998 9.2998c-13.6006 6 -25.2002 14.0996 -34.8008 24.2998
c-9.39941 10.2002 -16.5996 21.9004 -21.5996 35.0996c-5 13.2002 -7.5 27.3008 -7.5 42.3008c0 16.7998 2.5 32.1992 7.5 46.1992c5.2002 14 12.5 26.1006 21.9004 36.3008c9.59961 10.1992 21 18.0996 34.1992 23.6992c13.2002 5.60059 27.8008 8.40039 43.8008 8.40039
c14.7998 0 27.8994 -2 39.2998 -6c11.3994 -4 20.7002 -8.2998 27.8994 -12.9004l-17.0996 -41.0996c-5 3.7998 -11.7002 7.7002 -20.0996 11.7002c-8.2002 4.2002 -17.7002 6.2998 -28.5 6.2998c-8.40039 0 -16.5 -1.7998 -24.3008 -5.40039
c-7.59961 -3.39941 -14.3994 -8.2998 -20.3994 -14.6992c-5.7998 -6.40039 -10.4004 -13.9004 -13.7998 -22.5c-3.40039 -8.40039 -5.10059 -17.6006 -5.10059 -27.6006c0 -10.5996 1.5 -20.2998 4.5 -29.0996c3.2002 -8.7998 7.7002 -16.4004 13.5 -22.7998
c5.7998 -6.2002 12.7002 -11 20.7002 -14.4004c8.2002 -3.40039 17.4004 -5.09961 27.5996 -5.09961c11.8008 0 21.9004 1.89941 30.3008 5.69922c8.39941 3.80078 14.7998 7.80078 19.1992 12zM481.48 621.602v-42h-53.7002v-178.8h-43.5v178.8h-51.6006v42h148.801z
M627.262 616.202c10.7998 -3.40039 19.7998 -8.40039 27 -15c7.40039 -6.40039 13 -14.2002 16.7998 -23.4004c3.7998 -9 5.7002 -19.2002 5.7002 -30.5996c0 -9 -1.40039 -18 -4.2002 -27c-2.59961 -9 -7 -17.2002 -13.2002 -24.6006
c-4.63281 -5.71289 -10.4561 -10.5918 -17.4727 -14.6367l51.373 -80.1631h-50.7002l-46.6328 70.2002h-28.9668v-70.2002h-43.5v220.8h66.8994c13.8008 0 26.1006 -1.7998 36.9004 -5.39941zM729.125 621.602h43.5v-178.8h103.8v-42h-147.3v220.8z" />
    <glyph glyph-name="section" unicode="&#xa7;" 
d="M875 999h-750l-125 -125v-750l125 -125h750l125 125v750zM300 649h400v-100h-400v100zM300 449h400v-100h-400v100z" />
    <glyph glyph-name="dieresis" unicode="&#xa8;" 
d="M478.736 521.173l-29.8867 -71.7725h58.1699zM752.262 517c11.4668 0 19.8662 3.4668 25.2002 10.4004c5.59961 6.93262 8.39941 14.7998 8.39941 23.5996c0 10.1338 -3.4668 17.7334 -10.3994 22.7998c-6.66699 5.06641 -15.7334 7.60059 -27.2002 7.60059h-31.2002
v-64.4004h35.2002zM754.262 397c8.5332 0 16.2666 1.06641 23.2002 3.2002c6.93262 2.39941 12.3994 6 16.3994 10.7998c4 5.06641 6 11.333 6 18.7998c0 8.5332 -2.39941 14.9336 -7.19922 19.2002c-4.80078 4.5332 -11.0674 7.59961 -18.8008 9.2002
c-7.4668 1.86621 -15.333 2.7998 -23.5996 2.7998h-33.2002v-64h37.2002zM875 999h-750l-125 -125v-750l125 -125h750l125 125v750zM347.347 343l132.8 306h3.2002l132.8 -306h-67.2002l-22.6982 57.5996h-97.7178l-23.9834 -57.5996h-57.2002zM745.462 637.4
c30.666 0 55.0664 -6.2666 73.2002 -18.8008c18.1328 -12.2666 27.1992 -30.666 27.1992 -55.1992c0 -18.1338 -4.5332 -33.334 -13.5996 -45.6006c-5.73633 -7.82324 -12.8896 -14.3994 -21.4619 -19.7295c13.2949 -6.19238 24.1816 -14.1484 32.6621 -23.8701
c10.9326 -12.2666 16.3994 -27.0664 16.3994 -44.4004c0 -16 -2.93262 -29.5996 -8.7998 -40.7998c-5.59961 -10.9336 -13.333 -19.8662 -23.2002 -26.7998c-9.59961 -6.66699 -20.5332 -11.6006 -32.7998 -14.7998c-12.2666 -2.93359 -24.9336 -4.40039 -38 -4.40039h-98
v294.4h86.4004zM150 637.4h198.4v-56h-71.6006v-238.4h-58v238.4h-68.7998v56z" />
    <glyph glyph-name="copyright" unicode="&#xa9;" 
d="M875 999h-750l-125 -125v-750l125 -125h750l125 125v750zM250 674h230v-70h-157.5v-83.5h136.5v-70h-136.5v-144.5h-72.5v368zM529.305 306c20.667 21 40.5 41.167 59.5 60.5c19 19.667 36 38.5 51 56.5c15.334 18.333 27.334 36 36 53c9 17 13.5 33.5 13.5 49.5
c0 7 -1.33301 13.333 -4 19c-2.33301 5.66699 -5.83301 10.5 -10.5 14.5c-4.33301 4 -9.66602 7 -16 9c-6 2.33301 -12.833 3.5 -20.5 3.5c-7.66602 0 -14.5 -1.16699 -20.5 -3.5c-6 -2 -11 -4.83301 -15 -8.5s-7.16602 -7.66699 -9.5 -12c-2 -4.33301 -3 -8.83301 -3 -13.5
c0 -10.667 1.66699 -20.167 5 -28.5c3.66699 -8 8.5 -15.167 14.5 -21.5l-44.5 -40.5c-9.66602 4.66699 -18 12.5 -25 23.5c-6.66602 11 -11.833 22.5 -15.5 34.5c-3.33301 12.333 -5 22.5 -5 30.5c0 18.333 5 35.833 15 52.5c10.334 16.667 25.167 30.333 44.5 41
c19.667 10.667 43.5 16 71.5 16c23 0 43 -5.16699 60 -15.5s30.167 -24 39.5 -41c9.66699 -16.667 14.5 -34.5 14.5 -53.5c0 -15 -2.33301 -29.5 -7 -43.5c-4.66602 -14 -11.166 -27.833 -19.5 -41.5c-8 -13.333 -17.166 -26.667 -27.5 -40
c-7.9248 -9.96973 -16.0459 -20.1367 -24.3643 -30.5h82.3643v-70h-239.5z" />
    <glyph glyph-name="ordfeminine" unicode="&#xaa;" 
d="M875 999h-750l-125 -125v-750l125 -125h750l125 125v750zM250 674h230v-70h-157.5v-83.5h136.5v-70h-136.5v-144.5h-72.5v368zM730.305 637.502l-63.166 -121.282c1.72168 -0.370117 3.44336 -0.776367 5.16602 -1.21777c11.667 -3 22.167 -8.33398 31.5 -16
c9.66699 -7.66699 17.334 -18.167 23 -31.5c6 -13.334 9 -30.334 9 -51c0 -24 -5.66602 -44.667 -17 -62c-11 -17 -25.5 -30 -43.5 -39s-37.5 -13.5 -58.5 -13.5c-16.333 0 -33.5 3.33301 -51.5 10c-18 7 -32.333 16.166 -43 27.5l37 60c5 -6.33398 12.667 -12.5 23 -18.5
c10.334 -6 21.167 -9 32.5 -9c7.33398 0 14.5 1.83301 21.5 5.5c7 3.66602 12.834 9.16602 17.5 16.5c4.66699 7.33301 7 16.333 7 27c0 14.666 -4.16602 26.333 -12.5 35c-8 8.66602 -19.333 13 -34 13c-10 0 -17.666 -0.5 -23 -1.5c-5 -0.666992 -10 -1.66699 -15 -3
l-1.5 2l53.959 101h-78.959v70h180.5z" />
    <glyph glyph-name="guillemotleft" unicode="&#xab;" 
d="M613.548 433.5h32.7568v43.8184zM875 999h-750l-125 -125v-750l125 -125h750l125 125v750zM250 674h230v-70h-157.5v-83.5h136.5v-70h-136.5v-144.5h-72.5v368zM507.305 378.5v0.5l211.5 262.5h0.5v-208h39.5v-55h-39.5v-72.5h-73v72.5h-139z" />
    <glyph glyph-name="logicalnot" unicode="&#xac;" 
d="M875 999h-750l-125 -125v-750l125 -125h750l125 125v750zM250 674h230v-70h-157.5v-83.5h136.5v-70h-136.5v-144.5h-72.5v368zM623.305 302.002c-19.666 0 -38.833 3.66602 -57.5 11c-18.666 7.33301 -33.166 16.166 -43.5 26.5l37.5 58
c6 -7.33398 14.5 -13.5 25.5 -18.5c11.334 -4.66699 22.167 -7 32.5 -7c7.66699 0 14.834 1.66602 21.5 5c6.66699 3.33301 12 8.33301 16 15c4 6.66602 6 14.833 6 24.5c0 10.666 -2.16602 20 -6.5 28c-4 8 -10 14.166 -18 18.5c-7.66602 4.66602 -16.833 7 -27.5 7
c-10.333 0 -20.166 -1.5 -29.5 -4.5c-9.33301 -2.66699 -20.333 -7.33398 -33 -14h-0.5v186h165.5v-70h-103v-37.4521c1.69043 0.174805 3.35742 0.325195 5 0.452148c4.33398 0.333008 8.66699 0.5 13 0.5c23.334 0 43 -5.16699 59 -15.5
c16.334 -10.334 28.834 -24 37.5 -41c8.66699 -17 13 -35.5 13 -55.5c0 -22 -5 -41.834 -15 -59.5c-10 -17.667 -23.666 -31.667 -41 -42c-17 -10.334 -36 -15.5 -57 -15.5z" />
    <glyph glyph-name="registered" unicode="&#xae;" 
d="M875 999h-750l-125 -125v-750l125 -125h750l125 125v750zM250 674h230v-70h-157.5v-83.5h136.5v-70h-136.5v-144.5h-72.5v368zM746.305 637.502l-123.5 -331.5h-81l99.2734 261.5h-118.773v70h224z" />
    <glyph glyph-name="macron" unicode="&#xaf;" 
d="M584.305 416.5c0 -9.66699 2.33398 -18.667 7 -27c4.66699 -8 10.834 -14.5 18.5 -19.5c7.66699 -4.66699 16.167 -7 25.5 -7c9.66699 0 18.5 2.33301 26.5 7c8 5 14.334 11.5 19 19.5c5 8.33301 7.5 17.333 7.5 27s-2.33301 18.333 -7 26
c-4.33301 8 -10.333 14.5 -18 19.5c-7.33301 5 -15.666 7.66699 -25 8c-9.33301 0.333008 -18.166 -1.83301 -26.5 -6.5c-8 -4.66699 -14.666 -11.167 -20 -19.5c-5 -8 -7.5 -17.167 -7.5 -27.5zM611.805 555.5c0 -6.66699 2.66699 -12.5 8 -17.5
c5.66699 -5 11.5 -7.5 17.5 -7.5s11.667 2.5 17 7.5c5.33398 5 8 10.833 8 17.5s-2.66602 12.5 -8 17.5c-5 5.33301 -10.666 8 -17 8c-6.33301 0 -12.166 -2.66699 -17.5 -8c-5.33301 -5 -8 -10.833 -8 -17.5zM875 999h-750l-125 -125v-750l125 -125h750l125 125v750z
M250 674h230v-70h-157.5v-83.5h136.5v-70h-136.5v-144.5h-72.5v368zM509.805 413.5c0 17.333 3.16699 32 9.5 44c6.33398 12 14 21.833 23 29.5c9.33398 8 17.834 14.333 25.5 19c-7.33301 7.66699 -13.666 15.5 -19 23.5c-5 8.33301 -7.5 20 -7.5 35
s4.16699 28.333 12.5 40c8.66699 11.667 20.167 20.667 34.5 27c14.334 6.66699 30.167 10 47.5 10c17.334 0 33.167 -3.33301 47.5 -10c14.667 -6.33301 26.334 -15 35 -26c9 -11 13.5 -23.5 13.5 -37.5c0 -16.667 -2.83301 -29.167 -8.5 -37.5
c-5.33301 -8.33301 -12 -16.5 -20 -24.5c8 -5 16.334 -11.5 25 -19.5c9 -8 16.667 -18 23 -30c6.33398 -11.667 9.5 -26 9.5 -43c0 -19.333 -5.5 -37.5 -16.5 -54.5s-26 -30.833 -45 -41.5c-18.666 -10.333 -40.166 -15.5 -64.5 -15.5c-24.333 0 -46 5.16699 -65 15.5
c-18.666 10.667 -33.333 24.5 -44 41.5c-10.666 17 -16 35.167 -16 54.5z" />
    <glyph glyph-name="degree" unicode="&#xb0;" 
d="M642.805 495.5c14 0 25.834 4.5 35.5 13.5c9.66699 9 14.5 19.167 14.5 30.5v11.5c0 8.66699 -2.16602 16.833 -6.5 24.5c-4.33301 7.66699 -10.333 13.833 -18 18.5c-7.33301 5 -15.833 7.5 -25.5 7.5c-9.33301 0 -17.833 -2.16699 -25.5 -6.5
c-7.66602 -4 -13.666 -10 -18 -18c-4.33301 -8 -6.5 -17.833 -6.5 -29.5c0 -11.333 2.16699 -21 6.5 -29c4.66699 -7.66699 10.667 -13.5 18 -17.5c7.66699 -3.66699 16.167 -5.5 25.5 -5.5zM875 999h-750l-125 -125v-750l125 -125h750l125 125v750zM250 699h230v-70h-157.5
v-83.5h136.5v-70h-136.5v-144.5h-72.5v368zM614.805 434.5c-16 0 -31.5 4.5 -46.5 13.5c-14.666 9 -26.833 21.5 -36.5 37.5c-9.66602 16.333 -14.5 35 -14.5 56c0 26.667 5.83398 49.333 17.5 68c12 18.667 27.334 32.833 46 42.5c18.667 9.66699 38.334 14.5 59 14.5
c24.334 0 46 -5.5 65 -16.5c19.334 -10.667 34.667 -25.5 46 -44.5c11.334 -18.667 17 -39.833 17 -63.5c0 -27.333 -4.83301 -52 -14.5 -74c-9.33301 -21.667 -22 -41.167 -38 -58.5c-15.666 -17.333 -33.166 -33.167 -52.5 -47.5c-19.333 -14 -38.833 -27.167 -58.5 -39.5
l-48.5 52.5c26.667 11 50.167 23.5 70.5 37.5c14.9717 10.5537 27.5039 21.3779 37.5957 32.4736c-12.874 -6.98242 -29.2402 -10.4736 -49.0957 -10.4736z" />
    <glyph glyph-name="plusminus" unicode="&#xb1;" 
d="M730.68 375c16.667 0 29.667 4.33301 39 13c9.33398 9 15.834 21.167 19.5 36.5c4 15.333 6 32.333 6 51c0 18.333 -2 34.667 -6 49c-3.66602 14.333 -10.166 25.667 -19.5 34c-9.33301 8.66699 -22.333 13 -39 13c-16.333 0 -29.166 -4.33301 -38.5 -13
c-9.33301 -8.66699 -15.833 -20.333 -19.5 -35c-3.66602 -14.667 -5.5 -31.167 -5.5 -49.5s1.83398 -35 5.5 -50c3.66699 -15 10.167 -27 19.5 -36c9.33398 -8.66699 22.167 -13 38.5 -13zM875 999h-750l-125 -125v-750l125 -125h750l125 125v750zM380 674v-70h-157.5v-83.5
h136.5v-70h-136.5v-144.5h-72.5v368h230zM731.18 305.5c-19 0 -37 3.33301 -54 10c-16.666 6.66699 -31.5 16.833 -44.5 30.5c-12.666 14 -22.666 31.5 -30 52.5c-7.33301 21.333 -11 46.333 -11 75c0 32 3.5 58.667 10.5 80c7 21.667 16.667 39 29 52
c12.667 13 27.5 22.167 44.5 27.5c17 5.66699 35.5 8.5 55.5 8.5c19 0 36.834 -3.33301 53.5 -10c17 -6.66699 31.834 -17 44.5 -31c13 -13.667 23.167 -31.167 30.5 -52.5c7.33398 -21 11 -45.833 11 -74.5c0 -29.667 -3.66602 -55.167 -11 -76.5
c-7.33301 -21.333 -17.5 -38.833 -30.5 -52.5c-13 -13.333 -27.833 -23.167 -44.5 -29.5c-16.666 -6.33301 -34.5 -9.5 -53.5 -9.5zM526.804 637.502v-331.5h-73v261.5h-26.5v70h99.5z" />
    <glyph glyph-name="uni00B2" unicode="&#xb2;" 
d="M875 999h-750l-125 -125v-750l125 -125h750l125 125v750zM455 674v-70h-157.5v-83.5h136.5v-70h-136.5v-144.5h-72.5v368h230zM502.304 637.502h99.5v-331.5h-73v261.5h-26.5v70zM773.679 637.502v-331.5h-73v261.5h-26.5v70h99.5z" />
    <glyph glyph-name="uni00B3" unicode="&#xb3;" 
d="M875 999h-750l-125 -125v-750l125 -125h750l125 125v750zM380 674v-70h-157.5v-83.5h136.5v-70h-136.5v-144.5h-72.5v368h230zM601.18 306c20.667 21 40.5 41.167 59.5 60.5c19 19.667 36 38.5 51 56.5c15.334 18.333 27.334 36 36 53c9 17 13.5 33.5 13.5 49.5
c0 7 -1.33301 13.333 -4 19c-2.33301 5.66699 -5.83301 10.5 -10.5 14.5c-4.33301 4 -9.66602 7 -16 9c-6 2.33301 -12.833 3.5 -20.5 3.5c-7.66602 0 -14.5 -1.16699 -20.5 -3.5c-6 -2 -11 -4.83301 -15 -8.5s-7.16602 -7.66699 -9.5 -12c-2 -4.33301 -3 -8.83301 -3 -13.5
c0 -10.667 1.66699 -20.167 5 -28.5c3.66699 -8 8.5 -15.167 14.5 -21.5l-44.5 -40.5c-9.66602 4.66699 -18 12.5 -25 23.5c-6.66602 11 -11.833 22.5 -15.5 34.5c-3.33301 12.333 -5 22.5 -5 30.5c0 18.333 5 35.833 15 52.5c10.334 16.667 25.167 30.333 44.5 41
c19.667 10.667 43.5 16 71.5 16c23 0 43 -5.16699 60 -15.5s30.167 -24 39.5 -41c9.66699 -16.667 14.5 -34.5 14.5 -53.5c0 -15 -2.33301 -29.5 -7 -43.5c-4.66602 -14 -11.166 -27.833 -19.5 -41.5c-8 -13.333 -17.166 -26.667 -27.5 -40
c-7.92676 -9.96973 -16.0459 -20.1367 -24.3643 -30.5h82.3643v-70h-239.5zM526.804 637.502v-331.5h-73v261.5h-26.5v70h99.5z" />
    <glyph glyph-name="acute" unicode="&#xb4;" 
d="M875 999h-750l-125 -125v-750l125 -125h750l125 125v750zM537.6 504.5c-33.1328 -89.5996 -66.2666 -179.434 -99.3994 -269.5h-88.2002c33.1338 90.0664 66.2666 179.9 99.4004 269.5c33.1328 89.5996 66.2666 179.434 99.3994 269.5h88.2002
c-33.1338 -90.0664 -66.2666 -179.9 -99.4004 -269.5z" />
    <glyph glyph-name="mu" unicode="&#xb5;" 
d="M875 999h-750l-125 -125v-750l125 -125h750l125 125v750zM700 549v-100h-400v100h400z" />
    <glyph glyph-name="paragraph" unicode="&#xb6;" 
d="M875 999h-750l-125 -125v-750l125 -125h750l125 125v750zM588.8 824v-91h-62.2998v-457.8h62.2998v-90.2998h-163.8v639.1h163.8z" />
    <glyph glyph-name="periodcentered" unicode="&#xb7;" 
d="M875 999h-750l-125 -125v-750l125 -125h750l125 125v750zM465.4 335.8c10.7334 9.7998 22.3994 14.7002 35 14.7002c11.666 0 22.6328 -4.90039 32.8994 -14.7002c10.7334 -9.7998 16.1006 -21.9336 16.1006 -36.3994c0 -15.4004 -5.36719 -27.7666 -16.1006 -37.1006
c-10.2666 -8.86621 -21.2334 -13.2998 -32.8994 -13.2998c-12.6006 0 -24.2666 4.43359 -35 13.2998c-10.2666 9.33398 -15.4004 21.7002 -15.4004 37.1006c0 14.4658 5.13379 26.5996 15.4004 36.3994z" />
    <glyph glyph-name="cedilla" unicode="&#xb8;" 
d="M875 999h-750l-125 -125v-750l125 -125h750l125 125v750zM200 499l250 250v-175h200v175h150v-325h-350v-175z" />
    <glyph glyph-name="uni00B9" unicode="&#xb9;" 
d="M875 999h-750l-125 -125v-750l125 -125h750l125 125v750zM495 659.3c10.7334 9.7998 22.167 14.7002 34.2998 14.7002c12.1338 0 23.334 -4.90039 33.6006 -14.7002s15.3994 -21.9336 15.3994 -36.3994c0 -15.4004 -5.13281 -27.7666 -15.3994 -37.1006
c-10.2666 -8.86621 -21.4668 -13.2998 -33.6006 -13.2998c-12.1328 0 -23.5664 4.43359 -34.2998 13.2998c-10.2666 9.33398 -15.4004 21.7002 -15.4004 37.1006c0 14.4658 5.13379 26.5996 15.4004 36.3994zM534.2 382.1
c-10.2666 -24.2666 -20.5332 -48.7666 -30.7998 -73.5h-78.4004c9.33301 24.7334 18.4336 49.2334 27.2998 73.5c9.33398 24.2666 18.667 48.7666 28 73.5h84.7002c-10.2666 -24.7334 -20.5332 -49.2334 -30.7998 -73.5z" />
    <glyph glyph-name="ordmasculine" unicode="&#xba;" 
d="M875 999h-750l-125 -125v-750l125 -125h750l125 125v750zM608.333 500.818v-301.818h-216.666v301.818h-191.667l300 298.182l300 -298.182h-191.667z" />
    <glyph glyph-name="guillemotright" unicode="&#xbb;" 
d="M875 999h-750l-125 -125v-750l125 -125h750l125 125v750zM300 374v-75h400v75h100v-175h-600v175h100z" />
    <glyph glyph-name="onequarter" unicode="&#xbc;" 
d="M125 999l-125 -125v-750l125 -125h750l125 125v750l-125 125h-750zM676.4 749v-98h-249.9v-109.9h221.2v-98h-221.2v-111.3h259.7v-98h-361.2v515.2h351.4z" />
    <glyph glyph-name="onehalf" unicode="&#xbd;" 
d="M341.9 445.7c8.39941 -19.6006 19.833 -37.1006 34.2998 -52.5c14.9336 -14.9336 31.9668 -26.6006 51.0996 -35c19.6006 -8.40039 40.834 -12.6006 63.7002 -12.6006c21.9336 0 42.2334 4.2002 60.9004 12.6006c19.1328 8.39941 35.6992 20.0664 49.6992 35
c14 15.3994 24.9668 32.8994 32.9004 52.5c7.93359 20.0664 11.9004 41.5332 11.9004 64.3994c0 23.334 -4.2002 45.0342 -12.6006 65.1006c-7.93359 20.0664 -19.1328 37.5664 -33.5996 52.5c-14 15.3994 -30.5664 27.2998 -49.7002 35.7002
c-19.1338 8.39941 -39.9004 12.5996 -62.2998 12.5996c-22.4004 0 -43.167 -4.2002 -62.2998 -12.5996c-19.1338 -8.40039 -35.9336 -20.3008 -50.4004 -35.7002c-14.4668 -14.9336 -25.667 -32.4336 -33.5996 -52.5c-7.93359 -20.0664 -11.9004 -41.7666 -11.9004 -65.1006
c0 -22.8662 3.9668 -44.333 11.9004 -64.3994zM125 999l-125 -125v-750l125 -125h750l125 125v750l-125 125h-750zM245.3 610.9c13.5332 31.7334 32.2002 59.7334 56 84c24.2666 24.7334 52.2666 44.0996 84 58.0996s65.7998 21 102.2 21c35.9336 0 69.7666 -7 101.5 -21
s59.7334 -33.3662 84 -58.0996c24.7334 -24.2666 43.8662 -52.2666 57.4004 -84c14 -31.7334 21 -65.334 21 -100.801c0 -36.3994 -7 -70.4658 -21 -102.199c-13.5342 -31.7334 -32.667 -59.7334 -57.4004 -84c-24.2666 -23.8008 -52.2666 -42.4668 -84 -56
c-31.7334 -13.5342 -65.5664 -20.3008 -101.5 -20.3008c-36.4004 0 -70.4668 6.7666 -102.2 20.3008c-31.7334 13.5332 -59.7334 32.1992 -84 56c-23.7998 24.2666 -42.4668 52.2666 -56 84s-20.2998 65.7998 -20.2998 102.199c0 35.4668 6.7666 69.0674 20.2998 100.801z
" />
    <glyph glyph-name="threequarters" unicode="&#xbe;" 
d="M341.9 446.4c8.39941 -19.6006 19.833 -37.1006 34.2998 -52.5c14.9336 -14.9336 31.9668 -26.6006 51.0996 -35c19.6006 -8.40039 40.834 -12.6006 63.7002 -12.6006c21.9336 0 42.2334 4.2002 60.9004 12.6006c19.1328 8.39941 35.6992 20.0664 49.6992 35
c14 14.9326 24.9668 32.1992 32.9004 51.7998c7.93359 20.0664 11.9004 41.5332 11.9004 64.3994c0 22.4004 -4.2002 43.4004 -12.6006 63c-7.93359 20.0674 -19.1328 37.5674 -33.5996 52.5c-14 14.9336 -30.5664 26.6006 -49.7002 35
c-19.1338 8.40039 -39.9004 12.6006 -62.2998 12.6006c-22.4004 0 -43.167 -4.2002 -62.2998 -12.6006c-19.1338 -8.39941 -35.9336 -20.0664 -50.4004 -35c-14.4668 -14.9326 -25.667 -32.4326 -33.5996 -52.5c-7.93359 -19.5996 -11.9004 -40.5996 -11.9004 -63
c0 -22.3994 3.9668 -43.6328 11.9004 -63.6992zM125 999l-125 -125v-750l125 -125h750l125 125v750l-125 125h-750zM542.382 253.2c-17.7148 -3.7334 -36.0088 -5.60059 -54.8818 -5.60059c-36.4004 0 -70.4668 6.7666 -102.2 20.3008
c-31.7334 13.5332 -59.7334 32.1992 -84 56c-23.7998 24.2666 -42.4668 52.2666 -56 84s-20.2998 65.7998 -20.2998 102.199c0 35.4668 6.7666 69.0674 20.2998 100.801s32.2002 59.7334 56 84c24.2666 24.7334 52.2666 44.0996 84 58.0996s65.7998 21 102.2 21
c35.9336 0 69.7666 -7 101.5 -21s59.7334 -33.3662 84 -58.0996c24.7334 -24.2666 43.8662 -52.2666 57.4004 -84c14 -31.7334 21 -65.334 21 -100.801c0 -36.3994 -7 -70.4658 -21 -102.199c-8.4873 -19.9023 -19.1787 -38.335 -32.0703 -55.3008h81.7695v-99.3994
h-237.718z" />
    <glyph glyph-name="questiondown" unicode="&#xbf;" 
d="M125 999l-125 -125v-750l125 -125h750l125 125v750l-125 125h-750zM584 648.2c-20.0664 7 -38.9668 10.5 -56.7002 10.5c-21.9336 0 -39.2002 -4.43359 -51.7998 -13.2998c-12.5996 -8.86719 -18.9004 -22.167 -18.9004 -39.9004
c0 -12.1338 4.66699 -23.0996 14 -32.9004c9.80078 -9.33301 22.167 -17.7334 37.1006 -25.1992c15.3994 -7.4668 31.2666 -14.2334 47.5996 -20.3008c14.9336 -5.59961 29.6338 -12.3662 44.1006 -20.2998c14.9326 -7.4668 28.2334 -17.0332 39.8994 -28.7002
c11.667 -11.1992 21 -25.4326 28 -42.6992c7 -16.8008 10.5 -37.5674 10.5 -62.3008c0 -26.1328 -6.7666 -50.3994 -20.2998 -72.7998c-13.5332 -22.3994 -33.3662 -40.5996 -59.5 -54.5996c-26.1338 -13.5332 -58.333 -20.2998 -96.5996 -20.2998
c-19.6006 0 -39.667 1.86621 -60.2002 5.59961c-20.0664 4.2002 -39.9004 10.2666 -59.5 18.2002c-19.6006 8.39941 -38.5 18.8994 -56.7002 31.5l44.7998 79.0996c12.1338 -8.86621 25.2002 -16.7998 39.2002 -23.7998c14.4668 -6.5332 28.9336 -11.667 43.4004 -15.4004
c14.4658 -3.7334 27.7666 -5.59961 39.8994 -5.59961c12.1338 0 24.2666 1.63379 36.4004 4.90039c12.5996 3.7334 22.8662 9.7998 30.7998 18.1992c8.40039 8.40039 12.5996 20.0674 12.5996 35c0 10.2666 -3.5 19.6006 -10.5 28
c-6.5332 8.40039 -15.6328 16.1006 -27.2998 23.1006c-11.2002 7 -23.5664 13.0664 -37.0996 18.2002c-15.8672 6.06641 -32.2002 13.0664 -49 21c-16.7998 7.93262 -32.667 17.5 -47.6006 28.6992c-14.4658 11.667 -26.3662 25.9004 -35.6992 42.7002
c-8.86719 17.2666 -13.3008 38.2666 -13.3008 63c0 29.8672 6.53418 55.7666 19.6006 77.7002c13.5332 21.9336 32.4336 39.2002 56.7002 51.7998c24.2666 13.0664 52.2666 20.2998 84 21.7002c41.5332 0 75.1328 -4.90039 100.8 -14.7002
c26.1328 -9.7998 49.4668 -21.4668 70 -35l-38.5 -77.7002c-19.6006 10.7334 -39.667 19.6006 -60.2002 26.6006z" />
    <glyph glyph-name="Agrave" unicode="&#xc0;" 
d="M125 999l-125 -125v-750l125 -125h750l125 125v750l-125 125h-750zM672.2 749v-98h-125.3v-417.2h-101.5v417.2h-120.4v98h347.2z" />
    <glyph glyph-name="Aacute" unicode="&#xc1;" 
d="M125 999l-125 -125v-750l125 -125h750l125 125v750l-125 125h-750zM422.2 392.5c9.7998 -14.9336 22.6328 -27.0664 38.5 -36.4004c16.333 -9.33301 34.0664 -14 53.2002 -14c21 0 39.666 4.66699 56 14c16.333 9.33398 29.166 21.4668 38.5 36.4004
c9.7998 14.9336 14.6992 30.5664 14.6992 46.9004v324.8h100.101v-326.9c0 -37.7998 -9.33398 -71.3994 -28 -100.8c-18.667 -28.9336 -43.8672 -51.7998 -75.6006 -68.5996c-31.7334 -16.334 -66.9658 -24.5 -105.699 -24.5c-38.2666 0 -73.2666 8.16602 -105 24.5
c-31.2666 16.7998 -56.2334 39.666 -74.9004 68.5996c-18.667 29.4004 -28 63 -28 100.8v326.9h101.5v-324.8c0 -16.334 4.90039 -31.9668 14.7002 -46.9004z" />
    <glyph glyph-name="Acircumflex" unicode="&#xc2;" 
d="M875 999h-750l-125 -125v-750l125 -125h750l125 125v750zM449.4 504.5c-33.1338 89.5996 -66.2666 179.434 -99.4004 269.5h88.2002c33.1328 -90.0664 66.2666 -179.9 99.3994 -269.5c33.1338 -89.5996 66.2666 -179.434 99.4004 -269.5h-88.2002
c-33.1328 90.0664 -66.2666 179.9 -99.3994 269.5z" />
    <glyph glyph-name="Atilde" unicode="&#xc3;" 
d="M642.305 367c9.66699 0 18.167 1.83301 25.5 5.5c7.66699 4 13.667 9.66699 18 17c4.33398 7.66699 6.5 16.833 6.5 27.5c0 10.333 -2.33301 18.833 -7 25.5c-4.33301 7 -10.333 12.167 -18 15.5c-7.33301 3.66699 -15.666 5.5 -25 5.5
c-9.33301 0 -17.833 -1.83301 -25.5 -5.5c-7.33301 -3.33301 -13.333 -8 -18 -14c-4.33301 -5.66699 -6.5 -11.833 -6.5 -18.5v-12c0 -8 2.16699 -15.5 6.5 -22.5c4.33398 -7 10.334 -12.833 18 -17.5c7.66699 -4.33301 16.167 -6.5 25.5 -6.5zM875 999h-750l-125 -125v-750
l125 -125h750l125 125v750zM250 674h230v-70h-157.5v-83.5h136.5v-70h-136.5v-144.5h-72.5v368zM645.305 302c-24 0 -45.666 5.66699 -65 17c-19.333 11.333 -34.666 28 -46 50c-11.333 22 -17 48.833 -17 80.5c0 19.667 3.66699 38.667 11 57
c7.66699 18.667 18 36.333 31 53c13.334 17 28.667 32.833 46 47.5c17.334 14.667 35.834 27.833 55.5 39.5l48.5 -52.5c-26.666 -10.333 -48.5 -23.667 -65.5 -40c-17 -16 -29.5 -32.667 -37.5 -50c-0.269531 -0.584961 -0.535156 -1.16797 -0.795898 -1.75195
c1.72266 1.66211 3.48926 3.24707 5.2959 4.75195c14.334 11.667 34.167 17.5 59.5 17.5c16 0 31.5 -4.5 46.5 -13.5s27.167 -21.5 36.5 -37.5c9.66699 -16 14.5 -34.667 14.5 -56c0 -24.667 -6 -45.667 -18 -63c-11.666 -17 -26.833 -30 -45.5 -39
c-18.666 -9 -38.333 -13.5 -59 -13.5z" />
    <glyph glyph-name="Adieresis" unicode="&#xc4;" 
d="M0 501.272c0 -94.9453 69.7686 -293.185 87.8613 -342.997c2.66309 -7.33301 8.62793 -12.8682 16.0986 -15.1152l388.838 -116.992c4.69727 -1.41504 9.70703 -1.41504 14.4043 0l388.578 116.914c7.61719 2.29297 13.667 8.01758 16.2695 15.5332
c17.9502 51.8672 87.9502 259.442 87.9502 342.657c0 95.4551 -76.582 177.272 -171.053 177.272c-34.6074 0 -66.8145 -10.6504 -93.7373 -28.9629c1.07715 9.49805 1.63281 19.1631 1.63281 28.9629c0 135.562 -106.038 245.455 -236.843 245.455
s-236.843 -109.894 -236.843 -245.455c0 -9.7998 0.555664 -19.4648 1.63281 -28.9629c-26.9219 18.3125 -59.1289 28.9629 -93.7373 28.9629c-94.4697 0 -171.053 -68.1826 -171.053 -177.272z" />
    <glyph glyph-name="Aring" unicode="&#xc5;" 
d="M0 484.355c0 -6.63086 2.63379 -12.9893 7.32227 -17.6768l135.355 -135.357c4.68848 -4.6875 7.32227 -11.0459 7.32227 -17.6768v-104.289c0 -6.63086 2.63379 -12.9893 7.32227 -17.6768l185.356 -185.357c4.6875 -4.6875 11.0459 -7.32129 17.6768 -7.32129h64.6445
c13.8086 0 25 11.1934 25 25v493.934c0 6.62988 -2.63379 12.9893 -7.32129 17.6777l-306.067 306.066c-4.68848 4.68848 -11.0469 7.32227 -17.6777 7.32227h-58.5781c-6.63086 0 -12.9893 -2.63379 -17.6777 -7.32227l-35.3555 -35.3564
c-4.68848 -4.6875 -7.32227 -11.0459 -7.32227 -17.6768v-304.289zM253.033 902.033c-9.76367 -9.76367 -9.76367 -25.5928 0 -35.3555l229.29 -229.289c9.76367 -9.76367 25.5918 -9.76367 35.3555 0l229.29 229.288c9.76172 9.76367 9.76172 25.5928 0 35.3555
l-89.6475 89.6455c-4.6875 4.68848 -11.0459 7.32227 -17.6768 7.32227h-279.289c-6.63086 0 -12.9893 -2.63379 -17.6768 -7.32227zM881.066 849c-6.62988 0 -12.9883 -2.63379 -17.6768 -7.32227l-306.066 -306.066
c-4.68848 -4.68848 -7.32324 -11.0479 -7.32324 -17.6777v-493.934c0 -13.8066 11.1934 -25 25 -25h64.6445c6.63086 0 12.9893 2.63379 17.6768 7.32129l185.357 185.357c4.6875 4.6875 7.32129 11.0459 7.32129 17.6768v104.289
c0 6.63086 2.63379 12.9893 7.32129 17.6768l135.357 135.357c4.6875 4.6875 7.32129 11.0459 7.32129 17.6768v304.289c0 6.63086 -2.63379 12.9893 -7.32129 17.6768l-35.3574 35.3564c-4.6875 4.68848 -11.0459 7.32227 -17.6768 7.32227h-58.5781z" />
    <glyph glyph-name="AE" unicode="&#xc6;" 
d="M178.033 865.294l304.29 -307.474c9.76367 -9.86523 25.5938 -9.86523 35.3555 0l304.29 307.472c9.76172 9.86523 9.76172 25.8604 0 35.7256l-89.6475 90.583c-4.6875 4.73828 -11.0459 7.39941 -17.6768 7.39941h-429.289
c-6.63086 0 -12.9893 -2.66113 -17.6768 -7.39941l-89.6455 -90.5811c-9.76367 -9.86523 -9.76367 -25.8604 0 -35.7256zM167.679 732.856c-15.75 15.915 -42.6787 4.64355 -42.6787 -17.8613v-63.5283c0 -6.7002 2.63379 -13.127 7.32227 -17.8633l350.001 -353.662
c9.76367 -9.86426 25.5938 -9.86426 35.3555 0l350 353.662c4.6875 4.73633 7.32129 11.1631 7.32129 17.8613v63.5264c0 22.5059 -26.9287 33.7773 -42.6787 17.8643l-314.643 -317.938c-9.76172 -9.86426 -25.5918 -9.86426 -35.3555 0zM875 437.115
c0 22.5049 -26.9287 33.7744 -42.6787 17.8613l-314.643 -317.935c-9.76172 -9.86523 -25.5918 -9.86523 -35.3555 0l-314.645 317.938c-15.75 15.9131 -42.6787 4.64258 -42.6787 -17.8643v-59.1934c0 -6.69922 2.63379 -13.125 7.32227 -17.8613l349.999 -353.663
c9.76367 -9.86523 25.5938 -9.86523 35.3574 0l350 353.663c4.6875 4.73633 7.32129 11.1621 7.32129 17.8613v59.1924z" />
    <glyph glyph-name="Ccedilla" unicode="&#xc7;" 
d="M511.18 993.411c-7.03809 3.51855 -15.3213 3.51855 -22.3594 0l-375.001 -187.501c-8.46973 -4.2334 -13.8193 -12.8906 -13.8193 -22.3604v-259.55c0 -13.8066 11.1924 -25 25 -25h750c13.8066 0 25 11.1934 25 25v259.55c0 9.46973 -5.34961 18.127 -13.8203 22.3604z
M132.731 -1h258.425c20.2041 0 32.0625 22.7217 20.5107 39.2949l-185.744 266.503c-12.126 17.3984 -39.0479 12.7441 -44.6279 -7.71777l-72.6826 -266.502c-4.33789 -15.9033 7.63477 -31.5781 24.1191 -31.5781zM891.389 30.5781l-72.6816 266.5
c-5.58203 20.4619 -32.502 25.1172 -44.6299 7.7168l-185.742 -266.5c-11.5518 -16.5732 0.308594 -39.2949 20.5098 -39.2949h258.424c16.4844 0 28.4561 15.6748 24.1201 31.5781zM520.512 115.872l178.656 256.335c11.5518 16.5732 -0.306641 39.293 -20.5098 39.293
h-357.314c-20.2021 0 -32.0625 -22.7197 -20.5107 -39.293l178.658 -256.335c9.94922 -14.2734 31.0723 -14.2734 41.0205 0z" />
    <glyph glyph-name="Egrave" unicode="&#xc8;" 
d="M500 824l-125 125h-175l-200 -200v-250l500 -450l500 450v250l-200 200h-175z" />
    <glyph glyph-name="Eacute" unicode="&#xc9;" 
d="M408.84 899l-408.84 -108.58l190.028 -716.42l72.2314 19.5518l-95.0127 358.21l126.406 34.2168l-80.7617 304.479l210.2 54.8115zM431.025 388.787l68.6377 402.506l-195.535 -52.9268l95.0137 -358.21zM882.44 881.898h-212.74l-170.037 -370.847h42.5322z
M524.983 432.066l380.003 -102.858l-105.861 220.619l200.875 137.591l-51.3516 13.9004z" />
    <glyph glyph-name="Ecircumflex" unicode="&#xca;" 
d="M122.771 983.146c-7.82227 21.1396 -37.7207 21.1396 -45.543 0l-12.7021 -34.3262c-2.45898 -6.64648 -7.69922 -11.8867 -14.3457 -14.3457l-34.3262 -12.7021c-21.1396 -7.82227 -21.1396 -37.7207 0 -45.543l34.3262 -12.7021
c6.64648 -2.45898 11.8867 -7.69922 14.3457 -14.3457l12.7021 -34.3252c7.82227 -21.1406 37.7207 -21.1406 45.543 0l12.7021 34.3252c2.45898 6.64648 7.69922 11.8867 14.3457 14.3457l34.3252 12.7021c21.1406 7.82227 21.1406 37.7207 0 45.543l-34.3252 12.7021
c-6.64648 2.45898 -11.8867 7.69922 -14.3457 14.3457zM657.292 924l-457.292 -122.531l181.526 -677.469l67.749 18.1533l-90.7656 338.733l118.559 31.7686l-77.1504 287.923l270.988 72.6113zM576.582 412.25l423.418 113.455l-188.708 130.963l97.9443 207.771
l-423.418 -113.454zM157.921 212.108l-9.52637 -25.7432c-1.84473 -4.98535 -5.77441 -8.91504 -10.7588 -10.7598l-25.7451 -9.52734c-15.8545 -5.86621 -15.8545 -28.29 0 -34.1562l25.7451 -9.52734c4.98438 -1.84473 8.91406 -5.77441 10.7588 -10.7598
l9.52637 -25.7432c5.86719 -15.8545 28.291 -15.8545 34.1572 0l9.52734 25.7432c1.84473 4.98535 5.77441 8.91504 10.7598 10.7598l25.7432 9.52734c15.8545 5.86621 15.8545 28.29 0 34.1562l-25.7432 9.52734c-4.98535 1.84473 -8.91504 5.77441 -10.7598 10.7598
l-9.52734 25.7432c-5.86621 15.8545 -28.29 15.8545 -34.1572 0zM884.158 275.219c-11.7334 31.708 -56.583 31.708 -68.3164 0l-19.0518 -51.4902c-3.69043 -9.96875 -11.5498 -17.8281 -21.5186 -21.5186l-51.4902 -19.0518c-31.708 -11.7334 -31.708 -56.583 0 -68.3164
l51.4902 -19.0518c9.96875 -3.69043 17.8281 -11.5498 21.5186 -21.5186l19.0518 -51.4902c11.7334 -31.708 56.583 -31.708 68.3164 0l19.0518 51.4902c3.69043 9.96875 11.5498 17.8281 21.5186 21.5186l51.4902 19.0518c31.708 11.7334 31.708 56.583 0 68.3164
l-51.4902 19.0518c-9.96875 3.69043 -17.8281 11.5498 -21.5186 21.5186z" />
    <glyph glyph-name="Edieresis" unicode="&#xcb;" 
d="M0 973.738v-368.46c0 -6.7002 2.66113 -13.125 7.39941 -17.8633l328.4 -328.4c15.9131 -15.9131 43.123 -4.64258 43.123 17.8633v317.938c0 13.9512 11.3105 25.2617 25.2617 25.2617h317.938c22.5059 0 33.7764 27.21 17.8633 43.123l-328.4 328.4
c-4.73828 4.73828 -11.1631 7.39941 -17.8633 7.39941h-368.46c-13.9521 0 -25.2617 -11.3096 -25.2617 -25.2617zM252.616 822.168c0 -41.8545 -33.9297 -75.7842 -75.7842 -75.7842c-41.8555 0 -75.7861 33.9297 -75.7861 75.7842
c0 41.8555 33.9307 75.7861 75.7861 75.7861c41.8545 0 75.7842 -33.9307 75.7842 -75.7861zM479.97 125.309c0 -6.7002 2.66211 -13.125 7.39844 -17.8633l101.047 -101.047c9.86523 -9.86523 25.8604 -9.86523 35.7246 0l368.462 368.462
c9.86523 9.86426 9.86523 25.8594 0 35.7246l-101.047 101.047c-4.73828 4.73633 -11.1631 7.39844 -17.8633 7.39844h-368.46c-13.9512 0 -25.2617 -11.3105 -25.2617 -25.2617v-368.46z" />
    <glyph glyph-name="Igrave" unicode="&#xcc;" 
d="M100 874v-178.571c0 -13.8086 11.1924 -25 25 -25h178.571c13.8086 0 25 11.1914 25 24.998v178.573c0 13.8076 -11.1914 25 -24.998 25h-178.573c-13.8076 0 -25 -11.1924 -25 -25zM385.73 874v-178.571c0 -13.8086 11.1924 -25 25 -25h178.571
c13.8086 0 25 11.1914 25 24.998v178.573c0 13.8076 -11.1914 25 -25 25h-178.571c-13.8076 0 -25 -11.1924 -25 -25zM696.423 899c-13.8066 0 -25 -11.1924 -25 -25v-178.571c0 -13.8086 11.1934 -25 25 -25h178.572c13.8086 0 25 11.1914 25 24.998v178.573
c0 13.8076 -11.1914 25 -24.998 25h-178.574zM100 588.28v-178.573c0 -13.8066 11.1924 -25 25 -25h178.571c13.8086 0 25 11.1934 25 25v178.573c0 13.8066 -11.1914 25 -24.998 25h-178.573c-13.8076 0 -25 -11.1934 -25 -25zM410.73 613.28
c-13.8076 0 -25 -11.1934 -25 -25v-178.573c0 -13.8066 11.1924 -25 25 -25h178.571c13.8086 0 25 11.1934 25 25v178.573c0 13.8066 -11.1914 25 -25 25h-178.571zM671.423 588.28v-178.573c0 -13.8066 11.1934 -25 25 -25h178.572c13.8086 0 25 11.1934 25 25v178.573
c0 13.8066 -11.1914 25 -24.998 25h-178.574c-13.8066 0 -25 -11.1934 -25 -25zM125 327.573c-13.8076 0 -25 -11.1934 -25 -25v-178.571c0 -13.8086 11.1924 -25 25 -25h178.571c13.8086 0 25 11.1914 25 25v178.571c0 13.8066 -11.1914 25 -24.998 25h-178.573z
M385.73 302.573v-178.571c0 -13.8086 11.1924 -25 25 -25h178.571c13.8086 0 25 11.1914 25 25v178.571c0 13.8066 -11.1914 25 -25 25h-178.571c-13.8076 0 -25 -11.1934 -25 -25zM696.423 327.573c-13.8066 0 -25 -11.1934 -25 -25v-178.571
c0 -13.8086 11.1934 -25 25 -25h178.572c13.8086 0 25 11.1914 25 25v178.571c0 13.8066 -11.1914 25 -24.998 25h-178.574z" />
    <glyph glyph-name="Iacute" unicode="&#xcd;" 
d="M875 874c0 13.8076 -11.1934 25 -25 25h-700c-13.8076 0 -25 -11.1924 -25 -25v-150c0 -13.8066 11.1924 -25 25 -25h700c13.8066 0 25 11.1934 25 25v150zM875 274c0 13.8066 -11.1934 25 -25 25h-700c-13.8076 0 -25 -11.1934 -25 -25v-150
c0 -13.8066 11.1924 -25 25 -25h700c13.8066 0 25 11.1934 25 25v150zM850 599h-700c-13.8076 0 -25 -11.1934 -25 -25v-150c0 -13.8066 11.1924 -25 25 -25h700c13.8066 0 25 11.1934 25 25v150c0 13.8066 -11.1934 25 -25 25z" />
    <glyph glyph-name="Icircumflex" unicode="&#xce;" 
d="M0 999v-225h55.5557l55.5557 55.5547h27.7773h722.223h27.7773l55.5566 -55.5547h55.5547v225h-55.5547l-55.5566 -55.5557h-777.777l-55.5557 55.5557h-55.5557zM138.889 724v-534.941l361.111 -190.059v231.422l60 60v86.5684l122.01 122.01h179.102v225h-722.223z
M876.568 399h-153.137l-63.4316 -63.4316v-106.568h-20l-40 -40v-150l40 -40h320l40 40v150l-40 40h-20v106.568zM860 229h-120v73.4316l16.5684 16.5684h86.8633l16.5684 -16.5684v-73.4316z" />
    <glyph glyph-name="Idieresis" unicode="&#xcf;" 
d="M875 949h-750l-50 50h-75v-200h75l50 50h750l50 -50h75v200h-75zM875 749h-750v-553.389l375 -196.611l375 196.611v553.389zM500 111.912l-275 144.182v392.906h550v-392.906z" />
    <glyph glyph-name="Eth" unicode="&#xd0;" 
d="M125 949l-50 50h-75v-200h75l50 50h750l50 -50h75v200h-75l-50 -50h-750zM125 749v-553.389l375 -196.611v112.912l-275 144.182v392.906h550v-150h100v250h-750zM876.568 399h-153.137l-63.4316 -63.4316v-106.568h-20l-40 -40v-150l40 -40h320l40 40v150l-40 40h-20
v106.568zM860 229h-120v73.4316l16.5684 16.5684h86.8633l16.5684 -16.5684v-73.4316z" />
    <glyph glyph-name="Ntilde" unicode="&#xd1;" 
d="M268.349 572.368l-227.091 169.219c-19.4619 14.501 -46.2861 -3.48828 -40.4424 -27.124l134.069 -542.335c2.19531 -8.87793 8.87598 -15.9414 17.5859 -18.5898l340.051 -103.427c4.87695 -1.48145 10.0801 -1.48145 14.957 0l340.05 103.427
c8.71191 2.64844 15.3916 9.71191 17.5869 18.5898l134.069 542.335c5.84375 23.6357 -20.9814 41.625 -40.4434 27.124l-227.09 -169.219c-13.0029 -9.68945 -31.5664 -5.10449 -38.6211 9.54199l-169.787 352.442c-9.4082 19.5303 -37.0781 19.5303 -46.4863 0
l-169.787 -352.442c-7.05469 -14.6465 -25.6182 -19.2314 -38.6211 -9.54199zM397.062 538.51l102.938 213.681l102.938 -213.681c34.2051 -71.001 124.807 -93.7646 188.465 -46.3281l61.0713 45.5088l-74.3447 -300.737l-278.13 -84.5928l-278.13 84.5928
l-74.3447 300.737l61.0713 -45.5088c63.6582 -47.4365 154.262 -24.6719 188.465 46.3281zM232.347 745.682c13.0029 -9.69043 31.5664 -5.10352 38.623 9.54297l4.20312 8.72559c3.58594 7.44141 3.43066 16.1533 -0.416016 23.4619l-37.9248 72.0654
c-11.1357 21.1582 -42.3975 17.1846 -47.9453 -6.09375l-11.2646 -47.2686c-2.41211 -10.1221 1.4209 -20.7139 9.73828 -26.9102zM729.02 755.225c7.05566 -14.6465 25.6191 -19.2334 38.6221 -9.54297l44.9863 33.5215c8.31738 6.19824 12.1504 16.79 9.7373 26.9121
l-11.2656 47.2686c-5.5459 23.2783 -36.8076 27.252 -47.9434 6.09375l-37.9248 -72.0645c-3.84668 -7.30762 -4 -16.0215 -0.416016 -23.4609z" />
    <glyph glyph-name="Ograve" unicode="&#xd2;" 
d="M550 974c0 13.8066 -11.1934 25 -25 25h-50c-13.8066 0 -25 -11.1924 -25 -25v-50c0 -13.8076 -11.1934 -25 -25 -25h-350.001c-13.8066 0 -25 -11.1924 -25 -25v-50c0 -13.8066 11.1934 -25 25 -25h350.001c13.8066 0 25 -11.1934 25 -25v-133.304
c-0.00195312 -17.8232 18.1152 -29.9209 34.5771 -23.0928l5.84473 2.42285c6.13184 2.54395 13.0234 2.54395 19.1553 0l5.84473 -2.42285c16.4619 -6.82812 34.5762 5.26953 34.5781 23.0918v133.305c0 13.8066 11.1914 25 25 25h349.998c13.8086 0 25 11.1934 25 25v50
c0 13.8076 -11.1914 25 -25 25h-349.998c-13.8066 0 -25 11.1934 -25 25v50zM509.304 529.72c-5.97168 2.39551 -12.6367 2.39551 -18.6084 0l-440.794 -176.743c-13.459 -5.39648 -19.5186 -21.0752 -13.1855 -34.1211l112.061 -230.849
c4.83203 -9.95312 15.625 -15.4551 26.6318 -14.335c11.958 1.21777 25.0723 1.88965 39.5898 1.88965c80.1768 0 117.542 -20.4844 153.618 -40.2637c33.6689 -18.4561 66.2139 -36.2979 131.382 -36.2979c65.1699 0 97.7148 17.8418 131.384 36.2979
c36.0752 19.7793 73.4414 40.2637 153.616 40.2637c14.5186 0 27.6338 -0.671875 39.5918 -1.88965c11.0068 -1.12012 21.7998 4.38184 26.6318 14.335l112.06 230.849c6.33398 13.0459 0.275391 28.7246 -13.1846 34.1211zM149.999 528.445
c0 -17.8252 18.1191 -29.9238 34.583 -23.0918l150 62.248c9.33301 3.87305 15.416 12.9854 15.416 23.0918v83.3066c0 13.8066 -11.1914 25 -25 25h-150c-13.8057 0 -24.999 -11.1934 -24.999 -25v-145.555zM849.998 528.445v145.555c0 13.8066 -11.1914 25 -25 25h-150
c-13.8066 0 -25 -11.1934 -25 -25v-83.3066c0 -10.1064 6.08496 -19.2188 15.4189 -23.0918l150 -62.248c16.4629 -6.83203 34.5811 5.2666 34.5811 23.0918z" />
    <glyph glyph-name="Oacute" unicode="&#xd3;" 
d="M629.276 499l-129.276 129.276l-129.276 -129.276l129.276 -129.276zM717.678 352.046c9.76367 -9.76367 9.76367 -25.6084 0 -35.3721l-35.3516 -35.3516c-9.7627 -9.76367 -25.6084 -9.76367 -35.3721 0l-46.9541 46.9541l-82.3223 -82.3223
c-9.74609 -9.74609 -25.6094 -9.74609 -35.3555 0l-82.3223 82.3223l-46.9541 -46.9541c-9.76367 -9.76367 -25.6084 -9.76367 -35.3721 0l-35.3516 35.3516c-9.76367 9.7627 -9.76367 25.6084 0 35.3721l46.9541 46.9541l-50 50h-279.276v-350h1000v350h-279.276l-50 -50z
M1000 549v199.996l-150.004 150.004h-99.9961v-350h250zM450 719.724v54.2764c0 13.8193 11.1807 25 25 25h50c13.8193 0 25 -11.1807 25 -25v-54.2764l100 -100v279.276h-300v-279.276zM0 748.996v-199.996h250v350h-99.9961zM500 534.014l35.0137 -35.0137
l-35.0137 -35.0137l-35.0137 35.0137zM600 234.015c35.8232 -35.6328 93.7061 -35.5752 129.458 0.175781l35.3516 35.3516c30.6104 30.6113 35.0605 77.458 13.3184 112.791h155.205v-216.666h-866.666v216.666h155.205
c-21.7422 -35.333 -17.292 -82.1797 13.3184 -112.791l35.3516 -35.3516c35.751 -35.75 93.6338 -35.8096 129.458 -0.175781l35.1904 -35.1914c35.7949 -35.7939 93.8252 -35.7939 129.619 0zM933.333 615.667h-116.666v216.666h5.7334l110.933 -110.933v-105.733z
M66.667 615.667v105.733l110.933 110.933h5.7334v-216.666h-116.666zM33.333 735.193v-152.86h183.334v283.334h-52.8594zM416.667 733.517v40.4834c0 32.2168 26.1162 58.333 58.333 58.333h50c32.2168 0 58.333 -26.1162 58.333 -58.333v-40.4814l33.334 -33.334v165.482
h-233.334v-165.483zM966.667 582.333v152.86l-130.474 130.474h-52.8604v-283.334h183.334zM717.852 399l23.3965 -23.3965c22.7803 -22.7803 22.7803 -59.7148 0 -82.4971l-35.3545 -35.3545c-22.7822 -22.7803 -59.7168 -22.7803 -82.4971 0l-23.3965 23.3965
l-58.752 -58.752c-22.7812 -22.7803 -59.7148 -22.7803 -82.4961 0l-58.752 58.752l-23.3965 -23.3965c-22.7803 -22.7803 -59.7148 -22.7803 -82.4971 0l-35.3545 35.3545c-22.7803 22.7822 -22.7803 59.7168 0 82.4971l23.3965 23.3965l-16.667 16.667h-232.148v-283.334
h933.334v283.334h-232.148zM582.15 499l-82.1504 82.1484l-82.1484 -82.1484l82.1484 -82.1484z" />
    <glyph glyph-name="Ocircumflex" unicode="&#xd4;" 
d="M650 774.167c0 11.1133 -7.33691 20.8926 -18.0049 24.001l-125 36.4287c-4.56836 1.33105 -9.42188 1.33105 -13.9902 0l-125 -36.4287c-10.668 -3.1084 -18.0049 -12.8877 -18.0049 -24.001v-49.9189c0 -11.1133 7.33691 -20.8916 18.0049 -24.001l125 -36.4287
c4.56836 -1.33008 9.42188 -1.33008 13.9902 0l125 36.4287c10.668 3.10938 18.0049 12.8877 18.0049 24.001v49.9189zM500 999c-276.142 0 -500 -111.836 -500 -249.792v-99.918c0 -137.955 223.858 -249.792 500 -249.792s500 111.837 500 249.792v99.918
c0 137.956 -223.858 249.792 -500 249.792zM750 773.665v-48.915c0 -11.1387 7.36816 -20.9336 18.0713 -24.0195l37.4102 -10.79c19.0615 -5.49902 24.4316 -29.9453 9.43066 -42.9268l-4.89746 -4.2373c-6.39648 -5.53516 -15.1582 -7.45996 -23.2861 -5.11426
l-87.2422 25.1631c-4.42285 1.27637 -9.11328 1.30664 -13.5527 0.0869141l-117.557 -32.3018c-10.8555 -2.9834 -18.377 -12.8506 -18.377 -24.1074v-19.6396c0 -13.8066 -11.1934 -25 -25 -25h-50c-13.8066 0 -25 11.1934 -25 25v19.6396
c0 11.2568 -7.52148 21.124 -18.377 24.1074l-117.557 32.3018c-4.43945 1.21973 -9.12793 1.18945 -13.5518 -0.0869141l-87.2432 -25.1631c-8.12793 -2.3457 -16.8896 -0.420898 -23.2861 5.11426l-4.89746 4.2373c-15.001 12.9814 -9.63086 37.4277 9.43066 42.9268
l37.4102 10.79c10.7031 3.08594 18.0713 12.8809 18.0713 24.0195v48.915c0 11.1387 -7.36816 20.9336 -18.0713 24.0195l-37.4102 10.79c-19.0615 5.49902 -24.4316 29.9453 -9.43066 42.9268l4.89746 4.23633c6.39648 5.53516 15.1582 7.46094 23.2861 5.11621
l87.2432 -25.1641c4.42383 -1.27539 9.1123 -1.30566 13.5518 -0.0859375l117.557 32.3018c10.8555 2.98242 18.377 12.8506 18.377 24.1064v19.6396c0 13.8076 11.1934 25 25 25h50c13.8066 0 25 -11.1924 25 -25v-19.6396c0 -11.2559 7.52148 -21.124 18.377 -24.1064
l117.557 -32.3018c4.43945 -1.21973 9.12988 -1.18945 13.5527 0.0859375l87.2422 25.1641c8.12793 2.34473 16.8896 0.418945 23.2861 -5.11621l4.89746 -4.23633c15.001 -12.9814 9.63086 -37.4277 -9.43066 -42.9268l-37.4102 -10.79
c-10.7031 -3.08594 -18.0713 -12.8809 -18.0713 -24.0195zM101.726 383.293c-57.2949 28.624 -101.726 67.5088 -101.726 66.1641c0 -137.957 223.858 -249.792 500 -249.792s500 111.835 500 249.792c0 1.34473 -44.4297 -37.54 -101.725 -66.1641
c-107.096 -53.5029 -248.045 -83.7109 -398.275 -83.7109s-291.18 30.208 -398.274 83.7109zM101.726 182.628c-57.2949 28.624 -101.726 67.5088 -101.726 66.1641c0 -137.957 223.858 -249.792 500 -249.792s500 111.835 500 249.792
c0 1.34473 -44.4297 -37.54 -101.725 -66.1641c-107.096 -53.5029 -248.045 -83.7109 -398.275 -83.7109s-291.18 30.208 -398.274 83.7109z" />
    <glyph glyph-name="Otilde" unicode="&#xd5;" 
d="M650 572.14c0 8.8916 -4.72363 17.1152 -12.4033 21.5957l-125 72.916c-7.7832 4.54199 -17.4102 4.54199 -25.1934 0l-125 -72.916c-7.67969 -4.48047 -12.4033 -12.7041 -12.4033 -21.5957v-146.279c0 -8.8916 4.72363 -17.1152 12.4033 -21.5957l125 -72.916
c7.7832 -4.54199 17.4102 -4.54199 25.1934 0l125 72.916c7.67969 4.48047 12.4033 12.7041 12.4033 21.5957v146.279zM1000 499c0 276.142 -223.858 500 -500 500s-500 -223.858 -500 -500s223.858 -500 500 -500s500 223.858 500 500zM750 571.168v-144.336
c0 -8.93164 4.76465 -17.1855 12.5 -21.6523l65.6084 -37.8779c11.958 -6.90332 16.0547 -22.1934 9.15137 -34.1514l-25 -43.3008c-6.90332 -11.958 -22.1934 -16.0547 -34.1514 -9.15137l-73.1855 42.2539c-7.57324 4.37305 -16.8828 4.46973 -24.5459 0.254883
l-117.425 -64.584c-7.98926 -4.39258 -12.9521 -12.7881 -12.9521 -21.9043v-87.7188c0 -13.8066 -11.1934 -25 -25 -25h-50c-13.8066 0 -25 11.1934 -25 25v87.7188c0 9.11621 -4.96289 17.5117 -12.9521 21.9043l-117.425 64.584
c-7.66309 4.21484 -16.9727 4.11816 -24.5459 -0.254883l-73.1855 -42.2539c-11.958 -6.90332 -27.248 -2.80664 -34.1514 9.15137l-25 43.3008c-6.90332 11.958 -2.80664 27.248 9.15137 34.1514l65.6084 37.8779c7.73535 4.4668 12.5 12.7207 12.5 21.6523v144.336
c0 8.93164 -4.76465 17.1855 -12.5 21.6523l-65.6084 37.8779c-11.958 6.90332 -16.0547 22.1934 -9.15137 34.1514l25 43.3008c6.90332 11.958 22.1934 16.0547 34.1514 9.15137l73.1855 -42.2539c7.57324 -4.37305 16.8828 -4.46973 24.5459 -0.254883l117.425 64.584
c7.98926 4.39258 12.9521 12.7881 12.9521 21.9043v87.7188c0 13.8076 11.1934 25 25 25h50c13.8066 0 25 -11.1924 25 -25v-87.7188c0 -9.11621 4.96289 -17.5117 12.9521 -21.9043l117.425 -64.584c7.66309 -4.21484 16.9727 -4.11816 24.5459 0.254883l73.1855 42.2539
c11.958 6.90332 27.248 2.80664 34.1514 -9.15137l25 -43.3008c6.90332 -11.958 2.80664 -27.248 -9.15137 -34.1514l-65.6084 -37.8779c-7.73535 -4.4668 -12.5 -12.7207 -12.5 -21.6523z" />
    <glyph glyph-name="Odieresis" unicode="&#xd6;" 
d="M25 721.304h42.6914c18.5195 0 30.7354 -19.5068 23.9053 -36.7207c-25.6406 -64.6279 -41.0801 -141.438 -41.0801 -229.319c0 -166.954 75.0186 -277.622 175.71 -340.172c93.1006 -57.832 200.122 -70.0781 271.94 -65.0781
c1.2334 0.0849609 2.43262 0.0849609 3.66602 0c71.8184 -5 178.84 7.24609 271.94 65.0781c100.691 62.5498 175.71 173.218 175.71 340.172c0 87.8809 -15.4404 164.691 -41.0801 229.319c-6.83008 17.2139 5.38477 36.7207 23.9053 36.7207h42.6914
c13.8066 0 25 11.1914 25 25v152.696c0 13.8076 -11.1934 25 -25 25h-328.875c-13.8066 0 -25 -11.1924 -25 -25v-152.696c0 -13.8086 10.9404 -27.8975 22.7236 -35.0957c11.2246 -6.85645 25.5879 -18.248 40.71 -37.0576
c31.0762 -38.6553 62.8584 -107.242 62.8584 -218.887c0 -96.5557 -38.6436 -142.132 -80.0283 -167.841c-48.1836 -29.9316 -117.389 -35.1348 -167.389 -35.1348s-119.205 5.20312 -167.389 35.1348c-41.3848 25.709 -80.0283 71.2852 -80.0283 167.841
c0 111.645 31.7822 180.231 62.8584 218.887c15.124 18.8096 29.4854 30.2012 40.71 37.0576c11.7832 7.19824 22.7236 21.2871 22.7236 35.0957v152.696c0 13.8076 -11.1934 25 -25 25h-328.875c-13.8066 0 -25 -11.1924 -25 -25v-152.696c0 -13.8086 11.1924 -25 25 -25z
M356.6 514.934c-8.7998 -8.7998 -8.7998 -23.0674 0 -31.8672l127.467 -127.467c8.7998 -8.7998 23.0674 -8.7998 31.8672 0l127.467 127.467c8.7998 8.7998 8.7998 23.0674 0 31.8672l-127.467 127.467c-8.7998 8.7998 -23.0674 8.7998 -31.8672 0z" />
    <glyph glyph-name="multiply" unicode="&#xd7;" 
d="M757.321 991.678c-4.6875 4.68848 -11.0459 7.32227 -17.6768 7.32227h-479.289c-6.63086 0 -12.9893 -2.63379 -17.6768 -7.32227l-235.356 -235.356c-4.68848 -4.6875 -7.32227 -11.0459 -7.32227 -17.6768v-64.6445c0 -13.8066 11.1934 -25 25 -25h950
c13.8066 0 25 11.1934 25 25v64.6445c0 6.63086 -2.63379 12.9893 -7.32129 17.6768zM100 524v-100c0 -13.8066 -11.1924 -25 -25 -25h-50c-13.8066 0 -25 -11.1934 -25 -25v-50c0 -13.8066 11.1934 -25 25 -25h950c13.8066 0 25 11.1934 25 25v50
c0 13.8066 -11.1934 25 -25 25h-50c-13.8066 0 -25 11.1934 -25 25v100c0 13.8066 -11.1934 25 -25 25h-50c-13.8066 0 -25 -11.1934 -25 -25v-100c0 -13.8066 -11.1934 -25 -25 -25h-550c-13.8066 0 -25 11.1934 -25 25v100c0 13.8066 -11.1934 25 -25 25h-50
c-13.8076 0 -25 -11.1934 -25 -25zM900 174c0 13.8066 -11.1934 25 -25 25h-750c-13.8076 0 -25 -11.1934 -25 -25v-150c0 -13.8066 11.1924 -25 25 -25h750c13.8066 0 25 11.1934 25 25v150z" />
    <glyph glyph-name="Oslash" unicode="&#xd8;" 
d="M500 -1c276.142 0 500 223.858 500 500s-223.858 500 -500 500s-500 -223.858 -500 -500s223.858 -500 500 -500zM537.5 149c-6.90332 0 -12.5 5.59668 -12.5 12.5v116.972c0 12.6104 9.44629 23.0781 21.7119 26.0137c20.7031 4.95312 40.1562 13.126 57.7998 23.9609
c10.7412 6.5957 24.8164 5.86914 33.7295 -3.04492l82.7285 -82.7285c4.88184 -4.88086 4.88184 -12.7959 0 -17.6758c-4.88184 -4.88184 -4.88184 -12.7969 0 -17.6768l6.70312 -6.7041c9.34863 -9.34961 8.40918 -24.8213 -2.5127 -32.2725
c-44.5537 -30.3975 -95.5654 -52.0234 -150.552 -62.3984c-12.998 -2.45215 -24.6084 7.83105 -24.6084 21.0576v9.49707c0 6.90332 -5.59668 12.5 -12.5 12.5zM453.288 304.485c12.2656 -2.93555 21.7119 -13.4033 21.7119 -26.0137v-116.972
c0 -6.90332 -5.59668 -12.5 -12.5 -12.5s-12.5 -5.59668 -12.5 -12.5v-9.49707c0 -13.2266 -11.6104 -23.5098 -24.6084 -21.0576c-54.9863 10.375 -106 32.001 -150.552 62.3984c-10.9219 7.45117 -11.8633 22.9229 -2.5127 32.2725l6.70117 6.70215
c4.88184 4.88184 4.88184 12.7969 0 17.6787c-4.88184 4.88086 -4.88184 12.7949 0 17.6758l82.7285 82.7305c8.91309 8.91309 22.9883 9.63965 33.7295 3.04297c17.6436 -10.835 37.0967 -19.0078 57.8018 -23.9609zM279.472 474
c12.6104 0 23.0781 -9.44629 26.0137 -21.7119c4.95312 -20.7051 13.126 -40.1562 23.9609 -57.7998c6.59668 -10.7412 5.86914 -24.8164 -3.04492 -33.7295l-82.7285 -82.7305c-4.88086 -4.87988 -12.7959 -4.87988 -17.6777 0
c-4.87988 4.88184 -12.7949 4.88184 -17.6768 0l-6.70215 -6.70117c-9.34961 -9.34863 -24.8213 -8.40918 -32.2725 2.5127c-30.3975 44.5537 -52.0244 95.5654 -62.3984 150.552c-2.45215 12.998 7.83105 24.6084 21.0586 24.6084h9.49609
c6.90332 0 12.5 5.59668 12.5 12.5s5.59668 12.5 12.5 12.5h116.972zM326.401 637.241c8.91406 -8.91309 9.64062 -22.9883 3.04492 -33.7295c-10.835 -17.6436 -19.0078 -37.0967 -23.9609 -57.7998c-2.93555 -12.2656 -13.4033 -21.7119 -26.0137 -21.7119h-116.972
c-6.90332 0 -12.5 5.59668 -12.5 12.5s-5.59668 12.5 -12.5 12.5h-9.49609c-13.2275 0 -23.5107 11.6104 -21.0586 24.6084c10.374 54.9863 32.001 106 62.3984 150.552c7.45117 10.9229 22.9248 11.8633 32.2725 2.5127l6.7041 -6.70312
c4.88184 -4.87988 12.7949 -4.87988 17.6768 0c4.88086 4.88184 12.7949 4.88184 17.6748 0zM475 719.528c0 -12.6104 -9.44629 -23.0781 -21.7119 -26.0137c-20.7051 -4.95312 -40.1582 -13.126 -57.8018 -23.9609c-10.7412 -6.59668 -24.8164 -5.87012 -33.7295 3.04297
l-82.7266 82.7266c-4.88379 4.88184 -4.88379 12.7988 0 17.6797c4.88184 4.88184 4.88184 12.7969 0 17.6807l-6.70215 6.7002c-9.34961 9.34961 -8.4082 24.8232 2.51367 32.2744c44.5518 30.3955 95.5635 52.0225 150.55 62.3965
c12.998 2.45215 24.6084 -7.83105 24.6084 -21.0586v-9.49609c0 -6.90332 5.59668 -12.5 12.5 -12.5s12.5 -5.59668 12.5 -12.5v-116.972zM638.241 672.599c-8.91309 -8.91406 -22.9883 -9.6416 -33.7295 -3.04492c-17.6436 10.835 -37.0947 19.0078 -57.7998 23.9609
c-12.2656 2.93555 -21.7119 13.4033 -21.7119 26.0137v116.972c0 6.90332 5.59668 12.5 12.5 12.5s12.5 5.59668 12.5 12.5v9.49609c0 13.2275 11.6104 23.5107 24.6084 21.0586c54.9883 -10.374 106 -32.002 150.552 -62.3984
c10.9229 -7.45117 11.8633 -22.9229 2.5127 -32.2725l-6.70117 -6.7041c-4.88184 -4.87988 -4.88184 -12.7949 0 -17.6768c4.88184 -4.87988 4.88184 -12.7949 0 -17.6758zM720.528 524c-12.6104 0 -23.0781 9.44629 -26.0137 21.7119
c-4.95312 20.7051 -13.126 40.1582 -23.9609 57.8018c-6.59668 10.7412 -5.87012 24.8164 3.04297 33.7295l82.7285 82.7285c4.88184 4.88184 12.7979 4.88184 17.6797 0c4.88184 -4.88379 12.7969 -4.88379 17.6787 0l6.70117 6.7002
c9.34863 9.34961 24.8223 8.41016 32.2734 -2.51367c30.3955 -44.5518 52.0215 -95.5635 62.3965 -150.55c2.45215 -12.998 -7.83105 -24.6084 -21.0576 -24.6084h-9.49707c-6.90332 0 -12.5 -5.59668 -12.5 -12.5s-5.59668 -12.5 -12.5 -12.5h-116.972zM673.597 360.757
c-8.91309 8.91309 -9.63965 22.9883 -3.04297 33.7295c10.835 17.6436 19.0078 37.0967 23.9609 57.8018c2.93555 12.2656 13.4033 21.7119 26.0137 21.7119h116.972c6.90332 0 12.5 -5.59668 12.5 -12.5s5.59668 -12.5 12.5 -12.5h9.49707
c13.2266 0 23.5098 -11.6104 21.0576 -24.6084c-10.375 -54.9863 -32.001 -105.998 -62.3984 -150.55c-7.45117 -10.9238 -22.9229 -11.8633 -32.2725 -2.51465l-6.70215 6.70117c-4.88184 4.88379 -12.7969 4.88379 -17.6787 0
c-4.88086 -4.88184 -12.7959 -4.88184 -17.6797 0z" />
    <glyph glyph-name="Ugrave" unicode="&#xd9;" 
d="M0 499.03c0 -251.277 184.813 -459.273 425.587 -494.8c22.2852 -3.28906 33.9512 22.8545 18.0449 38.8027l-40.6221 40.7285c-9.7334 9.75781 -9.7334 25.5518 0 35.3096l6.35645 6.375c7.82031 7.83887 20.5176 7.83887 28.3359 0
c12.5977 -12.6309 34.1758 -3.70996 34.1758 14.1309v172.239c0 13.8086 -11.1914 25 -25 25h-65.1084c-11.8945 0 -21.9092 -8.49121 -26.0078 -19.6582c-18.9619 -51.6465 -68.4717 -88.4834 -126.563 -88.4834c-74.46 0 -134.822 60.5215 -134.822 135.179
c0 17.3086 3.24414 33.8584 9.15723 49.0693c4.05371 10.4268 2.61133 22.5557 -5.28906 30.4775l-18.8086 18.8584c-9.73242 9.75586 -9.73242 25.5498 0 35.3076l2.82422 2.83203c9.76855 9.79492 25.6338 9.79492 35.4014 0l13.7705 -13.8066
c8.89062 -8.91309 22.9209 -9.58203 34.002 -3.60645c18.9844 10.2363 40.6982 16.0449 63.7646 16.0449c58.0918 0 107.602 -36.8369 126.563 -88.4834c4.09863 -11.167 14.1133 -19.6582 26.0078 -19.6582h65.1084c13.8086 0 25 11.1934 25 25v18.7344
c0 6.61816 -2.625 12.9668 -7.29785 17.6533l-82.9521 83.1699c-9.73145 9.75684 -9.73145 25.5508 0 35.3086l59.1602 59.3154c9.73145 9.75781 9.73145 25.5518 0 35.3076l-126.569 126.903c-9.7334 9.75879 -9.7334 25.5518 0 35.3105l126.741 127.075
c15.9482 15.9902 4.18359 42.1689 -18.1387 38.7461c-239.421 -36.7051 -422.821 -244.069 -422.821 -494.383zM515.771 592.134c-9.6084 8.53418 -24.1211 8.39453 -33.5635 -0.324219l-22.0293 -20.3428c-10.7207 -9.89844 -10.7207 -26.835 0 -36.7334l22.0293 -20.3438
c9.44238 -8.71777 23.9551 -8.8584 33.5635 -0.323242l22.9004 20.3438c11.1963 9.94531 11.1963 27.4346 0 37.3818zM516.543 918.809c-9.79297 9.6416 -25.5342 9.57031 -35.2393 -0.161133l-90.4873 -90.7227c-9.85938 -9.8877 -9.70996 -25.9365 0.333984 -35.6367
l90.4834 -87.3896c9.625 -9.29492 24.8613 -9.36328 34.5693 -0.157227l92.1484 87.3926c10.2617 9.73145 10.4131 26.0312 0.334961 35.9541zM229.198 282.747c44.6768 0 80.8936 36.3115 80.8936 81.1064c0 44.793 -36.2168 81.1045 -80.8936 81.1045
s-80.8936 -36.3115 -80.8936 -81.1045c0 -44.7949 36.2168 -81.1064 80.8936 -81.1064zM1000 499.03c0 250.313 -183.4 457.678 -422.821 494.383c-22.3223 3.42285 -34.0869 -22.7559 -18.1387 -38.7461l126.741 -127.075c9.7334 -9.75879 9.7334 -25.5518 0 -35.3105
l-126.569 -126.903c-9.73145 -9.75586 -9.73145 -25.5498 0 -35.3076l59.1602 -59.3154c9.73145 -9.75781 9.73145 -25.5518 0 -35.3086l-82.9521 -83.1699c-4.67285 -4.68652 -7.29785 -11.0352 -7.29785 -17.6533v-18.7344c0 -13.8066 11.1914 -25 25 -25h65.1084
c11.8945 0 21.9092 8.49121 26.0078 19.6582c18.9619 51.6465 68.4717 88.4834 126.563 88.4834c23.0664 0 44.7803 -5.80859 63.7646 -16.0449c11.0801 -5.97559 25.1123 -5.30664 34.002 3.60645l13.7695 13.8066c9.76855 9.79492 25.6338 9.79492 35.4023 0
l2.8252 -2.83203c9.73145 -9.75781 9.73145 -25.5518 0 -35.3076l-18.8105 -18.8584c-7.89941 -7.92188 -9.3418 -20.0508 -5.28809 -30.4775c5.91309 -15.2109 9.1582 -31.7607 9.1582 -49.0693c0 -74.6572 -60.3633 -135.179 -134.823 -135.179
c-58.0918 0 -107.602 36.8369 -126.563 88.4834c-4.09863 11.167 -14.1133 19.6582 -26.0078 19.6582h-65.1084c-13.8086 0 -25 -11.1914 -25 -25v-172.239c0 -17.8408 21.5781 -26.7617 34.1758 -14.1309c7.81836 7.83887 20.5156 7.83887 28.3359 0l6.35645 -6.375
c9.7334 -9.75781 9.7334 -25.5518 0 -35.3096l-40.6221 -40.7285c-15.9062 -15.9482 -4.24023 -42.0918 18.0449 -38.8027c240.773 35.5264 425.587 243.522 425.587 494.8zM770.802 282.747c44.6768 0 80.8936 36.3115 80.8936 81.1064
c0 44.793 -36.2168 81.1045 -80.8936 81.1045s-80.8936 -36.3115 -80.8936 -81.1045c0 -44.7949 36.2168 -81.1064 80.8936 -81.1064z" />
    <glyph glyph-name="Uacute" unicode="&#xda;" 
d="M600 599v225h200l-300 175l-300 -175h200v-225l100 -50zM500.002 434.937l-400.002 239.063v-450l400 -225l400 225v450z" />
    <glyph glyph-name="Ucircumflex" unicode="&#xdb;" 
d="M271.007 702.998v-407.986c0 -13.8066 11.1934 -25 25 -25h407.983c13.8076 0 25 11.1934 25 25v407.986c0 13.8086 -11.1924 25 -25 25h-407.983c-13.8066 0 -25 -11.1914 -25 -25zM436.925 587.08h126.146c13.8086 0 25 -11.1934 25 -25v-126.15
c0 -13.8066 -11.1914 -25 -25 -25h-126.146c-13.8086 0 -25 11.1934 -25 25v126.15c0 13.8066 11.1914 25 25 25zM982.323 917.032l-64.29 64.29c-9.76367 9.7627 -25.5918 9.7627 -35.3545 0l-124.431 -124.431c-9.7627 -9.7627 -9.7627 -25.5918 0 -35.3545l64.29 -64.29
c9.76367 -9.76367 25.5918 -9.76367 35.3555 0l124.43 124.431c9.76367 9.7627 9.76367 25.5918 0 35.3545zM918.023 16.6787l64.2881 64.2881c9.76367 9.76367 9.76367 25.5928 0 35.3545l-124.428 124.432c-9.76367 9.76367 -25.5938 9.76367 -35.3574 0l-64.2881 -64.29
c-9.76367 -9.7627 -9.76367 -25.5908 0 -35.3545l124.43 -124.43c9.76367 -9.76367 25.5918 -9.76367 35.3555 0zM241.764 176.485l-64.29 64.2881c-9.76367 9.76367 -25.5928 9.76367 -35.3555 0l-124.43 -124.43c-9.7627 -9.76367 -9.7627 -25.5918 0 -35.3555
l64.2891 -64.29c9.7627 -9.76367 25.5928 -9.76367 35.3555 0l124.431 124.432c9.76172 9.76172 9.76172 25.5918 0 35.3555zM177.463 757.225l64.2891 64.29c9.7627 9.76367 9.7627 25.5928 0 35.3555l-124.43 124.431c-9.7627 9.76367 -25.5918 9.76367 -35.3555 0
l-64.2891 -64.2891c-9.7627 -9.76367 -9.7627 -25.5928 0 -35.3555l124.43 -124.432c9.76367 -9.76172 25.5928 -9.76172 35.3555 0z" />
    <glyph glyph-name="Udieresis" unicode="&#xdc;" 
d="M500.003 962.191l-125 -125.675l-161.613 162.483l-176.776 -177.73l161.611 -162.482l-73.2227 -73.6172v-334.823h-125.002v-251.347h1000v251.347h-124.999v334.823l-73.2227 73.6172l161.611 162.482l-176.776 177.73l-161.612 -162.483zM375.003 250.347v230.712
l125 125.673l125 -125.673v-230.712h-250z" />
    <glyph glyph-name="Yacute" unicode="&#xdd;" 
d="M233.855 955.522l-233.855 -233.855v-374.84h239.13v-304.349l532.653 0.00195312v304.178h228.217v375.009l-233.842 233.841zM900 680.003v-233.345h-128.217v107.059l-76.1318 75.4014l-23.8682 23.6387v-510.276h-367.435v4.34668l393.72 708.695h26.4131z" />
    <glyph glyph-name="Thorn" unicode="&#xde;" 
d="M500 599l300 285.714l-120 114.286h-360l-120 -114.286zM180.142 765.53c-80.457 -81.2988 -130.142 -193.112 -130.142 -316.53c0 -248.528 201.472 -450 450 -450s450 201.472 450 450c0 123.418 -49.6846 235.233 -130.144 316.531l-72.4316 -68.9814
c63.375 -63.3428 102.575 -150.868 102.575 -247.55c0 -193.3 -156.7 -350 -350 -350s-350 156.7 -350 350c0 96.6816 39.2002 184.207 102.573 247.548zM325.019 627.554c-46.2949 -45.375 -75.0186 -108.61 -75.0186 -178.554c0 -138.071 111.929 -250 250 -250
s250 111.929 250 250c0 69.9434 -28.7236 133.18 -75.0186 178.554l-72.4863 -69.0342c29.2363 -27.3711 47.5049 -66.3115 47.5049 -109.52c0 -82.8438 -67.1562 -150 -150 -150s-150 67.1562 -150 150c0 43.207 18.2686 82.1484 47.5029 109.519z" />
    <glyph glyph-name="germandbls" unicode="&#xdf;" 
d="M875 949h-750l-50 50h-75v-200h75l50 50h750l50 -50h75v200h-75zM737.5 749l-237.5 -150l-237.5 150h-137.5v-750l150 150l150 -150l75 75l75 -75l150 150l150 -150v750h-137.5z" />
    <glyph glyph-name="agrave" unicode="&#xe0;" 
d="M688.187 764.568l-551.403 -551.403c-6.50879 -6.50879 -6.50879 -17.0615 0 -23.5703l53.8105 -53.8096c6.50781 -6.50879 17.0615 -6.50879 23.5693 0l551.402 551.401v-398.396c0 -9.20508 7.46094 -16.667 16.666 -16.667h76.1006
c9.20508 0 16.666 7.46191 16.666 16.667v568.543c0 9.20508 -7.46094 16.667 -16.666 16.667h-568.545c-9.20508 0 -16.667 -7.46191 -16.667 -16.667v-76.0977c0 -9.20508 7.46191 -16.667 16.667 -16.667h398.399z" />
    <glyph glyph-name="aacute" unicode="&#xe1;" 
d="M0 974v-300c0 -13.8066 11.1934 -25 25 -25h300c13.8066 0 25 11.1934 25 25v300c0 13.8066 -11.1934 25 -25 25h-300c-13.8066 0 -25 -11.1934 -25 -25zM0 474c0 -13.8066 11.1924 -25 25 -25h950c13.8066 0 25 11.1934 25 25v50c0 13.8066 -11.1934 25 -25 25h-950
c-13.8066 0 -25 -11.1934 -25 -25v-50zM680.575 -1c19.4902 0 31.4844 21.3135 21.3682 37.9746l-168.073 276.829c-9.73535 16.0332 -33.0049 16.0332 -42.7402 0l-168.073 -276.829c-10.1162 -16.6611 1.87793 -37.9746 21.3682 -37.9746h336.15zM1000 974
c0 13.8066 -11.1934 25 -25 25h-300c-13.8066 0 -25 -11.1934 -25 -25v-300c0 -13.8066 11.1934 -25 25 -25h300c13.8066 0 25 11.1934 25 25v300z" />
    <glyph glyph-name="acircumflex" unicode="&#xe2;" 
d="M241.533 956.522l195.557 -200.001c4.70312 -4.80957 11.1465 -7.52148 17.875 -7.52148h90.0703c6.72852 0 13.1719 2.71191 17.875 7.52148l195.557 200.001c15.4766 15.8281 4.26172 42.4775 -17.877 42.4775h-481.182c-22.1367 0 -33.3516 -26.6494 -17.875 -42.4775
zM957.521 757.467l-200 -195.557c-4.80957 -4.70312 -7.52148 -11.1465 -7.52148 -17.875v-90.0703c0 -6.72852 2.71191 -13.1719 7.52148 -17.875l200 -195.557c15.8281 -15.4766 42.4785 -4.26172 42.4785 17.877v481.182c0 22.1367 -26.6504 33.3516 -42.4785 17.875z
M758.467 41.4785l-195.557 200c-4.70312 4.80957 -11.1465 7.52148 -17.875 7.52148h-90.0703c-6.72852 0 -13.1719 -2.71191 -17.875 -7.52148l-195.557 -200c-15.4766 -15.8281 -4.26172 -42.4785 17.875 -42.4785h481.182c22.1387 0 33.3535 26.6504 17.877 42.4785z
M42.4775 757.467c-15.8281 15.4766 -42.4775 4.26172 -42.4775 -17.875v-481.182c0 -22.1387 26.6494 -33.3535 42.4775 -17.877l200.001 195.557c4.80957 4.70312 7.52148 11.1465 7.52148 17.875v90.0703c0 6.72852 -2.71191 13.1719 -7.52148 17.875z" />
    <glyph glyph-name="atilde" unicode="&#xe3;" 
d="M1000 499v400l-100 100h-800l-100 -100v-400c0 -276.144 223.858 -500 500 -500s500 223.856 500 500zM275 599c-55.2285 0 -100 44.7715 -100 100s44.7715 100 100 100s100 -44.7715 100 -100s-44.7715 -100 -100 -100zM175 499h100c0 -124.264 100.736 -225 225 -225
s225 100.736 225 225h100c0 -179.493 -145.507 -325 -325 -325s-325 145.507 -325 325zM825 699c0 -55.2285 -44.7715 -100 -100 -100s-100 44.7715 -100 100s44.7715 100 100 100s100 -44.7715 100 -100z" />
    <glyph glyph-name="adieresis" unicode="&#xe4;" 
d="M0 564.278v-130.557c0 -13.8066 11.1934 -25 25 -25h96.5459c13.8066 0 25 -11.1914 25 -25v-74.9463c0 -22.1904 26.7578 -33.3818 42.5557 -17.7988l192.854 190.226c9.92676 9.78906 9.92676 25.8066 0 35.5957l-192.854 190.226
c-15.7979 15.583 -42.5557 4.3916 -42.5557 -17.7988v-74.9463c0 -13.8086 -11.1934 -25 -25 -25h-96.5459c-13.8066 0 -25 -11.1934 -25 -25zM565.278 999h-130.557c-13.8066 0 -25 -11.1934 -25 -25v-96.5459c0 -13.8066 -11.1914 -25 -25 -25h-74.9463
c-22.1904 0 -33.3818 -26.7578 -17.7988 -42.5557l190.226 -192.854c9.78906 -9.92676 25.8066 -9.92676 35.5957 0l190.226 192.854c15.583 15.7979 4.3916 42.5557 -17.7988 42.5557h-74.9463c-13.8086 0 -25 11.1934 -25 25v96.5459c0 13.8066 -11.1934 25 -25 25z
M1000 564.278c0 13.8066 -11.1934 25 -25 25h-96.5449c-13.8086 0 -25 11.1914 -25 25v74.9463c0 22.1904 -26.7588 33.3818 -42.5566 17.7988l-192.854 -190.226c-9.92676 -9.78906 -9.92676 -25.8066 0 -35.5957l192.854 -190.226
c15.7979 -15.583 42.5566 -4.3916 42.5566 17.7988v74.9463c0 13.8086 11.1914 25 25 25h96.5449c13.8066 0 25 11.1934 25 25v130.557zM565.278 -1c13.8066 0 25 11.1934 25 25v96.5449c0 13.8086 11.1914 25 25 25h74.9463c22.1904 0 33.3818 26.7588 17.7988 42.5566
l-190.226 192.854c-9.78906 9.92676 -25.8066 9.92676 -35.5957 0l-190.226 -192.854c-15.583 -15.7979 -4.3916 -42.5566 17.7988 -42.5566h74.9463c13.8086 0 25 -11.1914 25 -25v-96.5449c0 -13.8066 11.1934 -25 25 -25h130.557z" />
    <glyph glyph-name="aring" unicode="&#xe5;" 
d="M807.321 370.969c15.75 -15.749 42.6787 -4.5957 42.6787 17.6777v70.71c0 6.62988 -2.63379 12.9902 -7.32129 17.6787l-364.644 364.643c-4.68848 4.68848 -11.0488 7.32227 -17.6787 7.32227h-70.71c-22.2734 0 -33.4268 -26.9287 -17.6777 -42.6787zM157.322 770.967
l614.647 -614.646c4.68848 -4.6875 11.0469 -7.32129 17.6768 -7.32129h35.3535c13.8066 0 25 11.1934 25 25v35.3584c0 6.62988 -2.63379 12.9883 -7.32129 17.6768l-614.646 614.643c-4.68848 4.68848 -11.0469 7.32227 -17.6777 7.32227h-35.3555
c-13.8076 0 -25 -11.1924 -25 -25v-35.3555c0 -6.62988 2.63379 -12.9893 7.32227 -17.6777zM639.646 849c-22.2734 0 -33.4268 -26.9287 -17.6777 -42.6787l185.353 -185.353c15.75 -15.749 42.6787 -4.5957 42.6787 17.6777v70.71
c0 6.62988 -2.63379 12.9902 -7.32129 17.6787l-114.644 114.643c-4.68848 4.68848 -11.0488 7.32227 -17.6787 7.32227h-70.71z" />
    <glyph glyph-name="ae" unicode="&#xe6;" 
d="M470.993 931.474c11.6982 32.7539 -12.9033 67.0059 -47.2812 61.7432c-67.999 -10.4102 -131.487 -34.5186 -187.559 -69.4199c-21.2881 -13.25 -17.627 -45.0811 0.103516 -62.8125l57.3096 -57.3096c28.1299 -28.1299 43.9336 -66.2832 43.9336 -106.064v-77.3418
c0 -10.1699 3.10156 -20.0986 8.88965 -28.46l37.7988 -54.5986c47.1553 -68.1113 30.165 -161.555 -37.9473 -208.71l-40.2529 -27.8662c-11.5781 -8.01758 -18.4883 -21.2041 -18.4883 -35.2871c0 -59.1348 -36.4199 -112.163 -91.6133 -133.392
c-11.2666 -4.33301 -13.8389 -19.0449 -4.34375 -26.498c84.9668 -66.6904 192.067 -106.457 308.457 -106.457c100.295 0 193.691 29.5283 271.972 80.3682c24.7188 16.0537 25.4414 50.5781 13.6416 77.585c-9.22168 21.1084 -13.7246 44.9268 -11.9736 70.3418
l12.2383 177.441c0.572266 8.28223 -0.927734 16.5732 -4.36328 24.1299l-21.0283 46.2637c-9.18848 20.2148 -30.6084 31.9473 -52.5898 28.8066l-53.7783 -7.68164c-44.6533 -6.37988 -89.8086 7.6748 -122.955 38.2715l-78.9932 72.917
c-44.1914 40.792 -59.7471 104.035 -39.5186 160.672zM590.781 969.175c-0.481445 -1.0918 -0.924805 -2.20605 -1.3291 -3.33984l-82.627 -231.354c-6.74219 -18.8799 -1.55664 -39.96 13.1729 -53.5586l78.9932 -72.916
c11.0488 -10.1982 26.1006 -14.8838 40.9854 -12.7568l53.7783 7.68164c65.9453 9.42188 130.203 -25.7783 157.769 -86.4219l21.0283 -46.2617c10.3047 -22.6699 14.8037 -47.5479 13.0898 -72.3916l-12.2383 -177.441c-1.51855 -22.0303 26.0967 -22.9346 38.625 -4.75195
c55.4863 80.5352 87.9717 178.142 87.9717 283.337c0 231.78 -157.708 426.725 -371.672 483.379c-14.5781 3.85938 -31.4697 0.598633 -37.5469 -13.2041zM76.6465 232.847c11.9727 -19.0029 35.9688 -25.7783 56.9336 -17.7148l26.4092 10.1582
c16.5742 6.375 27.5107 22.2979 27.5107 40.0566c0 46.8965 23.0088 90.8096 61.5664 117.505l40.2539 27.8682c22.7051 15.7188 28.3682 46.8652 12.6494 69.5703l-37.7979 54.5967c-17.3672 25.0869 -26.6719 54.8721 -26.6719 85.3818v77.3418
c0 13.2598 -5.26855 25.9775 -14.6445 35.3545l-57.3086 57.3086c-8.3623 8.36328 -19.418 13.4902 -31.2031 14.4717l-1.29297 0.108398c-16.7764 1.39844 -33.2783 -5.63867 -42.9336 -19.4287c-56.793 -81.123 -90.1172 -179.882 -90.1172 -286.425
c0 -97.8213 28.0908 -189.08 76.6465 -266.153z" />
    <glyph glyph-name="ccedilla" unicode="&#xe7;" 
d="M488.805 667.733l-211.925 -349.187c-5.21973 -8.60352 1.04688 -19.5469 11.1953 -19.5469h423.85c10.1484 0 16.415 10.9434 11.1953 19.5469l-211.925 349.187c-5.07227 8.35449 -17.3184 8.35449 -22.3906 0z" />
    <glyph glyph-name="egrave" unicode="&#xe8;" 
d="M494.106 718.106l-213.213 -213.213c-3.25488 -3.25488 -3.25488 -8.53223 0 -11.7871l213.213 -213.213c3.25488 -3.25488 8.53223 -3.25488 11.7871 0l213.213 213.213c3.25488 3.25488 3.25488 8.53223 0 11.7871l-213.213 213.213
c-3.25488 3.25488 -8.53223 3.25488 -11.7871 0z" />
    <glyph glyph-name="eacute" unicode="&#xe9;" 
d="M845.53 437.017v475.854c0 22.3809 -27.1523 33.4854 -42.835 17.5176l-289.329 -294.576c-9.79785 -9.97461 -25.873 -9.97461 -35.6709 0l-289.329 294.576c-15.6826 15.9678 -42.8359 4.86328 -42.8359 -17.5176v-475.854
c0 -6.62988 -2.63379 -12.9883 -7.32227 -17.6768l-120.532 -120.533c-9.7627 -9.76172 -9.7627 -25.5918 0 -35.3545l70.6973 -70.6973c9.76367 -9.76465 25.5947 -9.76367 35.3574 0.00195312l78.4512 78.4668c9.82324 9.82617 25.7764 9.75684 35.5146 -0.157227
l239.999 -244.336c9.79785 -9.97754 25.873 -9.97559 35.6699 0l239.975 244.335c9.73828 9.91309 25.6914 9.98438 35.5166 0.158203l78.4521 -78.4688c9.76172 -9.76465 25.5898 -9.7666 35.3545 -0.00488281l70.7188 70.7021
c9.76465 9.7627 9.76465 25.5928 0.00195312 35.3574l-120.53 120.53c-4.68848 4.68848 -7.32324 11.0469 -7.32324 17.6768zM513.366 421.727l139.329 141.861c15.6816 15.9688 42.835 4.86426 42.835 -17.5176v-109.551c0 -6.55273 -2.57227 -12.8428 -7.16406 -17.5176
l-175 -178.184c-9.79785 -9.97656 -25.875 -9.97656 -35.6709 0l-175 178.184c-4.5918 4.6748 -7.16504 10.9648 -7.16504 17.5176v109.551c0 22.3818 27.1533 33.4863 42.8359 17.5176l139.329 -141.861c9.7959 -9.97656 25.873 -9.97656 35.6709 0z" />
    <glyph glyph-name="ecircumflex" unicode="&#xea;" 
d="M732.76 874h-465.521c-6.7168 0 -13.1504 -2.70215 -17.8516 -7.49805l-237.258 -241.992c-9.53125 -9.72168 -9.53125 -25.2832 0 -35.0049l470.018 -479.425c9.80176 -9.99707 25.9033 -9.99707 35.7051 0l470.019 479.425c9.53027 9.72168 9.53027 25.2832 0 35.0049
l-237.259 241.992c-4.70117 4.7959 -11.1348 7.49805 -17.8516 7.49805zM222.191 624.51l90.209 91.9932c4.70117 4.79492 11.1328 7.49707 17.8496 7.49707h69.748c13.8086 0 25 -11.1934 25 -25v-255.128c0 -22.3916 -27.1729 -33.4902 -42.8496 -17.5039
l-159.957 163.137c-9.5332 9.72168 -9.5332 25.2832 0 35.0049zM574.998 443.877v255.123c0 13.8066 11.1934 25 25 25h69.749c6.71582 0 13.1494 -2.70215 17.8525 -7.49805l90.1875 -91.9922c9.53125 -9.72168 9.53125 -25.2812 0 -35.0029l-159.938 -163.132
c-15.6748 -15.9902 -42.8516 -4.88965 -42.8516 17.502z" />
    </font>
</defs>
</svg>
