<svg width="500" height="500" viewBox="0 0 500 500" fill="none" xmlns="http://www.w3.org/2000/svg">
<path d="M73.2233 73.2233L250 184.75L426.777 73.2233L315.25 250L426.777 426.777L250 315.25L73.2233 426.777L184.75 250L73.2233 73.2233Z" fill="#856905"/>
<path d="M250 0L296.139 203.861L500 250L296.139 296.139L250 500L203.861 296.139L0 250L203.861 203.861L250 0Z" fill="#C6A421"/>
<path d="M290.479 266.314C290.35 269.114 289.425 271.877 287.704 274.603C286.027 277.294 283.64 279.729 280.543 281.911C277.446 284.056 273.726 285.782 269.382 287.091C265.038 288.364 260.178 289 254.801 289C245.683 289 237.812 287.328 231.188 283.983C224.565 280.638 219.446 276.003 215.833 270.077C212.264 264.151 210.479 257.316 210.479 249.573C210.479 243.683 211.554 238.266 213.704 233.322C215.855 228.377 218.866 224.088 222.737 220.452C226.651 216.816 231.253 213.999 236.543 211.999C241.833 210 247.618 209 253.898 209C258.156 209 261.64 209.364 264.35 210.091C267.059 210.818 269.188 211.545 270.737 212.272C272.285 212.999 273.425 213.363 274.156 213.363C275.102 213.363 275.898 213.035 276.543 212.381C277.231 211.727 277.919 211.072 278.608 210.418C279.296 209.727 280.07 209.382 280.93 209.382C281.532 209.382 282.027 209.545 282.414 209.873C282.844 210.2 283.188 210.763 283.446 211.563L290.156 231.14C290.371 231.831 290.285 232.431 289.898 232.94C289.554 233.449 288.973 233.776 288.156 233.922C287.382 234.067 286.672 233.994 286.027 233.704C285.382 233.413 284.866 232.922 284.479 232.231C282.156 227.65 279.554 224.015 276.672 221.324C273.833 218.598 270.758 216.635 267.446 215.435C264.177 214.235 260.651 213.635 256.866 213.635C252.995 213.635 249.446 214.381 246.22 215.871C243.038 217.325 240.242 219.452 237.833 222.252C235.468 225.015 233.64 228.359 232.35 232.286C231.059 236.212 230.414 240.629 230.414 245.537C230.414 253.172 231.747 259.607 234.414 264.842C237.124 270.041 240.801 273.985 245.446 276.676C250.135 279.33 255.489 280.656 261.511 280.656C267.403 280.656 272.479 279.384 276.737 276.839C280.995 274.294 284.177 270.713 286.285 266.096C286.672 265.442 287.081 265.005 287.511 264.787C287.941 264.533 288.436 264.46 288.995 264.569C289.511 264.605 289.876 264.787 290.092 265.114C290.35 265.405 290.479 265.805 290.479 266.314Z" fill="#433400"/>
<path d="M272.193 247.857C272.193 254.169 267.076 259.286 260.764 259.286C254.452 259.286 249.336 254.169 249.336 247.857C249.336 241.545 254.452 236.429 260.764 236.429C267.076 236.429 272.193 241.545 272.193 247.857Z" fill="#433400"/>
</svg>
